<svg xmlns="http://www.w3.org/2000/svg" width="25" height="24" viewBox="0 0 25 24">
  <g id="グループ_4" data-name="グループ 4" transform="translate(-38 -43)">
    <rect id="長方形_44" data-name="長方形 44" width="25" height="24" rx="5" transform="translate(38 43)" fill="#df7564"/>
    <path id="合体_1" data-name="合体 1" d="M6.578,11.722.452,6.821a1,1,0,0,1,0-1.562L6.578.358A1,1,0,0,1,8.2,1.139v2.3a2.019,2.019,0,0,1,.255-.016H14.93a2,2,0,0,1,2,2V6.659a2,2,0,0,1-2,2H8.457A2.019,2.019,0,0,1,8.2,8.643v2.3a1,1,0,0,1-1,1A.983.983,0,0,1,6.578,11.722Z" transform="translate(42.364 49.545)" fill="#fff"/>
  </g>
</svg>
