<svg xmlns="http://www.w3.org/2000/svg" width="79.7" height="79" viewBox="0 0 79.7 79">
  <g id="グループ_199" data-name="グループ 199" transform="translate(-255.3 -24)">
    <circle id="楕円形_4" data-name="楕円形 4" cx="39.5" cy="39.5" r="39.5" transform="translate(256 24)" fill="#ffce72"/>
    <g id="グループ_77" data-name="グループ 77" transform="translate(270 32.034)">
      <path id="パス_102" data-name="パス 102" d="M142.624,446.247l-.175-7.013H91.779l.175,7.013h3.025v34.747h44.209V446.247Z" transform="translate(-91.779 -423.171)" fill="#fff"/>
      <path id="パス_103" data-name="パス 103" d="M2.842,1.83C-.79,8.619-.631,12.565,1.579,14.3s14.365-.158,14.365-.158C15,8.934,6.472-4.956,2.842,1.83ZM3.1,13.866C1.231,12.4.965,8.982,4.171,3.309,6.954-1.618,13.85,8.687,15.119,13.444,15.119,13.444,4.973,15.336,3.1,13.866Z" transform="matrix(0.978, 0.208, -0.208, 0.978, 12.556, 0)" fill="#fff"/>
      <path id="パス_104" data-name="パス 104" d="M0,14.143s12.156,1.9,14.365.158S16.732,8.619,13.1,1.83.948,8.934,0,14.143Zm.824-.7C2.092,8.687,8.99-1.618,11.773,3.309c3.205,5.673,2.939,9.088,1.068,10.557S.824,13.444.824,13.444Z" transform="translate(22.917 3.152) rotate(-11)" fill="#fff"/>
    </g>
    <g id="パス_179" data-name="パス 179" transform="translate(256.258 91.943)" fill="#fff" stroke-linecap="round">
      <path d="M 7.297916412353516 2.907444715499878 C 6.153676509857178 2.907444715499878 5.641496658325195 2.188024759292603 5.641496658325195 1.475034713745117 L 5.641496658325195 0.3687146902084351 L 2.130836486816406 0.3687146902084351 C 1.305036544799805 0.3687146902084351 0.7282865643501282 -0.2694453299045563 0.7282865643501282 -1.183175325393677 C 0.7282865643501282 -1.66538393497467 0.8741521835327148 -2.029957056045532 1.09593391418457 -2.285544872283936 C 0.541960597038269 -2.423354387283325 0.04133658483624458 -2.91346001625061 0.04133658483624458 -3.811515331268311 C 0.04133658483624458 -4.725235462188721 0.6119465827941895 -5.363395214080811 1.428956627845764 -5.363395214080811 L 3.039392232894897 -5.363395214080811 C 3.00262713432312 -5.442331314086914 2.96480655670166 -5.522776126861572 2.925907850265503 -5.604785442352295 L 1.309486627578735 -5.604785442352295 C 0.4748965799808502 -5.604785442352295 -0.1079934164881706 -6.242945194244385 -0.1079934164881706 -7.156675338745117 C -0.1079934164881706 -8.202632904052734 0.5856877565383911 -8.695192337036133 1.251268267631531 -8.722309112548828 C 1.043311715126038 -8.98759651184082 0.9224265813827515 -9.339112281799316 0.9224265813827515 -9.740205764770508 C 0.9224265813827515 -10.64808559417725 1.518566608428955 -11.30702495574951 2.339916467666626 -11.30702495574951 L 5.627862453460693 -11.30702495574951 C 5.657211780548096 -11.96533107757568 6.182658672332764 -12.6510648727417 7.297916412353516 -12.6510648727417 C 7.720576763153076 -12.6510648727417 8.079686164855957 -12.54990577697754 8.365266799926758 -12.35039520263672 C 8.714079856872559 -12.10670280456543 8.920687675476074 -11.72890663146973 8.938196182250977 -11.30702495574951 L 12.46499633789062 -11.30702495574951 C 13.27768611907959 -11.30702495574951 13.8675365447998 -10.64808559417725 13.8675365447998 -9.740205764770508 C 13.8675365447998 -9.339328765869141 13.7480411529541 -8.987957000732422 13.54248237609863 -8.722719192504883 C 14.21145534515381 -8.700681686401367 14.91290664672852 -8.208479881286621 14.91290664672852 -7.156675338745117 C 14.91290664672852 -6.242945194244385 14.33001613616943 -5.604785442352295 13.49541664123535 -5.604785442352295 L 11.74634647369385 -5.604785442352295 C 11.70950889587402 -5.523862838745117 11.67163181304932 -5.443430423736572 11.63284587860107 -5.363395214080811 L 13.37594699859619 -5.363395214080811 C 14.05145645141602 -5.363395214080811 14.77849674224854 -4.87776517868042 14.77849674224854 -3.811515331268311 C 14.77849674224854 -2.918453454971313 14.27808475494385 -2.428813934326172 13.72187519073486 -2.287873029708862 C 13.9447774887085 -2.032174587249756 14.0915470123291 -1.666829466819763 14.0915470123291 -1.183175325393677 C 14.0915470123291 -0.2694453299045563 13.51479625701904 0.3687146902084351 12.68899631500244 0.3687146902084351 L 8.954336166381836 0.3687146902084351 L 8.954336166381836 1.475034713745117 C 8.954336166381836 2.188024759292603 8.442156791687012 2.907444715499878 7.297916412353516 2.907444715499878 Z M 6.522590637207031 -5.363395214080811 L 8.045432090759277 -5.363395214080811 C 8.086274147033691 -5.443215847015381 8.126364707946777 -5.523674488067627 8.165936470031738 -5.604785442352295 L 6.429539680480957 -5.604785442352295 C 6.462157249450684 -5.523191452026367 6.493125915527344 -5.442850112915039 6.522590637207031 -5.363395214080811 Z M 47.91769790649414 2.81784462928772 C 47.60673522949219 2.81784462928772 47.26964569091797 2.712304592132568 46.96852493286133 2.520674705505371 L 46.94933700561523 2.508464574813843 L 46.93082809448242 2.495244741439819 C 46.50532531738281 2.191304683685303 46.26128768920898 1.737804651260376 46.26128768920898 1.251024723052979 C 46.26128768920898 0.9119002819061279 46.36892700195312 0.5993918180465698 46.58125305175781 0.3219365179538727 C 46.95924758911133 -0.1934390515089035 47.29032135009766 -0.7821928262710571 47.44623565673828 -1.216495275497437 L 47.44742584228516 -1.219815373420715 L 47.44864654541016 -1.223125338554382 C 47.45484924316406 -1.239961862564087 47.46130752563477 -1.256654739379883 47.46798706054688 -1.273130655288696 C 47.01318740844727 -1.623615026473999 46.78395843505859 -2.202161550521851 46.78395843505859 -3.005095243453979 L 46.78395843505859 -10.03888511657715 C 46.78395843505859 -11.46500492095947 47.49701690673828 -12.18811511993408 48.90333557128906 -12.18811511993408 L 50.63563537597656 -12.18811511993408 C 51.78853607177734 -12.18811511993408 52.47223281860352 -11.69510936737061 52.67560958862305 -10.72060108184814 C 52.74456405639648 -10.75309562683105 52.81792831420898 -10.78260612487793 52.89583969116211 -10.8087854385376 C 52.8537712097168 -10.93776702880859 52.83212661743164 -11.07070541381836 52.83212661743164 -11.20371532440186 C 52.83212661743164 -11.80267524719238 53.25369644165039 -12.33021545410156 53.9061279296875 -12.54771518707275 L 53.92852783203125 -12.55517578125 L 53.9513053894043 -12.56138515472412 C 54.21300506591797 -12.63275527954102 54.42167663574219 -12.66599559783936 54.60802841186523 -12.66599559783936 C 55.1572380065918 -12.66599559783936 55.61026763916016 -12.40252494812012 55.88363647460938 -11.92411518096924 C 56.04248046875 -11.64880561828613 56.2052116394043 -11.32645702362061 56.37579345703125 -10.94861507415771 L 56.642578125 -10.94861507415771 C 56.78635406494141 -11.20071220397949 56.92132949829102 -11.47304344177246 57.03595733642578 -11.74398517608643 L 57.03893661499023 -11.75101566314697 L 57.04203796386719 -11.75800514221191 C 57.29427719116211 -12.32555484771729 57.78967666625977 -12.6510648727417 58.40119552612305 -12.6510648727417 C 58.56951522827148 -12.6510648727417 58.74706649780273 -12.62978553771973 58.94400787353516 -12.58601570129395 L 58.96238708496094 -12.58193492889404 L 58.98057556152344 -12.57703495025635 C 59.79679489135742 -12.35728549957275 60.16214752197266 -11.72144508361816 60.16214752197266 -11.18878555297852 C 60.16214752197266 -11.06516265869141 60.14609146118164 -10.94819641113281 60.11421203613281 -10.83867168426514 C 60.37351608276367 -10.76266860961914 60.633056640625 -10.63576602935791 60.85870742797852 -10.4254150390625 C 61.25419616699219 -10.0567455291748 61.44644546508789 -9.529745101928711 61.44644546508789 -8.814315795898438 L 61.44644546508789 -5.84250545501709 C 61.44644546508789 -5.130765438079834 61.25137710571289 -4.607895374298096 60.8500862121582 -4.24400520324707 C 60.74236679077148 -4.146326541900635 60.62689208984375 -4.067279815673828 60.5073356628418 -4.003329753875732 C 60.77011108398438 -3.658779859542847 60.90883636474609 -3.201911926269531 60.90883636474609 -2.64667534828186 L 60.90883636474609 0.4296746850013733 C 60.90883636474609 1.776564717292786 60.10369491577148 2.549044609069824 58.69986724853516 2.549044609069824 L 54.29440689086914 2.549044609069824 C 53.58676910400391 2.549044609069824 53.03227615356445 2.350067377090454 52.65776062011719 1.97803270816803 C 52.60158920288086 2.023104667663574 52.54174423217773 2.065277814865112 52.478515625 2.104154348373413 C 52.21377182006836 2.275609731674194 51.8942985534668 2.369834661483765 51.57646560668945 2.369834661483765 C 51.1118049621582 2.369834661483765 50.67888641357422 2.147924661636353 50.38871765136719 1.761004686355591 L 50.36570739746094 1.730324625968933 L 50.34555816650391 1.697704672813416 C 50.20199203491211 1.465271234512329 50.05801010131836 1.202394843101501 49.92372131347656 0.9307253360748291 C 49.69480514526367 1.400905251502991 49.42885971069336 1.838240385055542 49.15143966674805 2.192930698394775 C 48.86458206176758 2.590481042861938 48.41667175292969 2.81784462928772 47.91769790649414 2.81784462928772 Z M 39.06198501586914 2.534104585647583 C 37.54003524780273 2.534104585647583 36.35100555419922 2.243524789810181 35.52794647216797 1.670454621315002 C 34.66557693481445 1.07000470161438 34.20974731445312 0.1761846840381622 34.20974731445312 -0.9143653512001038 C 34.20974731445312 -1.495562434196472 34.36891555786133 -2.196193933486938 34.89133834838867 -2.930903673171997 C 34.74252319335938 -2.801115751266479 34.58702850341797 -2.662034034729004 34.42471694946289 -2.513135433197021 C 34.10514831542969 -2.220195293426514 33.7154655456543 -2.065485239028931 33.29756546020508 -2.065485239028931 C 32.37540817260742 -2.065485239028931 31.59634590148926 -2.844555377960205 31.59634590148926 -3.766715288162231 C 31.59634590148926 -4.244800567626953 31.81065940856934 -4.694461822509766 32.19986343383789 -5.033309936523438 C 32.80527496337891 -5.569009304046631 33.42451477050781 -6.26833963394165 34.00723266601562 -7.068295478820801 L 33.40209579467773 -7.068295478820801 L 33.38793563842773 -7.068295478820801 L 33.37378692626953 -7.068765163421631 C 32.51692581176758 -7.097325325012207 31.89501571655273 -7.781185150146484 31.89501571655273 -8.694845199584961 C 31.89501571655273 -9.622135162353516 32.54934692382812 -10.3214054107666 33.41703796386719 -10.3214054107666 C 34.29558563232422 -10.3214054107666 35.10976028442383 -10.33425235748291 35.88993835449219 -10.36054134368896 C 36.03586959838867 -10.70168209075928 36.16219329833984 -11.03662872314453 36.2670783996582 -11.36082553863525 C 36.48603820800781 -12.04513549804688 37.08235549926758 -12.4718656539917 37.82248687744141 -12.4718656539917 C 38.23000717163086 -12.4718656539917 38.64837646484375 -12.33044528961182 38.97030639648438 -12.08385562896729 C 39.36945724487305 -11.77812576293945 39.59838485717773 -11.33213520050049 39.59838485717773 -10.86024570465088 C 39.59838485717773 -10.7711181640625 39.59115219116211 -10.68195629119873 39.57677459716797 -10.59334754943848 C 40.15714645385742 -10.65276050567627 40.68276977539062 -10.71527004241943 41.1635856628418 -10.78194332122803 C 41.29271697998047 -10.81421375274658 41.40051651000977 -10.81421566009521 41.45138549804688 -10.81421566009521 C 42.29648590087891 -10.81421566009521 42.95847702026367 -10.09318542480469 42.95847702026367 -9.172725677490234 C 42.95847702026367 -8.367165565490723 42.43694686889648 -7.721115112304688 41.69020843505859 -7.601645469665527 C 41.08535385131836 -7.508030891418457 40.45168685913086 -7.426412105560303 39.8035774230957 -7.358211994171143 C 40.21990966796875 -7.12254524230957 40.5605354309082 -6.784176826477051 40.81523895263672 -6.350716114044189 C 41.65177536010742 -6.629302024841309 42.54251098632812 -6.894491195678711 43.47308731079102 -7.141855239868164 L 43.49874496459961 -7.148675441741943 L 43.52477645874023 -7.153885364532471 C 43.62261581420898 -7.173445224761963 43.75661468505859 -7.200245380401611 43.91546630859375 -7.200245380401611 C 44.81079483032227 -7.200245380401611 45.51214599609375 -6.439855098724365 45.51214599609375 -5.469155311584473 C 45.51214599609375 -4.692655086517334 45.0222282409668 -4.043925285339355 44.29305648803711 -3.854865312576294 L 44.18464660644531 -3.826485395431519 C 43.23162078857422 -3.57693338394165 42.32124328613281 -3.338555335998535 41.44865036010742 -3.070399761199951 C 41.47562026977539 -2.56103253364563 41.48003768920898 -2.141873598098755 41.48003768920898 -1.810385346412659 C 41.48003768920898 -1.529347062110901 41.40586471557617 -1.267366766929626 41.27436447143555 -1.040128350257874 C 41.66049194335938 -1.107181906700134 42.05432891845703 -1.190839767456055 42.45486831665039 -1.290975332260132 L 42.47450637817383 -1.295885324478149 L 42.49434661865234 -1.299855351448059 C 42.65255737304688 -1.331485271453857 42.78144836425781 -1.346225380897522 42.89996719360352 -1.346225380897522 C 43.82879638671875 -1.346225380897522 44.5563850402832 -0.5727153420448303 44.5563850402832 0.4147346913814545 C 44.5563850402832 1.253735661506653 44.00617599487305 1.934767961502075 43.1865119934082 2.111189842224121 C 41.88344192504883 2.403671503067017 40.6111946105957 2.534104585647583 39.06198501586914 2.534104585647583 Z M 37.68711853027344 -1.051756620407104 C 37.734375 -1.017918467521667 37.91345977783203 -0.9167852997779846 38.41511535644531 -0.8669179081916809 C 38.25244903564453 -1.096871376037598 38.15748977661133 -1.372488856315613 38.1401252746582 -1.668343901634216 C 37.84494018554688 -1.4483722448349 37.68686676025391 -1.241457343101501 37.68686676025391 -1.063705325126648 C 37.68686676025391 -1.059177041053772 37.68696594238281 -1.055203557014465 37.68711853027344 -1.051756620407104 Z M 69.58657836914062 2.414634704589844 C 68.41447448730469 2.414634704589844 67.40139770507812 2.106984615325928 66.6568603515625 1.524934649467468 C 65.86970520019531 0.9095746874809265 65.43620300292969 0.02206467837095261 65.43620300292969 -0.9741052985191345 C 65.43620300292969 -1.273264646530151 65.48587799072266 -1.569938540458679 65.58022308349609 -1.852564215660095 C 65.31212615966797 -1.67844033241272 65.00849151611328 -1.587605357170105 64.68829345703125 -1.587605357170105 C 63.7661247253418 -1.587605357170105 62.95720672607422 -2.424445390701294 62.95720672607422 -3.378435373306274 C 62.95720672607422 -3.911895275115967 63.20632553100586 -4.404685497283936 63.64068603515625 -4.73045539855957 C 65.09122467041016 -5.807374000549316 66.44392395019531 -6.945804595947266 67.59139251708984 -8.049439430236816 C 67.15692138671875 -8.024662971496582 66.70664215087891 -8.005470275878906 66.23130035400391 -7.994415283203125 C 66.21883392333984 -7.994045257568359 66.20208740234375 -7.993805408477783 66.18539428710938 -7.993805408477783 C 65.27301788330078 -7.993805408477783 64.58498382568359 -8.725335121154785 64.58498382568359 -9.695405006408691 C 64.58498382568359 -10.63757514953613 65.24715423583984 -11.36876487731934 66.125244140625 -11.39621543884277 C 67.96402740478516 -11.44777488708496 69.60157775878906 -11.53010559082031 71.13421630859375 -11.64800548553467 L 71.16676330566406 -11.65050506591797 L 71.19940948486328 -11.65050506591797 L 71.28900909423828 -11.65050506591797 C 72.32587432861328 -11.65050506591797 73.16943359375 -10.82034492492676 73.16943359375 -9.799944877624512 C 73.16943359375 -9.243095397949219 72.91664886474609 -8.695685386657715 72.45762634277344 -8.258535385131836 L 71.52362060546875 -7.365358352661133 C 74.03782653808594 -7.186188220977783 75.88737487792969 -5.320399284362793 75.88737487792969 -2.885615348815918 C 75.88737487792969 -1.387475371360779 75.26691436767578 -0.03340532258152962 74.14027404785156 0.9271546602249146 C 72.99891662597656 1.900274634361267 71.42426300048828 2.414634704589844 69.58657836914062 2.414634704589844 Z M 68.92867279052734 -3.872327327728271 C 69.71807098388672 -3.813228845596313 70.41445159912109 -3.546840190887451 71.00281524658203 -3.078215360641479 C 71.43746948242188 -2.732020616531372 71.80448913574219 -2.279422760009766 72.1002197265625 -1.726093769073486 C 72.32806396484375 -2.012630224227905 72.44013977050781 -2.382295846939087 72.44013977050781 -2.840815305709839 C 72.44013977050781 -3.6275954246521 71.78548431396484 -4.156215190887451 70.81112670898438 -4.156215190887451 C 70.14775848388672 -4.156215190887451 69.52361297607422 -4.06255054473877 68.92867279052734 -3.872327327728271 Z M 23.0828857421875 2.265294790267944 C 21.55496597290039 2.265294790267944 20.48056602478027 2.003704786300659 19.70165634155273 1.442064642906189 C 18.88886642456055 0.8559846878051758 18.42880630493164 -0.03669532015919685 18.29518699645996 -1.2869952917099 C 18.21948623657227 -2.013675212860107 18.18583679199219 -2.925135374069214 18.18583679199219 -4.244595527648926 L 18.18583679199219 -4.827267646789551 C 17.79745674133301 -4.793939113616943 17.41036605834961 -4.760369777679443 17.03529739379883 -4.727035522460938 L 16.99774742126465 -4.723695278167725 L 16.96004676818848 -4.723695278167725 L 16.90031623840332 -4.723695278167725 C 15.98822689056396 -4.723695278167725 15.273756980896 -5.470955371856689 15.273756980896 -6.424915313720703 C 15.273756980896 -7.334725379943848 15.89946365356445 -8.03510570526123 16.76295852661133 -8.09398365020752 C 16.98192596435547 -8.111884117126465 17.2022533416748 -8.131126403808594 17.42390632629395 -8.15047550201416 C 17.6883487701416 -8.173558235168457 17.95745086669922 -8.197048187255859 18.2298412322998 -8.218751907348633 C 18.2412109375 -8.81838321685791 18.25485992431641 -9.429665565490723 18.27571105957031 -10.04640007019043 C 18.29451370239258 -10.91829872131348 19.0245418548584 -11.55010509490967 20.01506614685059 -11.55010509490967 C 20.54662704467773 -11.55010509490967 21.04059600830078 -11.35802555084229 21.37029647827148 -11.02312564849854 C 21.65195655822754 -10.73702526092529 21.80358695983887 -10.35624504089355 21.79725646972656 -9.950924873352051 L 21.79710578918457 -9.941835403442383 L 21.79677581787109 -9.932755470275879 L 21.79515647888184 -9.889055252075195 C 21.77756118774414 -9.414037704467773 21.75996971130371 -8.939133644104004 21.74237823486328 -8.467352867126465 C 22.53333282470703 -8.51566219329834 23.32225608825684 -8.560256958007812 24.09959602355957 -8.603290557861328 L 24.09959602355957 -8.694845199584961 L 24.09959602355957 -10.4570255279541 C 24.09959602355957 -11.35877513885498 24.83738708496094 -12.03878498077393 25.81575584411621 -12.03878498077393 C 26.80263710021973 -12.03878498077393 27.54684638977051 -11.35235500335693 27.54684638977051 -10.44209575653076 L 27.54684638977051 -8.770795822143555 C 28.02441215515137 -8.788866996765137 28.52001953125 -8.808062553405762 28.99185752868652 -8.827315330505371 L 29.00917625427246 -8.828024864196777 L 29.02651596069336 -8.828024864196777 L 29.07131576538086 -8.828024864196777 C 29.95827674865723 -8.828024864196777 30.65306663513184 -8.09388542175293 30.65306663513184 -7.156675338745117 C 30.65306663513184 -6.208854198455811 30.00103378295898 -5.50068187713623 29.10198020935059 -5.470931529998779 C 28.60062980651855 -5.451272010803223 28.06568145751953 -5.431040287017822 27.48195266723633 -5.40967321395874 C 27.46728134155273 -5.068531513214111 27.45131874084473 -4.739574432373047 27.42510414123535 -4.406373023986816 C 27.28104400634766 -2.318698167800903 26.23190307617188 -1.303865313529968 24.21784591674805 -1.303865313529968 C 23.66041564941406 -1.303865313529968 23.16392707824707 -1.368295311927795 22.70002746582031 -1.500845313072205 L 22.69465637207031 -1.502375364303589 L 22.68929672241211 -1.503985285758972 C 22.28134346008301 -1.626376032829285 21.9510383605957 -1.872268915176392 21.73298454284668 -2.195469617843628 C 21.7451229095459 -2.027660608291626 21.7592945098877 -1.880818963050842 21.77552604675293 -1.754205346107483 L 21.77624702453613 -1.748615264892578 L 21.77688598632812 -1.743015289306641 C 21.81131744384766 -1.44298529624939 21.89107704162598 -1.391155362129211 21.93873596191406 -1.360195279121399 C 22.04119682312012 -1.293625354766846 22.32025718688965 -1.181945323944092 23.03807640075684 -1.181945323944092 C 24.41451644897461 -1.181945323944092 25.73763656616211 -1.33106529712677 26.76370620727539 -1.601835370063782 L 26.80190658569336 -1.611915349960327 L 26.84087753295898 -1.618405342102051 L 26.87578582763672 -1.62431538105011 C 26.96841621398926 -1.640135288238525 27.08369636535645 -1.659825325012207 27.21952629089355 -1.659825325012207 C 28.13161659240723 -1.659825325012207 28.8460865020752 -0.8863252997398376 28.8460865020752 0.101124681532383 C 28.8460865020752 0.94161456823349 28.31248092651367 1.627516508102417 27.51748847961426 1.809934616088867 C 26.21124839782715 2.120604753494263 24.80206680297852 2.265294790267944 23.0828857421875 2.265294790267944 Z M 21.67968940734863 -5.083584308624268 C 21.67788696289062 -4.829708099365234 21.67788696289062 -4.579891204833984 21.67788696289062 -4.334195137023926 C 21.67788696289062 -4.246741771697998 21.67804908752441 -4.16127872467041 21.67837715148926 -4.077686786651611 C 21.95945930480957 -4.566102027893066 22.46475601196289 -4.885515213012695 23.05301666259766 -4.885515213012695 C 23.18885612487793 -4.885515213012695 23.30412673950195 -4.865825176239014 23.3967456817627 -4.850015163421631 L 23.43166732788086 -4.844095230102539 L 23.47917747497559 -4.836175441741943 L 23.52548599243164 -4.822945117950439 C 23.68787956237793 -4.77654504776001 23.84883117675781 -4.749096393585205 24.0141544342041 -4.739784717559814 C 24.02411270141602 -4.894979000091553 24.03433609008789 -5.059926509857178 24.04400062561035 -5.231327056884766 C 23.26205444335938 -5.180566310882568 22.46879768371582 -5.129968166351318 21.67968940734863 -5.083584308624268 Z" stroke="none"/>
      <path d="M 7.297919750213623 2.057446956634521 C 7.805664539337158 2.057446956634521 8.104342460632324 1.848380208015442 8.104342460632324 1.475035786628723 L 8.104342460632324 -0.4812864363193512 L 12.68899726867676 -0.4812864363193512 C 13.04740905761719 -0.4812864363193512 13.24154186248779 -0.7500975728034973 13.24154186248779 -1.183175325393677 C 13.24154186248779 -1.616253137588501 13.04740905761719 -1.899997591972351 12.68899726867676 -1.899997591972351 L 8.104342460632324 -1.899997591972351 L 8.104342460632324 -3.09469747543335 L 13.37595367431641 -3.09469747543335 C 13.70448684692383 -3.09469747543335 13.92849731445312 -3.348564147949219 13.92849731445312 -3.811508655548096 C 13.92849731445312 -4.274453163146973 13.70448684692383 -4.513397693634033 13.37595367431641 -4.513397693634033 L 10.20999813079834 -4.513397693634033 C 10.56840896606445 -5.14061975479126 10.92681980133057 -5.782764434814453 11.18068695068359 -6.45478630065918 L 13.4954195022583 -6.45478630065918 C 13.85383129119873 -6.45478630065918 14.06289768218994 -6.723597526550293 14.06289768218994 -7.156675338745117 C 14.06289768218994 -7.604686260223389 13.85383129119873 -7.873486518859863 13.4954195022583 -7.873486518859863 L 8.089408874511719 -7.873486518859863 L 8.089408874511719 -9.053253173828125 L 12.46499729156494 -9.053253173828125 C 12.80846405029297 -9.053253173828125 13.01754188537598 -9.322064399719238 13.01754188537598 -9.740208625793457 C 13.01754188537598 -10.17328643798828 12.80846405029297 -10.45703125 12.46499729156494 -10.45703125 L 8.089408874511719 -10.45703125 L 8.089408874511719 -11.24851989746094 C 8.089408874511719 -11.59199714660645 7.790730953216553 -11.80106449127197 7.297919750213623 -11.80106449127197 C 6.790164470672607 -11.80106449127197 6.476564407348633 -11.59199714660645 6.476564407348633 -11.24851989746094 L 6.476564407348633 -10.45703125 L 2.339908838272095 -10.45703125 C 1.981508851051331 -10.45703125 1.772431015968323 -10.17328643798828 1.772431015968323 -9.740208625793457 C 1.772431015968323 -9.322064399719238 1.981508851051331 -9.053253173828125 2.339908838272095 -9.053253173828125 L 6.476564407348633 -9.053253173828125 L 6.476564407348633 -7.873486518859863 L 1.309486627578735 -7.873486518859863 C 0.9510754942893982 -7.873486518859863 0.7419977188110352 -7.604686260223389 0.7419977188110352 -7.156675338745117 C 0.7419977188110352 -6.723597526550293 0.9510754942893982 -6.45478630065918 1.309486627578735 -6.45478630065918 L 3.459942102432251 -6.45478630065918 C 3.773553133010864 -5.812630653381348 4.072219848632812 -5.170486450195312 4.341031074523926 -4.513397693634033 L 1.428953289985657 -4.513397693634033 C 1.100408792495728 -4.513397693634033 0.8913421630859375 -4.274453163146973 0.8913421630859375 -3.811508655548096 C 0.8913421630859375 -3.348564147949219 1.100408792495728 -3.09469747543335 1.428953289985657 -3.09469747543335 L 6.49149751663208 -3.09469747543335 L 6.49149751663208 -1.899997591972351 L 2.130842208862305 -1.899997591972351 C 1.772431015968323 -1.899997591972351 1.578286528587341 -1.616253137588501 1.578286528587341 -1.183175325393677 C 1.578286528587341 -0.7500975728034973 1.772431015968323 -0.4812864363193512 2.130842208862305 -0.4812864363193512 L 6.49149751663208 -0.4812864363193512 L 6.49149751663208 1.475035786628723 C 6.49149751663208 1.848380208015442 6.790164470672607 2.057446956634521 7.297919750213623 2.057446956634521 M 5.102653026580811 -6.45478630065918 L 9.493175506591797 -6.45478630065918 C 9.194498062133789 -5.7976975440979 8.910764694213867 -5.14061975479126 8.552352905273438 -4.513397693634033 L 5.909075260162354 -4.513397693634033 C 5.71494197845459 -5.18541955947876 5.416264533996582 -5.8424973487854 5.102653026580811 -6.45478630065918 M 47.91769790649414 1.967846870422363 C 48.12677383422852 1.967846870422363 48.33584213256836 1.878246903419495 48.47025299072266 1.684102416038513 C 48.91826248168945 1.116624712944031 49.33641052246094 0.2803357839584351 49.57534027099609 -0.4812864363193512 C 49.60520935058594 -0.5559530854225159 49.62015151977539 -0.6455641984939575 49.62015151977539 -0.7202308773994446 C 49.62015151977539 -0.9740975499153137 49.45587539672852 -1.183175325393677 49.15720748901367 -1.287708640098572 C 49.0377311706543 -1.332508683204651 48.93319702148438 -1.347442030906677 48.82865142822266 -1.347442030906677 C 48.57478713989258 -1.347442030906677 48.35077667236328 -1.213042020797729 48.24624252319336 -0.9292975664138794 C 48.03717422485352 -0.3468864262104034 47.63395309448242 0.3251357972621918 47.2606201171875 0.8328802585601807 C 47.15608596801758 0.9672913551330566 47.11128616333008 1.101691365242004 47.11128616333008 1.251024723052979 C 47.11128616333008 1.460102438926697 47.2158203125 1.65423583984375 47.42488479614258 1.803580284118652 C 47.58915328979492 1.908113598823547 47.76836395263672 1.967846870422363 47.91769790649414 1.967846870422363 M 58.69986343383789 1.69903576374054 C 59.61082077026367 1.69903576374054 60.05883026123047 1.325691342353821 60.05883026123047 0.4296691119670868 L 60.05883026123047 -2.64667534828186 C 60.05883026123047 -3.527775287628174 59.61082077026367 -3.901119709014893 58.69986343383789 -3.901119709014893 L 54.29441070556641 -3.901119709014893 C 53.38345336914062 -3.901119709014893 52.95037460327148 -3.527775287628174 52.95037460327148 -2.64667534828186 L 52.95037460327148 0.4296691119670868 C 52.95037460327148 1.325691342353821 53.38345336914062 1.69903576374054 54.29441070556641 1.69903576374054 L 58.69986343383789 1.69903576374054 M 54.39894104003906 -0.5559530854225159 L 58.59532928466797 -0.5559530854225159 L 58.59532928466797 0.1160580143332481 C 58.59532928466797 0.3998024463653564 58.49078750610352 0.4446024596691132 58.2070426940918 0.4446024596691132 L 54.75735473632812 0.4446024596691132 C 54.48854064941406 0.4446024596691132 54.39894104003906 0.3998024463653564 54.39894104003906 0.1160580143332481 L 54.39894104003906 -0.5559530854225159 M 54.7424201965332 -2.676553010940552 L 58.2070426940918 -2.676553010940552 C 58.49078750610352 -2.676553010940552 58.59532928466797 -2.631742000579834 58.59532928466797 -2.348008632659912 L 58.59532928466797 -1.750653147697449 L 54.39894104003906 -1.750653147697449 L 54.39894104003906 -2.348008632659912 C 54.39894104003906 -2.631742000579834 54.48854064941406 -2.676553010940552 54.7424201965332 -2.676553010940552 M 39.06198501586914 1.684102416038513 C 40.45083236694336 1.684102416038513 41.67539596557617 1.579569101333618 43.00449752807617 1.280891299247742 C 43.49731826782227 1.176357984542847 43.70638656616211 0.7880802154541016 43.70638656616211 0.4147357940673828 C 43.70638656616211 -0.04820865392684937 43.40770721435547 -0.4962197542190552 42.89996337890625 -0.4962197542190552 C 42.82529830932617 -0.4962197542190552 42.73568725585938 -0.4812864363193512 42.66102981567383 -0.4663530886173248 C 41.52606582641602 -0.1826086491346359 40.30149841308594 0.0115246782079339 39.06198501586914 0.0115246782079339 C 37.41927719116211 0.0115246782079339 36.83686447143555 -0.3916864395141602 36.83686447143555 -1.063708662986755 C 36.83686447143555 -1.675986409187317 37.26994323730469 -2.348008632659912 38.95745468139648 -3.079753160476685 C 38.98731994628906 -2.631742000579834 38.98731994628906 -2.19866418838501 38.98731994628906 -1.780519723892212 C 38.98011016845703 -1.290191888809204 39.36289596557617 -1.060972213745117 39.76069259643555 -1.060972213745117 C 40.18674850463867 -1.060972213745117 40.63003158569336 -1.323839426040649 40.63003158569336 -1.810386419296265 C 40.63003158569336 -2.377875328063965 40.61509704589844 -2.960286378860474 40.55536270141602 -3.677108764648438 C 41.67539596557617 -4.050453186035156 42.82529830932617 -4.349131107330322 44.07973098754883 -4.677675247192383 C 44.48294067382812 -4.782208442687988 44.66215515136719 -5.125686645507812 44.66215515136719 -5.469152927398682 C 44.66215515136719 -5.902242183685303 44.37841033935547 -6.350253105163574 43.91546249389648 -6.350253105163574 C 43.84078598022461 -6.350253105163574 43.76612091064453 -6.335319995880127 43.69145202636719 -6.320386409759521 C 42.51168823242188 -6.006775379180908 41.39165496826172 -5.663297653198242 40.34629821777344 -5.289953231811523 C 40.0476188659668 -6.335319995880127 39.3307991027832 -6.902797698974609 38.16596603393555 -6.902797698974609 C 37.59848785400391 -6.902797698974609 36.98619842529297 -6.768397331237793 36.34404373168945 -6.424919605255127 L 36.29925155639648 -6.469719886779785 C 36.68753051757812 -6.932664394378662 37.06086349487305 -7.470275402069092 37.40434265136719 -8.022830963134766 C 38.85292053222656 -8.097497940063477 40.30149841308594 -8.246830940246582 41.55593109130859 -8.440975189208984 C 41.92927551269531 -8.50070858001709 42.10847473144531 -8.844186782836914 42.10847473144531 -9.172730445861816 C 42.10847473144531 -9.561008453369141 41.86952972412109 -9.96422004699707 41.45138549804688 -9.96422004699707 C 41.4215202331543 -9.96422004699707 41.3767204284668 -9.96422004699707 41.34685134887695 -9.949286460876465 C 40.39109802246094 -9.814875602722168 39.36066436767578 -9.710342407226562 38.28543090820312 -9.620741844177246 C 38.44970703125 -9.949286460876465 38.58411026000977 -10.27781963348389 38.70358657836914 -10.5914306640625 C 38.73345184326172 -10.68103122711182 38.74838638305664 -10.77064228057861 38.74838638305664 -10.86024188995361 C 38.74838638305664 -11.30825328826904 38.2705078125 -11.62186431884766 37.82248687744141 -11.62186431884766 C 37.49394226074219 -11.62186431884766 37.19527435302734 -11.47251987457275 37.07580947875977 -11.09917545318604 C 36.91152954101562 -10.5914306640625 36.70246505737305 -10.06875324249268 36.44858551025391 -9.531130790710449 C 35.38828659057617 -9.486330986022949 34.35786437988281 -9.471397399902344 33.41703033447266 -9.471397399902344 C 32.96902084350586 -9.471397399902344 32.74502182006836 -9.08311939239502 32.74502182006836 -8.694842338562012 C 32.74502182006836 -8.306575775146484 32.95408630371094 -7.933219909667969 33.40209579467773 -7.91829776763916 C 33.59624099731445 -7.91829776763916 33.8053092956543 -7.91829776763916 34.01438522338867 -7.91829776763916 C 34.52213287353516 -7.91829776763916 35.05974197387695 -7.91829776763916 35.59735488891602 -7.933219909667969 C 34.79094314575195 -6.589186668395996 33.79037475585938 -5.304886341094971 32.75995254516602 -4.393930912017822 C 32.53594207763672 -4.19978666305542 32.44634246826172 -3.975786447525024 32.44634246826172 -3.766708612442017 C 32.44634246826172 -3.318697452545166 32.84955215454102 -2.915486335754395 33.29756546020508 -2.915486335754395 C 33.47676467895508 -2.915486335754395 33.6709098815918 -2.9752197265625 33.8501091003418 -3.139497518539429 C 35.65709686279297 -4.797142028808594 36.94139862060547 -5.558763980865479 37.83742141723633 -5.558763980865479 C 38.41984176635742 -5.558763980865479 38.68865203857422 -5.334753036499023 38.82305145263672 -4.707541942596436 C 36.09017562866211 -3.5427086353302 35.05974197387695 -2.168797492980957 35.05974197387695 -0.914364218711853 C 35.05974197387695 0.6536802053451538 36.26938629150391 1.684102416038513 39.06198501586914 1.684102416038513 M 69.58657836914062 1.564635753631592 C 72.991455078125 1.564635753631592 75.03737640380859 -0.3767530918121338 75.03737640380859 -2.885619878768921 C 75.03737640380859 -5.02114200592041 73.33494567871094 -6.529453277587891 71.12474060058594 -6.529453277587891 C 70.45272064208984 -6.529453277587891 69.79563903808594 -6.439853191375732 69.183349609375 -6.215841770172119 L 69.1385498046875 -6.260642051696777 L 71.87142944335938 -8.874053001403809 C 72.18504333496094 -9.172730445861816 72.31942749023438 -9.501264572143555 72.31942749023438 -9.799942016601562 C 72.31942749023438 -10.33755302429199 71.88636779785156 -10.80050849914551 71.28900909423828 -10.80050849914551 C 71.2591552734375 -10.80050849914551 71.22927856445312 -10.80050849914551 71.19939422607422 -10.80050849914551 C 69.45215606689453 -10.66609764099121 67.74971008300781 -10.5914306640625 66.15180969238281 -10.546630859375 C 65.67391967773438 -10.53169727325439 65.43498992919922 -10.11355304718018 65.43498992919922 -9.695408821105957 C 65.43498992919922 -9.269626617431641 65.68044281005859 -8.84381103515625 66.18541717529297 -8.84381103515625 C 66.19406890869141 -8.84381103515625 66.20273590087891 -8.843935012817383 66.21154022216797 -8.844186782836914 C 67.49583435058594 -8.874053001403809 68.58600616455078 -8.963653564453125 69.75083923339844 -9.06818675994873 C 68.21266174316406 -7.320941925048828 66.12193298339844 -5.513964176177979 64.15068817138672 -4.050453186035156 C 63.9117431640625 -3.87125301361084 63.80720901489258 -3.617375373840332 63.80720901489258 -3.378430843353271 C 63.80720901489258 -2.915486335754395 64.21041107177734 -2.43760871887207 64.68830108642578 -2.43760871887207 C 64.86750030517578 -2.43760871887207 65.0616455078125 -2.497341871261597 65.2408447265625 -2.661619663238525 C 65.67391967773438 -2.990153074264526 66.34593963623047 -3.46803092956543 67.04782104492188 -3.916053056716919 C 68.19772338867188 -4.647797584533691 69.43721771240234 -5.006208419799805 70.81113433837891 -5.006208419799805 C 72.28957366943359 -5.006208419799805 73.29013061523438 -4.080319881439209 73.29013061523438 -2.840819835662842 C 73.29013061523438 -1.616253137588501 72.66291046142578 -0.8247641921043396 71.72209930419922 -0.4364864230155945 C 71.13967895507812 -2.243464231491089 70.01964569091797 -3.034953117370605 68.58600616455078 -3.034953117370605 C 67.16729736328125 -3.034953117370605 66.28620910644531 -2.034397602081299 66.28620910644531 -0.9740975499153137 C 66.28620910644531 0.5192691087722778 67.57051086425781 1.564635753631592 69.58657836914062 1.564635753631592 M 68.58600616455078 -1.646119713783264 C 69.28788757324219 -1.646119713783264 69.87030792236328 -1.063708662986755 70.15404510498047 -0.01834198832511902 C 69.97484588623047 0.0115246782079339 69.69110107421875 0.04139134287834167 69.40735626220703 0.04139134287834167 C 68.40679931640625 0.04139134287834167 67.79451751708984 -0.3916864395141602 67.79451751708984 -0.9591642022132874 C 67.79451751708984 -1.332508683204651 68.04838562011719 -1.646119713783264 68.58600616455078 -1.646119713783264 M 51.57647705078125 1.519835829734802 C 51.72580718994141 1.519835829734802 51.89007568359375 1.475035786628723 52.02448654174805 1.385435819625854 C 52.24848556518555 1.251024723052979 52.38288497924805 1.041957974433899 52.38288497924805 0.8328802585601807 C 52.38288497924805 0.7283468842506409 52.35301971435547 0.6088802218437195 52.27835464477539 0.4894024431705475 C 51.99460983276367 0.05632467940449715 51.66607666015625 -0.5708864331245422 51.47193145751953 -1.018897533416748 C 51.36739730834961 -1.242908596992493 51.17325210571289 -1.362375378608704 50.93431854248047 -1.362375378608704 C 50.84471893310547 -1.362375378608704 50.75510787963867 -1.347442030906677 50.65057373046875 -1.317575335502625 C 50.36684036254883 -1.227975368499756 50.17269897460938 -1.033830881118774 50.17269897460938 -0.7799642086029053 C 50.17269897460938 -0.7202308773994446 50.18762969970703 -0.6455641984939575 50.21749877929688 -0.5708864331245422 C 50.41164398193359 0.02645801194012165 50.75510787963867 0.7432802319526672 51.06872940063477 1.251024723052979 C 51.20313262939453 1.430235743522644 51.38233184814453 1.519835829734802 51.57647705078125 1.519835829734802 M 23.0828857421875 1.415302515029907 C 24.74053192138672 1.415302515029907 26.06963157653809 1.280891299247742 27.32406425476074 0.982224702835083 C 27.78700828552246 0.877680242061615 27.99608612060547 0.4894024431705475 27.99608612060547 0.101124681532383 C 27.99608612060547 -0.3618197739124298 27.71234130859375 -0.809830904006958 27.21953010559082 -0.809830904006958 C 27.14486503601074 -0.809830904006958 27.07018661499023 -0.7948975563049316 26.98058700561523 -0.7799642086029053 C 25.90536499023438 -0.4962197542190552 24.51651954650879 -0.3319531083106995 23.03807640075684 -0.3319531083106995 C 21.57457542419434 -0.3319531083106995 21.03696441650391 -0.7351642251014709 20.93242073059082 -1.646119713783264 C 20.85775375366211 -2.228530883789062 20.8278865814209 -3.139497518539429 20.8278865814209 -4.334197521209717 C 20.8278865814209 -4.827008724212646 20.8278865814209 -5.349686622619629 20.84281921386719 -5.887297630310059 C 22.20178604125977 -5.96197509765625 23.56076431274414 -6.051575183868408 24.93466377258301 -6.141175270080566 C 24.91973114013672 -5.618497371673584 24.88986396789551 -5.110753059387207 24.8599967956543 -4.647797584533691 C 24.8151969909668 -4.065386295318604 24.56131935119629 -3.886186361312866 24.14317512512207 -3.886186361312866 C 23.88930892944336 -3.886186361312866 23.60556411743164 -3.916053056716919 23.29195404052734 -4.005652904510498 C 23.20235252380371 -4.020586490631104 23.12768745422363 -4.035519599914551 23.05300903320312 -4.035519599914551 C 22.57513046264648 -4.035519599914551 22.29139709472656 -3.602442026138306 22.29139709472656 -3.169364213943481 C 22.29139709472656 -2.810953140258789 22.48553085327148 -2.452542066574097 22.93354225158691 -2.318141937255859 C 23.35168647766113 -2.19866418838501 23.78476524353027 -2.153864145278931 24.21784210205078 -2.153864145278931 C 25.66641998291016 -2.153864145278931 26.45790863037109 -2.721353054046631 26.5773754119873 -4.468597412109375 C 26.6221866607666 -5.036075115203857 26.63710975646973 -5.618497371673584 26.6669864654541 -6.230775356292725 C 27.50327491760254 -6.260642051696777 28.3096981048584 -6.290519714355469 29.07131958007812 -6.320386409759521 C 29.56413078308105 -6.335319995880127 29.80306434631348 -6.738531112670898 29.80306434631348 -7.156675338745117 C 29.80306434631348 -7.559886455535889 29.54919815063477 -7.978030681610107 29.07131958007812 -7.978030681610107 C 29.05637550354004 -7.978030681610107 29.04144287109375 -7.978030681610107 29.02650833129883 -7.978030681610107 C 28.29475402832031 -7.948163986206055 27.50327491760254 -7.91829776763916 26.69685363769531 -7.888419628143311 C 26.69685363769531 -8.769519805908203 26.69685363769531 -9.650609016418457 26.69685363769531 -10.44209766387939 C 26.69685363769531 -10.93490886688232 26.24883079528809 -11.18878650665283 25.81575393676758 -11.18878650665283 C 25.38267517089844 -11.18878650665283 24.94959831237793 -10.94984245300293 24.94959831237793 -10.45703125 C 24.94959831237793 -9.889541625976562 24.94959831237793 -9.292197227478027 24.94959831237793 -8.694842338562012 C 24.94959831237793 -8.396175384521484 24.94959831237793 -8.097497940063477 24.94959831237793 -7.798819541931152 C 23.59063148498535 -7.7241530418396 22.23165321350098 -7.649486541748047 20.85775375366211 -7.559886455535889 C 20.88761901855469 -8.351364135742188 20.9174861907959 -9.157797813415527 20.94735336303711 -9.96422004699707 C 20.95500373840332 -10.45347309112549 20.48131370544434 -10.70010280609131 20.01507377624512 -10.70010280609131 C 19.57051658630371 -10.70010280609131 19.13273048400879 -10.47587776184082 19.12544250488281 -10.02395343780518 C 19.0955753326416 -9.142864227294922 19.08064270019531 -8.276697158813477 19.06570816040039 -7.425475120544434 C 18.30408668518066 -7.380675315856934 17.55739784240723 -7.306008815765381 16.82564163208008 -7.246275424957275 C 16.34776496887207 -7.216408729553223 16.12376403808594 -6.828130722045898 16.12376403808594 -6.424919605255127 C 16.12376403808594 -6.006775379180908 16.39256477355957 -5.573697566986084 16.90030860900879 -5.573697566986084 C 16.93017578125 -5.573697566986084 16.94511985778809 -5.573697566986084 16.96004295349121 -5.573697566986084 C 17.63206481933594 -5.633430957794189 18.33395385742188 -5.693164348602295 19.03584289550781 -5.7528977394104 C 19.03584289550781 -5.245152950286865 19.03584289550781 -4.737408638000488 19.03584289550781 -4.24458646774292 C 19.03584289550781 -3.020019769668579 19.06570816040039 -2.094130992889404 19.1403751373291 -1.37730860710144 C 19.34945297241211 0.5790135860443115 20.43960952758789 1.415302515029907 23.0828857421875 1.415302515029907 M 50.63564300537109 -1.720786452293396 C 51.51673126220703 -1.720786452293396 51.89007568359375 -2.034397602081299 51.89007568359375 -3.005086421966553 L 51.89007568359375 -10.03888607025146 C 51.89007568359375 -11.02450847625732 51.51673126220703 -11.33811950683594 50.63564300537109 -11.33811950683594 L 48.9033317565918 -11.33811950683594 C 48.00730895996094 -11.33811950683594 47.63395309448242 -11.02450847625732 47.63395309448242 -10.03888607025146 L 47.63395309448242 -3.005086421966553 C 47.63395309448242 -2.034397602081299 48.00730895996094 -1.720786452293396 48.9033317565918 -1.720786452293396 L 50.63564300537109 -1.720786452293396 M 48.97799682617188 -4.647797584533691 L 50.56097412109375 -4.647797584533691 L 50.56097412109375 -3.423230886459351 C 50.56097412109375 -3.169364213943481 50.44149780273438 -3.109630823135376 50.21749877929688 -3.109630823135376 L 49.33641052246094 -3.109630823135376 C 49.11239624023438 -3.109630823135376 48.97799682617188 -3.169364213943481 48.97799682617188 -3.423230886459351 L 48.97799682617188 -4.647797584533691 M 48.97799682617188 -7.306008815765381 L 50.56097412109375 -7.306008815765381 L 50.56097412109375 -5.902242183685303 L 48.97799682617188 -5.902242183685303 L 48.97799682617188 -7.306008815765381 M 49.33641052246094 -9.949286460876465 L 50.21749877929688 -9.949286460876465 C 50.44149780273438 -9.949286460876465 50.56097412109375 -9.889541625976562 50.56097412109375 -9.605808258056641 L 50.56097412109375 -8.54550838470459 L 48.97799682617188 -8.54550838470459 L 48.97799682617188 -9.605808258056641 C 48.97799682617188 -9.889541625976562 49.11239624023438 -9.949286460876465 49.33641052246094 -9.949286460876465 M 59.22254180908203 -4.588064193725586 C 60.20817565917969 -4.588064193725586 60.59644317626953 -4.931541919708252 60.59644317626953 -5.8424973487854 L 60.59644317626953 -8.814319610595703 C 60.59644317626953 -9.740208625793457 60.20817565917969 -10.09861946105957 59.22254180908203 -10.09861946105957 L 58.72973251342773 -10.09861946105957 C 58.93880844116211 -10.41223049163818 59.11800765991211 -10.69596385955811 59.26735305786133 -11.00957489013672 C 59.29721832275391 -11.05437564849854 59.31215286254883 -11.11411952972412 59.31215286254883 -11.18878650665283 C 59.31215286254883 -11.39785289764404 59.14788818359375 -11.65173053741455 58.75959777832031 -11.75626468658447 C 58.62519836425781 -11.78613090515137 58.50572967529297 -11.80106449127197 58.40119934082031 -11.80106449127197 C 58.13238525390625 -11.80106449127197 57.9382438659668 -11.68159770965576 57.81877517700195 -11.41278648376465 C 57.65451049804688 -11.02450847625732 57.41556549072266 -10.546630859375 57.11688613891602 -10.09861946105957 L 55.81765365600586 -10.09861946105957 C 55.59365463256836 -10.63623046875 55.3696403503418 -11.11411952972412 55.1456298828125 -11.50238609313965 C 55.02616500854492 -11.71146392822266 54.86189651489258 -11.81599712371826 54.6080207824707 -11.81599712371826 C 54.48854064941406 -11.81599712371826 54.33921813964844 -11.78613090515137 54.17494201660156 -11.74133110046387 C 53.86133193969727 -11.63679790496826 53.68213272094727 -11.42772006988525 53.68213272094727 -11.20372009277344 C 53.68213272094727 -11.11411952972412 53.71199798583984 -11.02450847625732 53.77173233032227 -10.93490886688232 C 53.92107391357422 -10.68103122711182 54.10027694702148 -10.39729785919189 54.26454162597656 -10.09861946105957 L 53.86133193969727 -10.09861946105957 C 52.89064025878906 -10.09861946105957 52.50235366821289 -9.740208625793457 52.50235366821289 -8.814319610595703 L 52.50235366821289 -5.8424973487854 C 52.50235366821289 -4.931541919708252 52.89064025878906 -4.588064193725586 53.86133193969727 -4.588064193725586 L 59.22254180908203 -4.588064193725586 M 57.20649719238281 -6.783330917358398 L 59.17774200439453 -6.783330917358398 L 59.17774200439453 -6.051575183868408 C 59.17774200439453 -5.812630653381348 59.08814239501953 -5.737964153289795 58.83427429199219 -5.737964153289795 L 57.20649719238281 -5.737964153289795 L 57.20649719238281 -6.783330917358398 M 53.90613174438477 -6.783330917358398 L 55.81765365600586 -6.783330917358398 L 55.81765365600586 -5.737964153289795 L 54.24960708618164 -5.737964153289795 C 53.99573135375977 -5.737964153289795 53.90613174438477 -5.812630653381348 53.90613174438477 -6.051575183868408 L 53.90613174438477 -6.783330917358398 M 57.20649719238281 -8.90392017364502 L 58.83427429199219 -8.90392017364502 C 59.08814239501953 -8.90392017364502 59.17774200439453 -8.859119415283203 59.17774200439453 -8.59030818939209 L 59.17774200439453 -7.888419628143311 L 57.20649719238281 -7.888419628143311 L 57.20649719238281 -8.90392017364502 M 54.24960708618164 -8.90392017364502 L 55.81765365600586 -8.90392017364502 L 55.81765365600586 -7.888419628143311 L 53.90613174438477 -7.888419628143311 L 53.90613174438477 -8.59030818939209 C 53.90613174438477 -8.859119415283203 53.99573135375977 -8.90392017364502 54.24960708618164 -8.90392017364502 M 7.297919750213623 3.757447004318237 C 6.681819915771484 3.757447004318237 6.14905309677124 3.599613666534424 5.714430809020996 3.288335800170898 C 5.1278977394104 2.868246793746948 4.791497707366943 2.207324743270874 4.791497707366943 1.475035786628723 L 4.791497707366943 1.218713521957397 L 2.130842208862305 1.218713521957397 C 0.8256199359893799 1.218713521957397 -0.1217134147882462 0.208569124341011 -0.1217134147882462 -1.183175325393677 C -0.1217134147882462 -1.445267796516418 -0.08849015831947327 -1.696607112884521 -0.02367547899484634 -1.931949853897095 C -0.4897099137306213 -2.33672022819519 -0.8086578845977783 -2.966951608657837 -0.8086578845977783 -3.811508655548096 C -0.8086578845977783 -4.484636783599854 -0.6036001443862915 -5.02068042755127 -0.2819808125495911 -5.414109706878662 C -0.7034801840782166 -5.845130920410156 -0.9580023288726807 -6.456898212432861 -0.9580023288726807 -7.156675338745117 C -0.9580023288726807 -7.762553215026855 -0.7802578806877136 -8.30838680267334 -0.4439800679683685 -8.735186576843262 C -0.2850089371204376 -8.936953544616699 -0.09457378089427948 -9.106131553649902 0.1184208765625954 -9.238465309143066 C 0.08820158988237381 -9.399373054504395 0.07243102788925171 -9.567036628723145 0.07243102788925171 -9.740208625793457 C 0.07243102788925171 -11.11802005767822 1.047231078147888 -12.15703105926514 2.339908838272095 -12.15703105926514 L 4.974068641662598 -12.15703105926514 C 5.316593647003174 -12.90844917297363 6.100906848907471 -13.50106430053711 7.297919750213623 -13.50106430053711 C 8.480751037597656 -13.50106430053711 9.255775451660156 -12.90844917297363 9.594244003295898 -12.15703105926514 L 12.46499729156494 -12.15703105926514 C 13.74915313720703 -12.15703105926514 14.71754169464111 -11.11802005767822 14.71754169464111 -9.740208625793457 C 14.71754169464111 -9.569944381713867 14.70239448547363 -9.40499210357666 14.67335224151611 -9.246560096740723 C 14.89164543151855 -9.113056182861328 15.08667278289795 -8.941071510314941 15.24889755249023 -8.735175132751465 C 15.31213283538818 -8.654915809631348 15.36977195739746 -8.570426940917969 15.42166709899902 -8.482141494750977 C 15.77879905700684 -8.743684768676758 16.21434020996094 -8.907525062561035 16.69898223876953 -8.941595077514648 C 16.91461181640625 -8.959236145019531 17.13156318664551 -8.978185653686523 17.34981918334961 -8.997241973876953 C 17.36521339416504 -8.99858570098877 17.38057899475098 -8.999926567077637 17.39600372314453 -9.001272201538086 C 17.40423011779785 -9.354697227478027 17.4139232635498 -9.711426734924316 17.42605018615723 -10.07061195373535 C 17.45800590515137 -11.39997959136963 18.56747817993164 -12.40009784698486 20.01507568359375 -12.40009784698486 C 20.77287483215332 -12.40009784698486 21.48761940002441 -12.11555290222168 21.97604179382324 -11.61943054199219 C 22.41874122619629 -11.169753074646 22.65707588195801 -10.57247543334961 22.64714241027832 -9.937620162963867 L 22.64686393737793 -9.919452667236328 L 22.64618682861328 -9.901297569274902 C 22.63964080810547 -9.724545478820801 22.63309860229492 -9.547874450683594 22.62655830383301 -9.371430397033691 C 22.83469772338867 -9.38350772857666 23.04248809814453 -9.395388603210449 23.24959754943848 -9.407102584838867 L 23.24959754943848 -10.45703125 C 23.24959754943848 -11.21990871429443 23.59701919555664 -11.91700839996338 24.2027759552002 -12.36958599090576 C 24.65089797973633 -12.70439720153809 25.22373008728027 -12.88878631591797 25.81575393676758 -12.88878631591797 C 27.26309776306152 -12.88878631591797 28.39685249328613 -11.8140754699707 28.39685249328613 -10.44209766387939 L 28.39685249328613 -9.654182434082031 C 28.58580589294434 -9.661618232727051 28.7734260559082 -9.669118881225586 28.95717620849609 -9.676619529724121 L 28.99183082580566 -9.678030967712402 L 29.02650833129883 -9.678030967712402 L 29.07131958007812 -9.678030967712402 C 29.89294242858887 -9.678030967712402 30.60736465454102 -9.275851249694824 31.04542541503906 -8.646940231323242 C 31.0451545715332 -8.662882804870605 31.04501914978027 -8.678814888000488 31.04501914978027 -8.694842338562012 C 31.04501914978027 -10.08356380462646 32.08692932128906 -11.17139720916748 33.41703033447266 -11.17139720916748 C 34.08050537109375 -11.17139720916748 34.70664978027344 -11.17879867553711 35.30868911743164 -11.1938591003418 C 35.36265182495117 -11.3381404876709 35.41238021850586 -11.4804744720459 35.45771026611328 -11.6204662322998 C 35.78994750976562 -12.65413188934326 36.71781158447266 -13.32186412811279 37.82248687744141 -13.32186412811279 C 39.02136993408203 -13.32186412811279 40.03516387939453 -12.56484985351562 40.34844207763672 -11.53389549255371 C 40.57769775390625 -11.56137084960938 40.79724502563477 -11.58954524993896 41.00784301757812 -11.61849975585938 C 41.21441268920898 -11.66421890258789 41.37872314453125 -11.66421985626221 41.45138549804688 -11.66421985626221 C 42.77312088012695 -11.66421985626221 43.80847549438477 -10.56983089447021 43.80847549438477 -9.172730445861816 C 43.80847549438477 -8.756363868713379 43.71014404296875 -8.363490104675293 43.53445434570312 -8.01956844329834 C 43.63998031616211 -8.036026000976562 43.76936721801758 -8.050252914428711 43.91546249389648 -8.050252914428711 C 44.65545272827148 -8.050252914428711 45.34450912475586 -7.708897590637207 45.80593109130859 -7.113719940185547 C 45.85120391845703 -7.055324554443359 45.89388656616211 -6.995030879974365 45.93395233154297 -6.9329833984375 L 45.93395233154297 -10.03888607025146 C 45.93395233154297 -11.47818660736084 46.54187393188477 -12.07504177093506 46.74164199829102 -12.27117538452148 C 47.52279663085938 -13.03811931610107 48.56187438964844 -13.03811931610107 48.9033317565918 -13.03811931610107 L 50.63564300537109 -13.03811931610107 C 50.92854690551758 -13.03811931610107 51.73693084716797 -13.03816699981689 52.45369720458984 -12.54428291320801 C 52.74076843261719 -12.90582942962646 53.14670562744141 -13.19054985046387 53.63737487792969 -13.35409736633301 L 53.6821403503418 -13.36901950836182 L 53.72767639160156 -13.38144207000732 C 54.06430816650391 -13.47324180603027 54.34404373168945 -13.51599788665771 54.6080207824707 -13.51599788665771 C 55.38963317871094 -13.51599788665771 56.07023239135742 -13.15933704376221 56.50591278076172 -12.52965450286865 C 56.93852615356445 -13.14548301696777 57.61884307861328 -13.50106430053711 58.40119934082031 -13.50106430053711 C 58.63227462768555 -13.50106430053711 58.87014389038086 -13.47316455841064 59.12837600708008 -13.41578674316406 L 59.16515350341797 -13.40760898590088 L 59.20153045654297 -13.39781951904297 C 60.21921157836914 -13.12384605407715 60.92311096191406 -12.32334327697754 61.00430297851562 -11.3733491897583 C 61.16040420532227 -11.28020668029785 61.30487823486328 -11.17154121398926 61.43829727172852 -11.04716396331787 C 62.00772094726562 -10.51634216308594 62.29644393920898 -9.765109062194824 62.29644393920898 -8.814319610595703 L 62.29644393920898 -5.8424973487854 C 62.29644393920898 -4.981623649597168 62.0555305480957 -4.286145687103271 61.5797004699707 -3.771386623382568 C 61.68890380859375 -3.459116458892822 61.75883102416992 -3.087218999862671 61.75883102416992 -2.64667534828186 L 61.75883102416992 0.4296691119670868 C 61.75883102416992 1.599646925926208 61.27248764038086 2.287358045578003 60.86449813842773 2.658257961273193 C 60.32381057739258 3.149802446365356 59.59552001953125 3.399035692214966 58.69986343383789 3.399035692214966 L 54.29441070556641 3.399035692214966 C 53.63831329345703 3.399035692214966 53.07279205322266 3.264756917953491 52.60580062866211 2.998978853225708 C 52.28356170654297 3.142822980880737 51.92919921875 3.219835758209229 51.57647705078125 3.219835758209229 C 50.96230316162109 3.219835758209229 50.38583374023438 2.978183269500732 49.94904708862305 2.546696901321411 C 49.90956878662109 2.600969076156616 49.86977386474609 2.65390419960022 49.82976913452148 2.705322980880737 C 49.38606262207031 3.309252023696899 48.67626190185547 3.667846918106079 47.91769790649414 3.667846918106079 C 47.4403076171875 3.667846918106079 46.95429611206055 3.519135713577271 46.51219940185547 3.237802505493164 L 46.47378540039062 3.213357925415039 L 46.43672943115234 3.186891317367554 C 45.78504180908203 2.721369028091431 45.41128540039062 2.015769004821777 45.41128540039062 1.251024723052979 C 45.41128540039062 0.7314140200614929 45.58025741577148 0.2349288165569305 45.90024566650391 -0.186775729060173 C 46.11763381958008 -0.4838906228542328 46.31984329223633 -0.8118621706962585 46.46836090087891 -1.102879881858826 C 45.93391418457031 -1.84105384349823 45.93395233154297 -2.696821928024292 45.93395233154297 -3.005086421966553 L 45.93395233154297 -4.036334991455078 C 45.60712051391602 -3.550443172454834 45.11074829101562 -3.188768863677979 44.50635147094727 -3.03207540512085 L 44.40014266967773 -3.004264116287231 C 43.68298721313477 -2.81647777557373 42.99031066894531 -2.635101556777954 42.32312774658203 -2.443324327468872 C 42.32568359375 -2.33446216583252 42.32734680175781 -2.231159448623657 42.32839965820312 -2.133492946624756 C 42.54254150390625 -2.176279306411743 42.72418975830078 -2.196219682693481 42.89996337890625 -2.196219682693481 C 44.3054313659668 -2.196219682693481 45.40638732910156 -1.049353122711182 45.40638732910156 0.4147357940673828 C 45.40638732910156 1.663472056388855 44.58829116821289 2.677318811416626 43.36919784545898 2.941328287124634 C 42.00381469726562 3.247530221939087 40.67500686645508 3.384102344512939 39.06198501586914 3.384102344512939 C 37.36301803588867 3.384102344512939 36.01058578491211 3.04224681854248 35.04225158691406 2.368024587631226 C 33.9572639465332 1.612580180168152 33.3597412109375 0.4468691349029541 33.3597412109375 -0.914364218711853 C 33.3597412109375 -1.01250147819519 33.36324691772461 -1.113307237625122 33.37089920043945 -1.216579794883728 C 33.34646987915039 -1.215850710868835 33.32206344604492 -1.215486407279968 33.29756546020508 -1.215486407279968 C 31.91466522216797 -1.215486407279968 30.74634170532227 -2.383808612823486 30.74634170532227 -3.766708612442017 C 30.74634170532227 -4.493190288543701 31.06318283081055 -5.169349670410156 31.63872528076172 -5.671778678894043 C 31.89438438415527 -5.89815616607666 32.15322875976562 -6.156812191009521 32.41095352172852 -6.442314147949219 C 32.04602432250977 -6.614564418792725 31.7351016998291 -6.878643035888672 31.50258827209473 -7.208292961120605 C 31.50290489196777 -7.191126823425293 31.50306510925293 -7.173933982849121 31.50306510925293 -7.156675338745117 C 31.50306510925293 -5.755148410797119 30.48383140563965 -4.666676998138428 29.13094329833984 -4.621423721313477 C 28.86092185974121 -4.610837936401367 28.58150672912598 -4.60009765625 28.29040908813477 -4.589118003845215 C 28.28504943847656 -4.507369041442871 28.27922821044922 -4.425662994384766 28.2728328704834 -4.344106674194336 C 28.22116279602051 -3.600777626037598 28.06865501403809 -2.968651056289673 27.81110000610352 -2.437832355499268 C 28.9051628112793 -2.165114402770996 29.69608688354492 -1.147336363792419 29.69608688354492 0.101124681532383 C 29.69608688354492 1.345976114273071 28.89871406555176 2.363802909851074 27.71056365966797 2.637725591659546 C 26.33919715881348 2.963529348373413 24.8684196472168 3.115302562713623 23.0828857421875 3.115302562713623 C 21.36769676208496 3.115302562713623 20.13532066345215 2.8027024269104 19.20451927185059 2.131524562835693 C 18.19882011413574 1.406358003616333 17.6085205078125 0.2865913510322571 17.44999694824219 -1.196653127670288 C 17.3778018951416 -1.889691352844238 17.3422966003418 -2.732130527496338 17.33664894104004 -3.900372982025146 C 17.26079177856445 -3.893694400787354 17.18542289733887 -3.887029409408569 17.11055374145508 -3.880375385284424 L 17.03544235229492 -3.873697519302368 L 16.96004295349121 -3.873697519302368 L 16.90030860900879 -3.873697519302368 C 16.418701171875 -3.873697519302368 15.97336769104004 -4.008423805236816 15.59695911407471 -4.244170188903809 C 15.6171178817749 -4.109912395477295 15.62849807739258 -3.965785264968872 15.62849807739258 -3.811508655548096 C 15.62849807739258 -3.198508739471436 15.44674205780029 -2.647319793701172 15.10289764404297 -2.217508554458618 C 15.02282619476318 -2.117420196533203 14.93503952026367 -2.025518655776978 14.84063053131104 -1.942310094833374 C 14.90734100341797 -1.703984260559082 14.94154167175293 -1.449127912521362 14.94154167175293 -1.183175325393677 C 14.94154167175293 0.208569124341011 13.99420833587646 1.218713521957397 12.68899726867676 1.218713521957397 L 9.804342269897461 1.218713521957397 L 9.804342269897461 1.475035786628723 C 9.804342269897461 2.609246969223022 8.943408966064453 3.757447004318237 7.297919750213623 3.757447004318237 Z M 69.58657836914062 3.264635801315308 C 68.22290802001953 3.264635801315308 67.02880859375 2.894624710083008 66.13335418701172 2.194591283798218 C 65.19783782958984 1.463250637054443 64.65643310546875 0.4282895028591156 64.59259033203125 -0.7394980788230896 C 63.2357177734375 -0.7930850982666016 62.10720825195312 -1.979717016220093 62.10720825195312 -3.378430843353271 C 62.10720825195312 -4.182008743286133 62.48026275634766 -4.922653198242188 63.13071823120117 -5.410475254058838 L 63.13401031494141 -5.412941932678223 L 63.13731002807617 -5.415397644042969 C 63.94556427001953 -6.015470027923584 64.72234344482422 -6.634583950042725 65.44824981689453 -7.255373001098633 C 64.98889923095703 -7.399030685424805 64.58228302001953 -7.677145004272461 64.28012847900391 -8.064720153808594 C 63.92858505249023 -8.515630722045898 63.7349853515625 -9.094753265380859 63.7349853515625 -9.695408821105957 C 63.7349853515625 -11.10726451873779 64.75116729736328 -12.20369720458984 66.09870910644531 -12.2457971572876 L 66.1014404296875 -12.24588680267334 L 66.10416412353516 -12.24596405029297 C 67.92636108398438 -12.29705333709717 69.55037689208984 -12.37867546081543 71.06900787353516 -12.49549770355225 L 71.13410949707031 -12.50050830841064 L 71.19939422607422 -12.50050830841064 L 71.28900909423828 -12.50050830841064 C 72.79456329345703 -12.50050830841064 74.01943206787109 -11.28904151916504 74.01943206787109 -9.799942016601562 C 74.01943206787109 -9.100921630859375 73.74933624267578 -8.421926498413086 73.25312805175781 -7.860148429870605 C 75.33612823486328 -7.093863010406494 76.73737335205078 -5.207303047180176 76.73737335205078 -2.885619878768921 C 76.73737335205078 -1.1344975233078 76.01089477539062 0.4492802321910858 74.69174957275391 1.573969125747681 C 73.39448547363281 2.680013656616211 71.62914276123047 3.264635801315308 69.58657836914062 3.264635801315308 Z" stroke="none" fill="#ffce72"/>
    </g>
  </g>
</svg>
