<svg xmlns="http://www.w3.org/2000/svg" width="51.549" height="40.149" viewBox="0 0 51.549 40.149">
  <g id="グループ_36" data-name="グループ 36" transform="translate(-494.285 -214.154)">
    <path id="パス_51" data-name="パス 51" d="M520.027,229.284l-14.764-14.389,14.764,14.414Z" fill="none"/>
    <path id="パス_52" data-name="パス 52" d="M520.037,229.319l.01.01V253.8h.025V229.329l-.023-.022Z" fill="none"/>
    <path id="パス_53" data-name="パス 53" d="M520.048,229.329l-.011-.01-.01.01v-.02L507.091,214.9l-11.748,12.614a2.166,2.166,0,0,0,.093,2.769L517.581,253.8h2.467Z" fill="#dff1f4" stroke="#5d8cb1" stroke-miterlimit="10" stroke-width="1"/>
    <path id="パス_54" data-name="パス 54" d="M522.578,253.8l22.107-23.525a2.168,2.168,0,0,0,.093-2.769L533.008,214.9l-12.935,14.434V253.8Z" fill="#dff1f4" stroke="#5d8cb1" stroke-miterlimit="10" stroke-width="1"/>
    <path id="パス_55" data-name="パス 55" d="M520.073,229.329v-.045l-.023.022Z" fill="#fff" stroke="#1a1311" stroke-linejoin="round" stroke-width="1"/>
    <path id="パス_56" data-name="パス 56" d="M520.03,223.308l.02-.01-12.958-8.4,12.938,14.389Z" fill="#5f92bb" stroke="#5d8cb1" stroke-linejoin="round" stroke-width="1"/>
    <path id="パス_57" data-name="パス 57" d="M520.07,229.284l12.938-14.389-12.958,8.4.02.01Z" fill="#5f92bb" stroke="#5d8cb1" stroke-linejoin="round" stroke-width="1"/>
    <path id="パス_58" data-name="パス 58" d="M520.027,229.284v.025l.01.01.013-.012Z" fill="#fff" stroke="#1a1311" stroke-linejoin="round" stroke-width="1"/>
    <path id="パス_59" data-name="パス 59" d="M520.027,229.329l.01-.01-.01-.01Z" fill="#fff" stroke="#1a1311" stroke-linejoin="round" stroke-width="1"/>
    <path id="パス_60" data-name="パス 60" d="M520.027,229.284l.023.022.023-.022v-5.976l-.023-.01-.023.01Z" fill="#fff" stroke="#5d8cb1" stroke-linejoin="round" stroke-width="1"/>
  </g>
</svg>
