<svg xmlns="http://www.w3.org/2000/svg" width="42.673" height="43.563" viewBox="0 0 42.673 43.563">
  <g id="グループ_42" data-name="グループ 42" transform="translate(-702.623 -204.722)">
    <path id="パス_1" data-name="パス 1" d="M740.642,210.223a2.633,2.633,0,0,0,2.068-2.743h0a2.571,2.571,0,0,0-2.309-2.758H707.519a2.572,2.572,0,0,0-2.309,2.758h0a2.713,2.713,0,0,0,1.778,2.684c.165,4.336-4.365,9.863-4.365,18.467,0,14.077,9.553,19.654,21.337,19.654S745.3,242.708,745.3,228.63C745.3,219.229,740.489,213.468,740.642,210.223Zm-33.209.013c.029,0,.057,0,.086,0C707.489,210.239,707.461,210.238,707.433,210.236Z" fill="#5f92bb"/>
    <path id="パス_62" data-name="パス 62" d="M742.357,228.154c0-8.106-4.145-13.074-4.013-15.871l-29.018-.051c.143,3.738-3.763,8.5-3.763,15.923,0,.045.005.086.005.132h36.784C742.352,228.241,742.357,228.2,742.357,228.154Zm-32.647-15.86.074,0Z" fill="#fff"/>
    <path id="パス_63" data-name="パス 63" d="M723.96,245.1c10.122,0,18.33-4.777,18.392-16.814H705.568C705.63,240.324,713.837,245.1,723.96,245.1Z" fill="#dff1f4"/>
  </g>
</svg>
