<svg xmlns="http://www.w3.org/2000/svg" width="51.016" height="53.34" viewBox="0 0 51.016 53.34">
  <g id="グループ_56" data-name="グループ 56" transform="matrix(0.966, -0.259, 0.259, 0.966, -511.201, -308.306)">
    <ellipse id="楕円形_11" data-name="楕円形 11" cx="6.222" cy="4.994" rx="6.222" ry="4.994" transform="translate(420.381 440.427) rotate(-11.266)" fill="#5d8cb1" stroke="#5d8cb1" stroke-miterlimit="10" stroke-width="0.539"/>
    <circle id="楕円形_12" data-name="楕円形 12" cx="20.558" cy="20.558" r="20.558" transform="translate(410.865 443.037)" fill="#5d8cb1" stroke="#5d8cb1" stroke-miterlimit="10" stroke-width="0.539"/>
    <path id="パス_74" data-name="パス 74" d="M427.892,439.408s-.119-2.769,1.657-3.258" transform="translate(1.165)" fill="none" stroke="#5d8cb1" stroke-linecap="round" stroke-miterlimit="10" stroke-width="2"/>
    <path id="パス_75" data-name="パス 75" d="M422.8,440.382s-1.108-2.542-2.919-2.2" transform="translate(0.617 0.137)" fill="none" stroke="#5d8cb1" stroke-linecap="round" stroke-miterlimit="10" stroke-width="2"/>
    <path id="パス_76" data-name="パス 76" d="M444.922,472.651a16.839,16.839,0,1,0-21.534,5.192l8.031-13.908Z" transform="translate(0.238 0.679)" fill="#fff"/>
    <path id="パス_77" data-name="パス 77" d="M444.343,471.506l-13.5-8.716L422.809,476.7a16.835,16.835,0,0,0,21.534-5.192Z" transform="translate(0.818 1.824)" fill="#5d8cb1" stroke="#5d8cb1" stroke-miterlimit="10" stroke-width="0.539"/>
    <path id="パス_78" data-name="パス 78" d="M432.7,454.5l-2.957,4.921-4.921-2.957" transform="translate(0.955 1.256)" fill="#5d8cb1" stroke="#5d8cb1" stroke-linecap="round" stroke-miterlimit="10" stroke-width="6"/>
  </g>
</svg>
