<svg xmlns="http://www.w3.org/2000/svg" width="42.799" height="33.738" viewBox="0 0 42.799 33.738">
  <g id="グループ_46" data-name="グループ 46" transform="translate(-627.535 -189.549)">
    <path id="パス_69" data-name="パス 69" d="M645.306,205.387a3.942,3.942,0,0,1-2.287-.76c-2.139.618-4.763,1.373-6.966,2.012l-5.64,11.571a.24.24,0,0,0,.048.269.348.348,0,0,0,.285.127l5.339-.29a.349.349,0,0,1,.317.169l2.683,4.626a.359.359,0,0,0,.264.174.248.248,0,0,0,.248-.111l6.224-12.3,2.764-5.451h-.006l.007-.014Z" fill="#9dbf60"/>
    <path id="パス_70" data-name="パス 70" d="M662.032,206.6h-.006c-2.133-.629-4.642-1.368-6.7-1.976a3.105,3.105,0,0,1-2.187.819l-2.47-.018-1.135-.014,0,.006h-.015l8.983,17.76a.247.247,0,0,0,.248.111.359.359,0,0,0,.264-.174l2.683-4.626a.348.348,0,0,1,.317-.169l5.339.29a.367.367,0,0,0,.291-.127.249.249,0,0,0,.042-.269Z" fill="#9dbf60"/>
    <path id="パス_71" data-name="パス 71" d="M637.11,204.685c1.494-.432,3.072-.89,4.511-1.3l.266-.075v0l.013,0a2.834,2.834,0,0,1-.286-1.23l.023-3.09.031-2.7-.012.022v-.034l.021-3.11a1.712,1.712,0,0,1,.042-.4c-4.209-1.215-9.7-2.8-10.546-3.042a4.194,4.194,0,0,0-1.152-.169,2.323,2.323,0,0,0-2.487,2.577v11.862a2.321,2.321,0,0,0,2.487,2.572,4.384,4.384,0,0,0,1.152-.164C631.728,206.238,634.252,205.509,637.11,204.685Z" fill="#9dbf60"/>
    <path id="パス_72" data-name="パス 72" d="M670.047,205.412c.017-.037.035-.072.051-.111a3.414,3.414,0,0,0,.236-1.313V192.126a3.417,3.417,0,0,0-.234-1.309c-.02-.05-.042-.1-.064-.141a2.114,2.114,0,0,0-.162-.28c-.032-.047-.066-.091-.1-.133a1.876,1.876,0,0,0-.207-.211c-.03-.025-.059-.05-.09-.073a1.766,1.766,0,0,0-.313-.192l0,0a2.43,2.43,0,0,0-1.071-.236,4.042,4.042,0,0,0-1.114.169c-.877.248-6.57,1.928-10.737,3.158.011.127.016.254.016.391l-.021,2.6v.005l-.042,6.3a5,5,0,0,1-.111,1.02c1.521.448,3.248.956,4.885,1.436h0c2.873.85,5.44,1.6,6.005,1.764a4.226,4.226,0,0,0,1.114.164,2.243,2.243,0,0,0,1.4-.437l.065-.053a1.775,1.775,0,0,0,.231-.235c.029-.035.057-.071.084-.11A2.15,2.15,0,0,0,670.047,205.412Z" fill="#9dbf60"/>
    <path id="パス_73" data-name="パス 73" d="M644.577,203.349a1.557,1.557,0,0,0,.745.2l1.383.011,1.828.016,1.04,0,2.276.016,1.3.011a.824.824,0,0,0,.655-.259,1.376,1.376,0,0,0,.264-.745,4.06,4.06,0,0,0,.021-.443l.028-3.863.02-1.861-.006,0v-.015l.021-2.936v-.238a1.827,1.827,0,0,0-.056-.542l0-.021h0l0-.013c-.09-.259-.317-.354-.856-.36l-.7,0-6.829-.047H645.4a2.155,2.155,0,0,0-1.373.343.73.73,0,0,0-.259.57v.18l-.021,2.947-.042,5.783a1.2,1.2,0,0,0,.2.633A1.805,1.805,0,0,0,644.577,203.349Z" fill="#9dbf60"/>
  </g>
</svg>
