<svg xmlns="http://www.w3.org/2000/svg" width="79" height="79" viewBox="0 0 79 79">
  <g id="グループ_200" data-name="グループ 200" transform="translate(-256 -272)">
    <circle id="楕円形_3" data-name="楕円形 3" cx="39.5" cy="39.5" r="39.5" transform="translate(256 272)" fill="#74cdd9"/>
    <path id="パス_168" data-name="パス 168" d="M355.817,438.2c-8.769-18.879-28.791-4.038-23.73,9.741,4.84,13.173,16.335,11.742,24.012,21.653h0c7.674-9.5,18.9-9.137,23.671-22.129C384.874,433.574,364.466,418.588,355.817,438.2Z" transform="translate(-60.28 -133.791)" fill="#fff"/>
    <g id="パス_181" data-name="パス 181" transform="translate(296.5 342)" fill="#fff">
      <path d="M -29.23200225830078 2.040000200271606 C -29.65109062194824 2.040000200271606 -30.00484085083008 1.938830256462097 -30.2834415435791 1.739290237426758 C -30.63587188720703 1.486870288848877 -30.8380012512207 1.087650299072266 -30.8380012512207 0.644000232219696 L -30.8380012512207 -0.3399997651576996 L -34.07600021362305 -0.3399997651576996 C -34.88146209716797 -0.3399997651576996 -35.44400024414062 -0.9601097702980042 -35.44400024414062 -1.847999811172485 C -35.44400024414062 -2.276078701019287 -35.32518005371094 -2.608716249465942 -35.13960266113281 -2.85233473777771 C -35.64716339111328 -3.012131929397583 -36.0880012512207 -3.48322319984436 -36.0880012512207 -4.311999797821045 C -36.0880012512207 -4.720799922943115 -35.9801025390625 -5.064029693603516 -35.76729965209961 -5.332159519195557 C -35.51762008666992 -5.646749973297119 -35.15066146850586 -5.819999694824219 -34.73400115966797 -5.819999694824219 L -33.30775833129883 -5.819999694824219 C -33.32630920410156 -5.859572887420654 -33.34516906738281 -5.899611949920654 -33.36428070068359 -5.939999580383301 L -34.84600067138672 -5.939999580383301 C -35.65970230102539 -5.939999580383301 -36.22800064086914 -6.560109615325928 -36.22800064086914 -7.447999954223633 C -36.22800064086914 -8.413171768188477 -35.61772918701172 -8.893247604370117 -35.00037002563477 -8.961479187011719 C -35.16680145263672 -9.208162307739258 -35.26200103759766 -9.519638061523438 -35.26200103759766 -9.869999885559082 C -35.26200103759766 -10.75191020965576 -34.68078994750977 -11.39200019836426 -33.88000106811523 -11.39200019836426 L -30.84747123718262 -11.39200019836426 C -30.79494285583496 -12.01800537109375 -30.28438568115234 -12.65199947357178 -29.23200225830078 -12.65199947357178 C -28.19780921936035 -12.65199947357178 -27.69607353210449 -12.01800537109375 -27.64445304870605 -11.39200019836426 L -24.38800048828125 -11.39200019836426 C -23.5953311920166 -11.39200019836426 -23.02000045776367 -10.75191020965576 -23.02000045776367 -9.869999885559082 C -23.02000045776367 -9.520166397094727 -23.11394500732422 -9.209115982055664 -23.27823066711426 -8.96260929107666 C -22.65729904174805 -8.898698806762695 -22.04000091552734 -8.418661117553711 -22.04000091552734 -7.447999954223633 C -22.04000091552734 -6.560109615325928 -22.60830116271973 -5.939999580383301 -23.42200088500977 -5.939999580383301 L -25.0275707244873 -5.939999580383301 C -25.04599952697754 -5.899888038635254 -25.06471061706543 -5.859866619110107 -25.08365249633789 -5.819999694824219 L -23.53400230407715 -5.819999694824219 C -22.87513160705566 -5.819999694824219 -22.16600227355957 -5.348099708557129 -22.16600227355957 -4.311999797821045 C -22.16600227355957 -3.907999753952026 -22.28003120422363 -3.55191969871521 -22.49576187133789 -3.282259702682495 C -22.66029167175293 -3.076594114303589 -22.87297248840332 -2.930803537368774 -23.11538505554199 -2.85362696647644 C -22.92923927307129 -2.609891653060913 -22.81000137329102 -2.276844501495361 -22.81000137329102 -1.847999811172485 C -22.81000137329102 -0.9601097702980042 -23.3725414276123 -0.3399997651576996 -24.17800140380859 -0.3399997651576996 L -27.62600135803223 -0.3399997651576996 L -27.62600135803223 0.644000232219696 C -27.62600135803223 1.087650299072266 -27.8281307220459 1.486870288848877 -28.18056106567383 1.739290237426758 C -28.45916175842285 1.938830256462097 -28.81291198730469 2.040000200271606 -29.23200225830078 2.040000200271606 Z M -29.92195129394531 -5.819999694824219 L -28.56378173828125 -5.819999694824219 C -28.54355621337891 -5.859796047210693 -28.52347564697266 -5.899852275848389 -28.50359535217285 -5.939999580383301 L -29.96792602539062 -5.939999580383301 C -29.95219039916992 -5.899729251861572 -29.93686103820801 -5.859718799591064 -29.92195129394531 -5.819999694824219 Z M 8.9739990234375 1.984000205993652 C 8.21229362487793 1.984000205993652 7.625348091125488 1.522117733955383 7.43810510635376 0.7772063016891479 C 7.390307903289795 0.6051483750343323 7.367998600006104 0.4467124342918396 7.367998600006104 0.280000239610672 C 7.367998600006104 -0.475869745016098 7.861598491668701 -1.06598973274231 8.596258163452148 -1.188429713249207 C 9.94243335723877 -1.42054009437561 10.61905193328857 -1.822970986366272 10.96791362762451 -2.294120788574219 C 10.52055740356445 -2.321350336074829 9.97654914855957 -2.431163311004639 9.549898147583008 -2.823799848556519 C 9.127388954162598 -3.212629795074463 8.921998977661133 -3.777279853820801 8.921998977661133 -4.549999713897705 L 8.921998977661133 -9.967999458312988 C 8.921998977661133 -10.74590969085693 9.126588821411133 -11.31381988525391 9.547458648681641 -11.70419979095459 C 10.07103824615479 -12.18983936309814 10.77330875396729 -12.24599933624268 11.2559986114502 -12.24599933624268 L 17.77999877929688 -12.24599933624268 C 19.32872772216797 -12.24599933624268 20.11399841308594 -11.47956943511963 20.11399841308594 -9.967999458312988 L 20.11399841308594 -4.549999713897705 C 20.11399841308594 -4.050370693206787 20.02718353271484 -3.632742404937744 19.85426902770996 -3.297718048095703 C 19.93473052978516 -3.308480262756348 20.01811790466309 -3.313999652862549 20.1039981842041 -3.313999652862549 L 20.24399948120117 -3.313999652862549 L 20.28142929077148 -3.313999652862549 L 20.3187084197998 -3.310709714889526 C 21.19789886474609 -3.233129739761353 21.76599884033203 -2.658989667892456 21.76599884033203 -1.847999811172485 L 21.76599884033203 -1.777999758720398 L 21.76599884033203 -1.748379707336426 L 21.76393890380859 -1.718839764595032 C 21.71899223327637 -1.074572682380676 21.54509735107422 -0.3358858823776245 21.30947685241699 0.2130799144506454 C 21.0455265045166 0.8731318116188049 20.54834365844727 1.303945064544678 19.83150863647461 1.493700265884399 L 19.81502914428711 1.49806022644043 L 19.79838943481445 1.501760244369507 C 19.2283878326416 1.628430247306824 18.53152847290039 1.690000295639038 17.66799926757812 1.690000295639038 C 17.48331451416016 1.690000295639038 17.27474021911621 1.68999969959259 17.04503059387207 1.675518751144409 C 16.18102645874023 1.65972363948822 15.50178050994873 1.581498026847839 14.99788856506348 1.257370233535767 C 14.29525852203369 0.8053802251815796 14.21399879455566 0.07561024278402328 14.21399879455566 -0.4339997470378876 L 14.21399879455566 -1.609699130058289 C 14.07342052459717 -1.221745133399963 13.89228343963623 -0.8644806146621704 13.66887855529785 -0.5329697728157043 C 12.57643890380859 1.088070273399353 10.79886817932129 1.639040231704712 9.372308731079102 1.937940239906311 L 9.368508338928223 1.938730239868164 L 9.36469841003418 1.93949019908905 C 9.212878227233887 1.969860196113586 9.088728904724121 1.984000205993652 8.9739990234375 1.984000205993652 Z M 17.53509140014648 -1.367999792098999 L 17.84999847412109 -1.367999792098999 C 18.1441707611084 -1.367999792098999 18.34584808349609 -1.379653930664062 18.4925422668457 -1.394830703735352 C 18.52715492248535 -1.523118138313293 18.57154846191406 -1.735179305076599 18.60083770751953 -2.008549690246582 C 18.61562728881836 -2.146594285964966 18.6457405090332 -2.276190519332886 18.68973159790039 -2.39600658416748 C 18.42349052429199 -2.322761058807373 18.1201057434082 -2.285999774932861 17.77999877929688 -2.285999774932861 L 17.4119987487793 -2.285999774932861 L 17.4119987487793 -1.370803356170654 C 17.44920539855957 -1.369724035263062 17.49010276794434 -1.368775606155396 17.53509140014648 -1.367999792098999 Z M 0.5459985733032227 1.690000295639038 C -0.8918713927268982 1.690000295639038 -2.016761302947998 1.414390206336975 -2.797451496124268 0.8708202242851257 C -3.620801448822021 0.2975402474403381 -4.05600118637085 -0.5554697513580322 -4.05600118637085 -1.595999717712402 C -4.05600118637085 -2.063267946243286 -3.948208808898926 -2.611704349517822 -3.616026401519775 -3.19157886505127 C -3.665125608444214 -3.14725399017334 -3.714866638183594 -3.101988077163696 -3.765401363372803 -3.055629730224609 C -4.074961185455322 -2.771869659423828 -4.452691555023193 -2.621999740600586 -4.858001232147217 -2.621999740600586 C -5.751311302185059 -2.621999740600586 -6.506001472473145 -3.376689672470093 -6.506001472473145 -4.269999980926514 C -6.506001472473145 -4.733768463134766 -6.298698902130127 -5.16945743560791 -5.922116756439209 -5.497363567352295 C -5.37876033782959 -5.978180885314941 -4.823348999023438 -6.600453853607178 -4.297592163085938 -7.311999797821045 L -4.760001182556152 -7.311999797821045 L -4.774161338806152 -7.311999797821045 L -4.788321495056152 -7.312469959259033 C -5.621371269226074 -7.340239524841309 -6.226001262664795 -8.003689765930176 -6.226001262664795 -8.889999389648438 C -6.226001262664795 -9.789609909057617 -5.589741230010986 -10.46799945831299 -4.746001243591309 -10.46799945831299 C -3.935721158981323 -10.46799945831299 -3.183859586715698 -10.4796667098999 -2.463336706161499 -10.50353145599365 C -2.332762718200684 -10.8111047744751 -2.219383478164673 -11.1130895614624 -2.124731302261353 -11.40565013885498 C -1.912201404571533 -12.06980991363525 -1.333771347999573 -12.48400020599365 -0.6160014271736145 -12.48400020599365 C 0.3313086032867432 -12.48400020599365 1.101998567581177 -11.78238964080811 1.101998567581177 -10.92000007629395 C 1.101998567581177 -10.85647106170654 1.098206996917725 -10.79292583465576 1.090664386749268 -10.7296085357666 C 1.606137752532959 -10.78302574157715 2.07511830329895 -10.83913326263428 2.505693674087524 -10.89879512786865 C 2.63176417350769 -10.93000221252441 2.736402034759521 -10.92999935150146 2.785998582839966 -10.92999935150146 C 3.60805869102478 -10.92999935150146 4.251998424530029 -10.23071002960205 4.251998424530029 -9.33799934387207 C 4.251998424530029 -8.556129455566406 3.744678497314453 -7.928899765014648 3.018288612365723 -7.812679767608643 C 2.499430894851685 -7.732375144958496 1.958077192306519 -7.661478996276855 1.404439687728882 -7.601000785827637 C 1.729901432991028 -7.389133453369141 2.001802682876587 -7.106036186218262 2.213773488998413 -6.756464958190918 C 2.987151622772217 -7.013009071350098 3.809347867965698 -7.257322788238525 4.667628765106201 -7.485469818115234 L 4.693278789520264 -7.492289543151855 L 4.719298362731934 -7.497489929199219 C 4.81320858001709 -7.516279697418213 4.941828727722168 -7.541999816894531 5.095998764038086 -7.541999816894531 C 5.965158462524414 -7.541999816894531 6.645998477935791 -6.80580997467041 6.645998477935791 -5.865999698638916 C 6.645998477935791 -5.113449573516846 6.170718669891357 -4.484599590301514 5.463318824768066 -4.301199913024902 L 5.361978530883789 -4.274659633636475 C 4.483528137207031 -4.044647216796875 3.643654346466064 -3.824726581573486 2.838657140731812 -3.578572511672974 C 2.862086296081543 -3.118581771850586 2.865998506546021 -2.73846173286438 2.865998506546021 -2.435999870300293 C 2.865998506546021 -2.20230507850647 2.813332319259644 -1.982268691062927 2.718169212341309 -1.785298824310303 C 3.044449329376221 -1.844505667686462 3.376651763916016 -1.916323065757751 3.713838577270508 -2.000619649887085 L 3.733468532562256 -2.005529642105103 L 3.75329852104187 -2.009489774703979 C 3.905118703842163 -2.039859771728516 4.029268741607666 -2.053999662399292 4.143998622894287 -2.053999662399292 C 5.044558525085449 -2.053999662399292 5.749998569488525 -1.305509805679321 5.749998569488525 -0.3499997556209564 C 5.749998569488525 0.4621424376964569 5.217385768890381 1.121408343315125 4.424044609069824 1.292288661003113 C 3.198565721511841 1.56733500957489 2.002337694168091 1.690000295639038 0.5459985733032227 1.690000295639038 Z M -0.6893324851989746 -1.753908276557922 C -0.6331101059913635 -1.7221599817276 -0.4866995811462402 -1.658663868904114 -0.1663796454668045 -1.617275238037109 C -0.2703964412212372 -1.792759895324707 -0.337078869342804 -1.990866541862488 -0.36248379945755 -2.201367378234863 C -0.5657410621643066 -2.037256956100464 -0.6796711683273315 -1.884342551231384 -0.6893324851989746 -1.753908276557922 Z M 29.1619987487793 1.57800018787384 C 28.05120849609375 1.57800018787384 27.09015846252441 1.285680294036865 26.38273811340332 0.7326602339744568 C 25.63164901733398 0.1454802453517914 25.21799850463867 -0.7014097571372986 25.21799850463867 -1.651999711990356 C 25.21799850463867 -1.891878366470337 25.25139236450195 -2.130126237869263 25.31533813476562 -2.360130786895752 C 25.08610343933105 -2.237544536590576 24.83388137817383 -2.173999786376953 24.56999778747559 -2.173999786376953 C 23.67717933654785 -2.173999786376953 22.89399909973145 -2.983349800109863 22.89399909973145 -3.905999660491943 C 22.89399909973145 -4.422989845275879 23.13528823852539 -4.900469779968262 23.55599784851074 -5.215999603271484 C 24.87072944641113 -6.192093849182129 26.09954452514648 -7.222080707550049 27.15101623535156 -8.223950386047363 C 26.78768157958984 -8.204523086547852 26.4118766784668 -8.189396858215332 26.01775932312012 -8.180230140686035 C 26.00583839416504 -8.179880142211914 25.98965835571289 -8.179649353027344 25.97350883483887 -8.179649353027344 C 25.08785820007324 -8.179649353027344 24.41999816894531 -8.888289451599121 24.41999816894531 -9.828000068664551 C 24.41999816894531 -10.74063968658447 25.06289863586426 -11.44893932342529 25.91544914245605 -11.47558975219727 C 27.63858795166016 -11.52390003204346 29.17290878295898 -11.60103988647461 30.60880851745605 -11.71150016784668 L 30.64135932922363 -11.71399974822998 L 30.67399787902832 -11.71399974822998 L 30.75799942016602 -11.71399974822998 C 31.75934791564941 -11.71399974822998 32.57399749755859 -10.91191005706787 32.57399749755859 -9.925999641418457 C 32.57399749755859 -9.389289855957031 32.33115768432617 -8.86244010925293 31.89020919799805 -8.442480087280273 L 31.10007286071777 -7.686886310577393 C 33.42499923706055 -7.467911720275879 35.12199783325195 -5.717190265655518 35.12199783325195 -3.443999767303467 C 35.12199783325195 -0.4871197640895844 32.67115783691406 1.57800018787384 29.1619987487793 1.57800018787384 Z M 28.81543731689453 -4.392711162567139 C 29.97614479064941 -4.226018905639648 30.90579986572266 -3.558165073394775 31.52358627319336 -2.454381465911865 C 31.69804382324219 -2.704626321792603 31.78399848937988 -3.01917552947998 31.78399848937988 -3.401999711990356 C 31.78399848937988 -4.107789993286133 31.1916389465332 -4.581999778747559 30.30999946594238 -4.581999778747559 C 29.78747367858887 -4.581999778747559 29.29121398925781 -4.519460201263428 28.81543731689453 -4.392711162567139 Z M -14.43400096893311 1.438000202178955 C -15.87809181213379 1.438000202178955 -16.89519119262695 1.189580202102661 -17.63489151000977 0.6562002301216125 C -18.40981101989746 0.09744024276733398 -18.84823226928711 -0.7516797780990601 -18.97519111633301 -1.939669728279114 C -19.04636192321777 -2.622949838638306 -19.07800102233887 -3.479119777679443 -19.07800102233887 -4.717999935150146 L -19.07800102233887 -5.206340312957764 C -19.42326736450195 -5.176676750183105 -19.76658630371094 -5.146865367889404 -20.09874153137207 -5.117339611053467 L -20.13630104064941 -5.113999843597412 L -20.17400169372559 -5.113999843597412 L -20.23000144958496 -5.113999843597412 C -21.11486053466797 -5.113999843597412 -21.8080005645752 -5.837889671325684 -21.8080005645752 -6.761999607086182 C -21.8080005645752 -7.643582344055176 -21.2008113861084 -8.322332382202148 -20.36283874511719 -8.379696846008301 C -20.15779304504395 -8.39646053314209 -19.95148468017578 -8.41447639465332 -19.74392127990723 -8.432600021362305 C -19.51137924194336 -8.452898025512695 -19.2750244140625 -8.473529815673828 -19.03582572937012 -8.492806434631348 C -19.02534866333008 -9.039596557617188 -19.01272964477539 -9.596587181091309 -18.99372482299805 -10.15849208831787 C -18.97530555725098 -11.00585460662842 -18.2686824798584 -11.61987018585205 -17.30999183654785 -11.61987018585205 C -16.79753112792969 -11.61987018585205 -16.32065200805664 -11.4340295791626 -16.00163078308105 -11.10999011993408 C -15.72751140594482 -10.83154964447021 -15.57994174957275 -10.46105003356934 -15.58610153198242 -10.0667200088501 L -15.5862512588501 -10.05762958526611 L -15.58658123016357 -10.04854011535645 C -15.60285377502441 -9.609238624572754 -15.61912631988525 -9.16989803314209 -15.63539695739746 -8.733344078063965 C -14.93038654327393 -8.776237487792969 -14.22740364074707 -8.816024780273438 -13.53400135040283 -8.854450225830078 L -13.53400135040283 -8.889999389648438 L -13.53400135040283 -10.54199981689453 C -13.53400135040283 -11.41765975952148 -12.81950187683105 -12.07800006866455 -11.87200164794922 -12.07800006866455 C -10.9165210723877 -12.07800006866455 -10.19600105285645 -11.41164016723633 -10.19600105285645 -10.52799987792969 L -10.19600105285645 -9.016395568847656 C -9.7652587890625 -9.03272819519043 -9.320569038391113 -9.04998779296875 -8.896671295166016 -9.067289352416992 L -8.879341125488281 -9.067999839782715 L -8.862001419067383 -9.067999839782715 L -8.820001602172852 -9.067999839782715 C -7.958691596984863 -9.067999839782715 -7.284001350402832 -8.356410026550293 -7.284001350402832 -7.447999954223633 C -7.284001350402832 -6.529624462127686 -7.916749000549316 -5.843429088592529 -8.789368629455566 -5.814544677734375 C -9.245246887207031 -5.796674251556396 -9.730841636657715 -5.77829122543335 -10.25900745391846 -5.758922576904297 C -10.27221393585205 -5.456165313720703 -10.28690338134766 -5.162886142730713 -10.31027412414551 -4.86577320098877 C -10.38115501403809 -3.839221477508545 -10.67976474761963 -3.098501205444336 -11.22306156158447 -2.601549863815308 C -11.50301647186279 -2.345474243164062 -11.84085559844971 -2.161589860916138 -12.24309062957764 -2.047786712646484 C -11.79383087158203 -2.110514402389526 -11.37386226654053 -2.192387580871582 -10.99688148498535 -2.291869640350342 L -10.95870113372803 -2.301939725875854 L -10.9197416305542 -2.308429718017578 L -10.88721179962158 -2.313949823379517 C -10.79840183258057 -2.329119682312012 -10.68786144256592 -2.347999811172485 -10.55600166320801 -2.347999811172485 C -9.671141624450684 -2.347999811172485 -8.978001594543457 -1.599509716033936 -8.978001594543457 -0.6439997553825378 C -8.978001594543457 0.168991431593895 -9.494514465332031 0.8326267600059509 -10.26401424407959 1.009578227996826 C -11.49279117584229 1.301857948303223 -12.81796455383301 1.438000202178955 -14.43400096893311 1.438000202178955 Z M -15.6317834854126 -2.619993209838867 C -15.62416172027588 -2.536634922027588 -15.61586570739746 -2.460013151168823 -15.60690116882324 -2.390089750289917 L -15.60618114471436 -2.384499788284302 L -15.60554122924805 -2.378909826278687 C -15.57612133026123 -2.12248969078064 -15.51206111907959 -2.080879688262939 -15.47765159606934 -2.058519840240479 C -15.38653182983398 -1.999319791793823 -15.13524150848389 -1.899999737739563 -14.47600173950195 -1.899999737739563 C -14.21699047088623 -1.899999737739563 -13.95996570587158 -1.905648469924927 -13.70690155029297 -1.916730761528015 C -14.10100650787354 -1.937670826911926 -14.46358585357666 -1.996436357498169 -14.80751132965088 -2.094699859619141 L -14.81289100646973 -2.096239805221558 L -14.81825160980225 -2.09784984588623 C -15.14859580993652 -2.196951150894165 -15.42627811431885 -2.379685640335083 -15.6317834854126 -2.619993209838867 Z M -15.69664192199707 -5.454403400421143 C -15.69800090789795 -5.23366641998291 -15.69800186157227 -5.016130924224854 -15.69800186157227 -4.801999568939209 C -15.69800186157227 -4.781247138977051 -15.69799137115479 -4.760571479797363 -15.69797134399414 -4.740052700042725 C -15.41405868530273 -5.127138614654541 -14.96987915039062 -5.371999740600586 -14.46200180053711 -5.371999740600586 C -14.33014106750488 -5.371999740600586 -14.21960163116455 -5.353119850158691 -14.13079166412354 -5.337949752807617 L -14.09826183319092 -5.332429885864258 L -14.05078125 -5.324519634246826 L -14.00449180603027 -5.311299800872803 C -13.87337684631348 -5.273836135864258 -13.74328231811523 -5.249887943267822 -13.61059093475342 -5.238944530487061 C -13.60352325439453 -5.350147724151611 -13.59637069702148 -5.466293334960938 -13.58945846557617 -5.586116790771484 C -14.28674030303955 -5.540896892547607 -14.99331092834473 -5.495903015136719 -15.69664192199707 -5.454403400421143 Z" stroke="none"/>
      <path d="M -29.23200225830078 1.190000295639038 C -28.75600051879883 1.190000295639038 -28.47600173950195 0.994000256061554 -28.47600173950195 0.644000232219696 L -28.47600173950195 -1.18999969959259 L -24.17800140380859 -1.18999969959259 C -23.84200096130371 -1.18999969959259 -23.66000175476074 -1.441999793052673 -23.66000175476074 -1.847999811172485 C -23.66000175476074 -2.253999710083008 -23.84200096130371 -2.519999742507935 -24.17800140380859 -2.519999742507935 L -28.47600173950195 -2.519999742507935 L -28.47600173950195 -3.639999866485596 L -23.53400230407715 -3.639999866485596 C -23.22600173950195 -3.639999866485596 -23.01600074768066 -3.877999782562256 -23.01600074768066 -4.311999797821045 C -23.01600074768066 -4.745999813079834 -23.22600173950195 -4.96999979019165 -23.53400230407715 -4.96999979019165 L -26.50200080871582 -4.96999979019165 C -26.16600227355957 -5.557999610900879 -25.83000183105469 -6.159999847412109 -25.59200096130371 -6.789999961853027 L -23.42200088500977 -6.789999961853027 C -23.08600234985352 -6.789999961853027 -22.89000129699707 -7.041999816894531 -22.89000129699707 -7.447999954223633 C -22.89000129699707 -7.86799955368042 -23.08600234985352 -8.119999885559082 -23.42200088500977 -8.119999885559082 L -28.4900016784668 -8.119999885559082 L -28.4900016784668 -9.22599983215332 L -24.38800048828125 -9.22599983215332 C -24.06600189208984 -9.22599983215332 -23.8700008392334 -9.477999687194824 -23.8700008392334 -9.869999885559082 C -23.8700008392334 -10.27600002288818 -24.06600189208984 -10.54199981689453 -24.38800048828125 -10.54199981689453 L -28.4900016784668 -10.54199981689453 L -28.4900016784668 -11.2839994430542 C -28.4900016784668 -11.60599994659424 -28.77000045776367 -11.80200004577637 -29.23200225830078 -11.80200004577637 C -29.7080020904541 -11.80200004577637 -30.00200080871582 -11.60599994659424 -30.00200080871582 -11.2839994430542 L -30.00200080871582 -10.54199981689453 L -33.88000106811523 -10.54199981689453 C -34.21599960327148 -10.54199981689453 -34.41200256347656 -10.27600002288818 -34.41200256347656 -9.869999885559082 C -34.41200256347656 -9.477999687194824 -34.21599960327148 -9.22599983215332 -33.88000106811523 -9.22599983215332 L -30.00200080871582 -9.22599983215332 L -30.00200080871582 -8.119999885559082 L -34.84600067138672 -8.119999885559082 C -35.18200302124023 -8.119999885559082 -35.37800216674805 -7.86799955368042 -35.37800216674805 -7.447999954223633 C -35.37800216674805 -7.041999816894531 -35.18200302124023 -6.789999961853027 -34.84600067138672 -6.789999961853027 L -32.83000183105469 -6.789999961853027 C -32.53600311279297 -6.187999725341797 -32.25600051879883 -5.585999965667725 -32.00400161743164 -4.96999979019165 L -34.73400115966797 -4.96999979019165 C -35.04199981689453 -4.96999979019165 -35.23800277709961 -4.745999813079834 -35.23800277709961 -4.311999797821045 C -35.23800277709961 -3.877999782562256 -35.04199981689453 -3.639999866485596 -34.73400115966797 -3.639999866485596 L -29.98800086975098 -3.639999866485596 L -29.98800086975098 -2.519999742507935 L -34.07600021362305 -2.519999742507935 C -34.41200256347656 -2.519999742507935 -34.59400177001953 -2.253999710083008 -34.59400177001953 -1.847999811172485 C -34.59400177001953 -1.441999793052673 -34.41200256347656 -1.18999969959259 -34.07600021362305 -1.18999969959259 L -29.98800086975098 -1.18999969959259 L -29.98800086975098 0.644000232219696 C -29.98800086975098 0.994000256061554 -29.7080020904541 1.190000295639038 -29.23200225830078 1.190000295639038 M -31.29000091552734 -6.789999961853027 L -27.17400169372559 -6.789999961853027 C -27.45400047302246 -6.173999786376953 -27.72000122070312 -5.557999610900879 -28.05600166320801 -4.96999979019165 L -30.53400230407715 -4.96999979019165 C -30.71600151062012 -5.599999904632568 -30.99600219726562 -6.215999603271484 -31.29000091552734 -6.789999961853027 M 8.9739990234375 1.134000301361084 C 9.043998718261719 1.134000301361084 9.127998352050781 1.120000243186951 9.197999000549316 1.106000185012817 C 10.66799831390381 0.7980002164840698 12.09599876403809 0.280000239610672 12.96399879455566 -1.007999777793884 C 13.39799880981445 -1.651999711990356 13.60799884796143 -2.37999963760376 13.69199848175049 -3.13599967956543 L 15.06399822235107 -3.13599967956543 L 15.06399822235107 -0.4339997470378876 C 15.06399822235107 0.5180002450942993 15.44199848175049 0.7980002164840698 17.07999801635742 0.8260002732276917 C 17.28999900817871 0.8400002717971802 17.48599815368652 0.8400002717971802 17.66799926757812 0.8400002717971802 C 18.46599769592285 0.8400002717971802 19.10999870300293 0.7840002179145813 19.61399841308594 0.6720002293586731 C 20.08999824523926 0.5460002422332764 20.36999893188477 0.280000239610672 20.52399826049805 -0.1119997575879097 C 20.70599937438965 -0.5319997668266296 20.87399864196777 -1.175999760627747 20.9159984588623 -1.777999758720398 C 20.9159984588623 -1.791999697685242 20.9159984588623 -1.819999814033508 20.9159984588623 -1.847999811172485 C 20.9159984588623 -2.18399977684021 20.71999931335449 -2.42199969291687 20.24399948120117 -2.46399974822998 C 20.18799781799316 -2.46399974822998 20.14599800109863 -2.46399974822998 20.1039981842041 -2.46399974822998 C 19.73999786376953 -2.46399974822998 19.48799896240234 -2.309999704360962 19.44599914550781 -1.917999744415283 C 19.40399932861328 -1.525999784469604 19.31999778747559 -1.119999766349792 19.22199821472168 -0.9099997282028198 C 19.15199851989746 -0.7419997453689575 19.0679988861084 -0.6299997568130493 18.85799789428711 -0.5879997611045837 C 18.61999893188477 -0.5459997653961182 18.32599830627441 -0.5179997682571411 17.84999847412109 -0.5179997682571411 C 17.75199890136719 -0.5179997682571411 17.63999938964844 -0.5179997682571411 17.52799797058105 -0.5179997682571411 C 16.68799781799316 -0.5319997668266296 16.56199836730957 -0.6019997596740723 16.56199836730957 -0.9939997792243958 L 16.56199836730957 -3.13599967956543 L 17.77999877929688 -3.13599967956543 C 18.82999801635742 -3.13599967956543 19.26399803161621 -3.499999761581421 19.26399803161621 -4.549999713897705 L 19.26399803161621 -9.967999458312988 C 19.26399803161621 -11.0319995880127 18.82999801635742 -11.39599990844727 17.77999877929688 -11.39599990844727 L 11.2559986114502 -11.39599990844727 C 10.21999835968018 -11.39599990844727 9.771998405456543 -11.0319995880127 9.771998405456543 -9.967999458312988 L 9.771998405456543 -4.549999713897705 C 9.771998405456543 -3.499999761581421 10.21999835968018 -3.13599967956543 11.2559986114502 -3.13599967956543 L 12.1659984588623 -3.13599967956543 C 11.94199848175049 -1.483999729156494 10.76599884033203 -0.6999997496604919 8.735998153686523 -0.3499997556209564 C 8.399998664855957 -0.2939997613430023 8.217998504638672 -0.04199975728988647 8.217998504638672 0.280000239610672 C 8.217998504638672 0.3780002295970917 8.231998443603516 0.4620002508163452 8.259998321533203 0.5600002408027649 C 8.357998847961426 0.9660002589225769 8.637998580932617 1.134000301361084 8.9739990234375 1.134000301361084 M 11.2559986114502 -5.515999794006348 L 17.79399871826172 -5.515999794006348 L 17.79399871826172 -4.745999813079834 C 17.79399871826172 -4.451999664306641 17.69599914550781 -4.381999969482422 17.42999839782715 -4.381999969482422 L 11.61999893188477 -4.381999969482422 C 11.33999824523926 -4.381999969482422 11.2559986114502 -4.451999664306641 11.2559986114502 -4.745999813079834 L 11.2559986114502 -5.515999794006348 M 11.2559986114502 -7.825999736785889 L 17.79399871826172 -7.825999736785889 L 17.79399871826172 -6.747999668121338 L 11.2559986114502 -6.747999668121338 L 11.2559986114502 -7.825999736785889 M 11.61999893188477 -10.10799980163574 L 17.42999839782715 -10.10799980163574 C 17.69599914550781 -10.10799980163574 17.79399871826172 -10.03800010681152 17.79399871826172 -9.757999420166016 L 17.79399871826172 -9.057999610900879 L 11.2559986114502 -9.057999610900879 L 11.2559986114502 -9.757999420166016 C 11.2559986114502 -10.03800010681152 11.33999824523926 -10.10799980163574 11.61999893188477 -10.10799980163574 M 0.5459985733032227 0.8400002717971802 C 1.84799861907959 0.8400002717971802 2.995998620986938 0.7420002222061157 4.241998672485352 0.4620002508163452 C 4.703998565673828 0.3640002310276031 4.899998664855957 2.441406365960574e-07 4.899998664855957 -0.3499997556209564 C 4.899998664855957 -0.7839997410774231 4.619998455047607 -1.203999757766724 4.143998622894287 -1.203999757766724 C 4.07399845123291 -1.203999757766724 3.989998579025269 -1.18999969959259 3.919998645782471 -1.175999760627747 C 2.855998516082764 -0.9099997282028198 1.707998633384705 -0.727999746799469 0.5459985733032227 -0.727999746799469 C -0.9940013885498047 -0.727999746799469 -1.540001392364502 -1.105999708175659 -1.540001392364502 -1.735999703407288 C -1.540001392364502 -2.309999704360962 -1.13400137424469 -2.93999981880188 0.447998583316803 -3.625999689102173 C 0.4759986102581024 -3.205999851226807 0.4759986102581024 -2.799999713897705 0.4759986102581024 -2.407999753952026 C 0.4692386984825134 -1.948327422142029 0.8280888795852661 -1.733439564704895 1.201013326644897 -1.733439564704895 C 1.600430369377136 -1.733439564704895 2.015998601913452 -1.979872703552246 2.015998601913452 -2.435999870300293 C 2.015998601913452 -2.967999696731567 2.001998662948608 -3.513999700546265 1.945998549461365 -4.185999870300293 C 2.995998620986938 -4.535999774932861 4.07399845123291 -4.815999984741211 5.249998569488525 -5.12399959564209 C 5.627998828887939 -5.221999645233154 5.795998573303223 -5.543999671936035 5.795998573303223 -5.865999698638916 C 5.795998573303223 -6.271999835968018 5.529998779296875 -6.691999912261963 5.095998764038086 -6.691999912261963 C 5.025998592376709 -6.691999912261963 4.955998420715332 -6.677999973297119 4.885998725891113 -6.663999557495117 C 3.779998540878296 -6.369999885559082 2.729998588562012 -6.047999858856201 1.749998569488525 -5.697999954223633 C 1.469998598098755 -6.677999973297119 0.7979986071586609 -7.209999561309814 -0.2940014004707336 -7.209999561309814 C -0.8260014057159424 -7.209999561309814 -1.400001406669617 -7.083999633789062 -2.002001285552979 -6.761999607086182 L -2.044001340866089 -6.803999900817871 C -1.680001378059387 -7.23799991607666 -1.330001354217529 -7.741999626159668 -1.008001446723938 -8.260000228881836 C 0.3499985933303833 -8.329999923706055 1.707998633384705 -8.469999313354492 2.88399863243103 -8.651999473571777 C 3.233998537063599 -8.708000183105469 3.401998519897461 -9.029999732971191 3.401998519897461 -9.33799934387207 C 3.401998519897461 -9.701999664306641 3.177998542785645 -10.07999992370605 2.785998582839966 -10.07999992370605 C 2.757998704910278 -10.07999992370605 2.715998649597168 -10.07999992370605 2.687998533248901 -10.06599998474121 C 1.791998624801636 -9.939999580383301 0.8259986042976379 -9.842000007629395 -0.1820013970136642 -9.757999420166016 C -0.02800140343606472 -10.06599998474121 0.09799859672784805 -10.37399959564209 0.2099985927343369 -10.66800022125244 C 0.2379985898733139 -10.7519998550415 0.2519986033439636 -10.83599948883057 0.2519986033439636 -10.92000007629395 C 0.2519986033439636 -11.34000015258789 -0.196001410484314 -11.63399982452393 -0.6160014271736145 -11.63399982452393 C -0.9240013957023621 -11.63399982452393 -1.204001426696777 -11.49399948120117 -1.316001415252686 -11.14400005340576 C -1.470001459121704 -10.66800022125244 -1.666001439094543 -10.17799949645996 -1.904001355171204 -9.673999786376953 C -2.898001432418823 -9.631999969482422 -3.864001512527466 -9.618000030517578 -4.746001243591309 -9.618000030517578 C -5.166001319885254 -9.618000030517578 -5.376001358032227 -9.253999710083008 -5.376001358032227 -8.889999389648438 C -5.376001358032227 -8.526000022888184 -5.180001258850098 -8.175999641418457 -4.760001182556152 -8.161999702453613 C -4.578001499176025 -8.161999702453613 -4.382001399993896 -8.161999702453613 -4.186001300811768 -8.161999702453613 C -3.710001468658447 -8.161999702453613 -3.20600152015686 -8.161999702453613 -2.702001333236694 -8.175999641418457 C -3.458001375198364 -6.915999889373779 -4.39600133895874 -5.711999893188477 -5.362001419067383 -4.857999801635742 C -5.572001457214355 -4.675999641418457 -5.656001567840576 -4.465999603271484 -5.656001567840576 -4.269999980926514 C -5.656001567840576 -3.849999666213989 -5.278001308441162 -3.471999645233154 -4.858001232147217 -3.471999645233154 C -4.690001487731934 -3.471999645233154 -4.508001327514648 -3.527999639511108 -4.340001583099365 -3.681999683380127 C -2.64600133895874 -5.235999584197998 -1.442001461982727 -5.949999809265137 -0.602001428604126 -5.949999809265137 C -0.05600140243768692 -5.949999809265137 0.1959985941648483 -5.739999771118164 0.3219985961914062 -5.151999950408936 C -2.240001440048218 -4.059999942779541 -3.20600152015686 -2.771999835968018 -3.20600152015686 -1.595999717712402 C -3.20600152015686 -0.1259997487068176 -2.072001457214355 0.8400002717971802 0.5459985733032227 0.8400002717971802 M 29.1619987487793 0.7280002236366272 C 32.35400009155273 0.7280002236366272 34.27199935913086 -1.091999769210815 34.27199935913086 -3.443999767303467 C 34.27199935913086 -5.445999622344971 32.67599868774414 -6.859999656677246 30.6039981842041 -6.859999656677246 C 29.9739990234375 -6.859999656677246 29.35799789428711 -6.775999546051025 28.78399848937988 -6.565999984741211 L 28.74199867248535 -6.607999801635742 L 31.30399894714355 -9.057999610900879 C 31.59799766540527 -9.33799934387207 31.7239990234375 -9.645999908447266 31.7239990234375 -9.925999641418457 C 31.7239990234375 -10.42999935150146 31.3179988861084 -10.86399936676025 30.75799942016602 -10.86399936676025 C 30.72999954223633 -10.86399936676025 30.70199775695801 -10.86399936676025 30.67399787902832 -10.86399936676025 C 29.0359992980957 -10.73799991607666 27.43999862670898 -10.66800022125244 25.9419994354248 -10.62599945068359 C 25.49399948120117 -10.61199951171875 25.26999855041504 -10.21999931335449 25.26999855041504 -9.828000068664551 C 25.26999855041504 -9.428838729858398 25.50010299682617 -9.029647827148438 25.9735050201416 -9.029647827148438 C 25.98161506652832 -9.029647827148438 25.98974418640137 -9.029764175415039 25.99799919128418 -9.029999732971191 C 27.20199775695801 -9.057999610900879 28.2239990234375 -9.142000198364258 29.31599807739258 -9.239999771118164 C 27.87399864196777 -7.601999759674072 25.91399765014648 -5.907999992370605 24.06599807739258 -4.535999774932861 C 23.84199905395508 -4.36799955368042 23.74399948120117 -4.12999963760376 23.74399948120117 -3.905999660491943 C 23.74399948120117 -3.471999645233154 24.12199783325195 -3.023999691009521 24.56999778747559 -3.023999691009521 C 24.73799896240234 -3.023999691009521 24.91999816894531 -3.079999685287476 25.08799934387207 -3.233999729156494 C 25.49399948120117 -3.541999816894531 26.12399864196777 -3.989999771118164 26.78199768066406 -4.409999847412109 C 27.85999870300293 -5.095999717712402 29.02199935913086 -5.431999683380127 30.30999946594238 -5.431999683380127 C 31.69599914550781 -5.431999683380127 32.63399887084961 -4.563999652862549 32.63399887084961 -3.401999711990356 C 32.63399887084961 -2.253999710083008 32.04599761962891 -1.511999726295471 31.16399765014648 -1.14799976348877 C 30.61799812316895 -2.841999769210815 29.5679988861084 -3.583999872207642 28.2239990234375 -3.583999872207642 C 26.89399909973145 -3.583999872207642 26.0679988861084 -2.645999670028687 26.0679988861084 -1.651999711990356 C 26.0679988861084 -0.2519997656345367 27.27199935913086 0.7280002236366272 29.1619987487793 0.7280002236366272 M 28.2239990234375 -2.281999826431274 C 28.88199806213379 -2.281999826431274 29.42799949645996 -1.735999703407288 29.69399833679199 -0.755999743938446 C 29.52599906921387 -0.727999746799469 29.2599983215332 -0.6999997496604919 28.99399948120117 -0.6999997496604919 C 28.05599784851074 -0.6999997496604919 27.48199844360352 -1.105999708175659 27.48199844360352 -1.637999773025513 C 27.48199844360352 -1.987999796867371 27.71999931335449 -2.281999826431274 28.2239990234375 -2.281999826431274 M -14.43400096893311 0.5880002379417419 C -12.88000106811523 0.5880002379417419 -11.63400173187256 0.4620002508163452 -10.45800113677979 0.1820002496242523 C -10.024001121521 0.08400024473667145 -9.828001022338867 -0.2799997627735138 -9.828001022338867 -0.6439997553825378 C -9.828001022338867 -1.077999711036682 -10.09400177001953 -1.497999787330627 -10.55600166320801 -1.497999787330627 C -10.62600135803223 -1.497999787330627 -10.69600105285645 -1.483999729156494 -10.78000164031982 -1.46999979019165 C -11.78800106048584 -1.203999757766724 -13.09000110626221 -1.049999713897705 -14.47600173950195 -1.049999713897705 C -15.84800148010254 -1.049999713897705 -16.35200119018555 -1.42799973487854 -16.45000076293945 -2.281999826431274 C -16.52000045776367 -2.827999830245972 -16.54800224304199 -3.681999683380127 -16.54800224304199 -4.801999568939209 C -16.54800224304199 -5.263999938964844 -16.54800224304199 -5.753999710083008 -16.53400230407715 -6.257999897003174 C -15.26000118255615 -6.327999591827393 -13.98600101470947 -6.411999702453613 -12.69800186157227 -6.495999813079834 C -12.71200180053711 -6.005999565124512 -12.7400016784668 -5.529999732971191 -12.76800155639648 -5.095999717712402 C -12.81000137329102 -4.549999713897705 -13.04800128936768 -4.381999969482422 -13.44000148773193 -4.381999969482422 C -13.67800140380859 -4.381999969482422 -13.94400119781494 -4.409999847412109 -14.23800182342529 -4.49399995803833 C -14.32200145721436 -4.507999897003174 -14.39200115203857 -4.521999835968018 -14.46200180053711 -4.521999835968018 C -14.91000175476074 -4.521999835968018 -15.17600154876709 -4.115999698638916 -15.17600154876709 -3.709999799728394 C -15.17600154876709 -3.373999834060669 -14.9940013885498 -3.037999868392944 -14.57400131225586 -2.911999702453613 C -14.1820011138916 -2.799999713897705 -13.7760009765625 -2.757999658584595 -13.37000179290771 -2.757999658584595 C -12.01200103759766 -2.757999658584595 -11.27000141143799 -3.289999723434448 -11.15800094604492 -4.927999973297119 C -11.11600112915039 -5.459999561309814 -11.10200119018555 -6.005999565124512 -11.07400131225586 -6.579999923706055 C -10.29000186920166 -6.607999801635742 -9.534001350402832 -6.63599967956543 -8.820001602172852 -6.663999557495117 C -8.358001708984375 -6.677999973297119 -8.134001731872559 -7.055999755859375 -8.134001731872559 -7.447999954223633 C -8.134001731872559 -7.825999736785889 -8.372001647949219 -8.217999458312988 -8.820001602172852 -8.217999458312988 C -8.834001541137695 -8.217999458312988 -8.848001480102539 -8.217999458312988 -8.862001419067383 -8.217999458312988 C -9.548001289367676 -8.189999580383301 -10.29000186920166 -8.161999702453613 -11.04600143432617 -8.133999824523926 C -11.04600143432617 -8.960000038146973 -11.04600143432617 -9.785999298095703 -11.04600143432617 -10.52799987792969 C -11.04600143432617 -10.98999977111816 -11.46600151062012 -11.22799968719482 -11.87200164794922 -11.22799968719482 C -12.27800178527832 -11.22799968719482 -12.68400096893311 -11.00399971008301 -12.68400096893311 -10.54199981689453 C -12.68400096893311 -10.01000022888184 -12.68400096893311 -9.449999809265137 -12.68400096893311 -8.889999389648438 C -12.68400096893311 -8.609999656677246 -12.68400096893311 -8.329999923706055 -12.68400096893311 -8.050000190734863 C -13.95800113677979 -7.979999542236328 -15.23200130462646 -7.909999847412109 -16.52000045776367 -7.825999736785889 C -16.49200057983398 -8.567999839782715 -16.4640007019043 -9.323999404907227 -16.43600082397461 -10.07999992370605 C -16.42883491516113 -10.53866386413574 -16.87290954589844 -10.76987457275391 -17.30999565124512 -10.76987457275391 C -17.72675895690918 -10.76987457275391 -18.13716888427734 -10.55966854095459 -18.14400100708008 -10.13599967956543 C -18.17200088500977 -9.309999465942383 -18.18600082397461 -8.498000144958496 -18.20000076293945 -7.699999809265137 C -18.91400146484375 -7.657999992370605 -19.6140022277832 -7.587999820709229 -20.30000114440918 -7.531999588012695 C -20.74800109863281 -7.503999710083008 -20.9580020904541 -7.139999866485596 -20.9580020904541 -6.761999607086182 C -20.9580020904541 -6.369999885559082 -20.70600128173828 -5.96399974822998 -20.23000144958496 -5.96399974822998 C -20.20200157165527 -5.96399974822998 -20.18800163269043 -5.96399974822998 -20.17400169372559 -5.96399974822998 C -19.54400062561035 -6.019999980926514 -18.88600158691406 -6.075999736785889 -18.22800064086914 -6.131999969482422 C -18.22800064086914 -5.655999660491943 -18.22800064086914 -5.179999828338623 -18.22800064086914 -4.717999935150146 C -18.22800064086914 -3.569999694824219 -18.20000076293945 -2.701999664306641 -18.13000106811523 -2.029999732971191 C -17.93400192260742 -0.1959997564554214 -16.91200065612793 0.5880002379417419 -14.43400096893311 0.5880002379417419 M -29.23200225830078 2.890000343322754 C -30.84437942504883 2.890000343322754 -31.68800163269043 1.760122418403625 -31.68800163269043 0.644000232219696 L -31.68800163269043 0.5100002288818359 L -34.07600021362305 0.5100002288818359 C -34.7662467956543 0.5100002288818359 -35.39770126342773 0.2037446945905685 -35.80845642089844 -0.3302442133426666 C -36.12610244750977 -0.7431775331497192 -36.29400253295898 -1.268010854721069 -36.29400253295898 -1.847999811172485 C -36.29400253295898 -2.081100225448608 -36.26697540283203 -2.305659770965576 -36.21413040161133 -2.517802238464355 C -36.29851531982422 -2.596837043762207 -36.37705612182617 -2.683269500732422 -36.44895553588867 -2.77674412727356 C -36.76889038085938 -3.192655324935913 -36.9379997253418 -3.723533153533936 -36.9379997253418 -4.311999797821045 C -36.9379997253418 -4.929932594299316 -36.76128005981445 -5.430336475372314 -36.47932815551758 -5.808488845825195 C -36.85412979125977 -6.226560592651367 -37.0780029296875 -6.798752307891846 -37.0780029296875 -7.447999954223633 C -37.0780029296875 -8.040088653564453 -36.90349197387695 -8.574543952941895 -36.57333374023438 -8.99357795715332 C -36.43180084228516 -9.1732177734375 -36.2650260925293 -9.32664966583252 -36.07946014404297 -9.450791358947754 C -36.10087585449219 -9.586128234863281 -36.11199951171875 -9.72620677947998 -36.11199951171875 -9.869999885559082 C -36.11199951171875 -11.22226619720459 -35.15244674682617 -12.24199962615967 -33.88000106811523 -12.24199962615967 L -31.47850608825684 -12.24199962615967 C -31.12848472595215 -12.9516019821167 -30.37098503112793 -13.5019998550415 -29.23200225830078 -13.5019998550415 C -28.10593414306641 -13.5019998550415 -27.35701751708984 -12.9516019821167 -27.01096343994141 -12.24199962615967 L -24.38800048828125 -12.24199962615967 C -23.12353515625 -12.24199962615967 -22.17000198364258 -11.22226619720459 -22.17000198364258 -9.869999885559082 C -22.17000198364258 -9.729143142700195 -22.18060874938965 -9.591852188110352 -22.20104598999023 -9.45909309387207 C -22.01044654846191 -9.33350944519043 -21.83938217163086 -9.17725658416748 -21.69466781616211 -8.99357795715332 C -21.6555347442627 -8.943909645080566 -21.61860084533691 -8.892637252807617 -21.58387184143066 -8.839822769165039 C -21.24702835083008 -9.06360912322998 -20.85284042358398 -9.197235107421875 -20.42683982849121 -9.22730541229248 C -20.24204063415527 -9.242428779602051 -20.05618476867676 -9.258577346801758 -19.86931991577148 -9.274884223937988 C -19.86209678649902 -9.575187683105469 -19.85367584228516 -9.878013610839844 -19.8433895111084 -10.18275833129883 C -19.81192016601562 -11.48808002471924 -18.7263298034668 -12.46987724304199 -17.30998992919922 -12.46987724304199 C -16.5713005065918 -12.46987724304199 -15.8736457824707 -12.19156646728516 -15.39591217041016 -11.70632171630859 C -14.9607458114624 -11.2642993927002 -14.72645664215088 -10.67729949951172 -14.73621273040771 -10.05344390869141 L -14.73649024963379 -10.03525543212891 L -14.73716831207275 -10.01707744598389 C -14.74185943603516 -9.890395164489746 -14.74654865264893 -9.763767242431641 -14.75123977661133 -9.637151718139648 C -14.62859535217285 -9.644227981567383 -14.50625991821289 -9.651224136352539 -14.38400173187256 -9.658166885375977 L -14.38400173187256 -10.54199981689453 C -14.38400173187256 -11.2910327911377 -14.04274559020996 -11.97557735443115 -13.44774627685547 -12.42012214660645 C -13.00938987731934 -12.74763298034668 -12.44977951049805 -12.92799949645996 -11.87200164794922 -12.92799949645996 C -10.45555686950684 -12.92799949645996 -9.346001625061035 -11.87378883361816 -9.346001625061035 -10.52799987792969 L -9.346001625061035 -9.899919509887695 C -9.206357955932617 -9.905453681945801 -9.06778621673584 -9.911017417907715 -8.931334495544434 -9.91658878326416 L -8.896678924560547 -9.918000221252441 L -8.862001419067383 -9.918000221252441 L -8.820001602172852 -9.918000221252441 C -8.118936538696289 -9.918000221252441 -7.497409820556641 -9.620051383972168 -7.064604759216309 -9.137191772460938 C -6.949258327484131 -10.37836170196533 -5.972322463989258 -11.31799983978271 -4.746001243591309 -11.31799983978271 C -4.151287078857422 -11.31799983978271 -3.588727235794067 -11.32434844970703 -3.047304391860962 -11.33726406097412 C -3.006768941879272 -11.44807815551758 -2.968997716903687 -11.55752658843994 -2.93403959274292 -11.66550064086914 C -2.608112573623657 -12.67921733856201 -1.69862174987793 -13.33399963378906 -0.6160014271736145 -13.33399963378906 C 0.522571861743927 -13.33399963378906 1.490445017814636 -12.63389110565186 1.826002240180969 -11.66755104064941 C 2.00734543800354 -11.68968772888184 2.182077646255493 -11.71230506896973 2.350693941116333 -11.73545837402344 C 2.553636789321899 -11.77999305725098 2.714560270309448 -11.77999973297119 2.785998582839966 -11.77999973297119 C 4.08468770980835 -11.77999973297119 5.101998805999756 -10.70734405517578 5.101998805999756 -9.33799934387207 C 5.101998805999756 -8.99976634979248 5.035684108734131 -8.677249908447266 4.914824962615967 -8.38477611541748 C 4.971415996551514 -8.38924503326416 5.032007694244385 -8.392000198364258 5.095998764038086 -8.392000198364258 C 5.822820663452148 -8.392000198364258 6.499409675598145 -8.056988716125488 6.952276229858398 -7.472855091094971 C 7.302898406982422 -7.020599842071533 7.495998382568359 -6.449933052062988 7.495998382568359 -5.865999698638916 C 7.495998382568359 -4.720033168792725 6.764853954315186 -3.760533094406128 5.676631927490234 -3.478399753570557 L 5.577287673950195 -3.452388763427734 C 4.933888912200928 -3.283911943435669 4.311385154724121 -3.120909214019775 3.711276054382324 -2.949724912643433 C 3.711836099624634 -2.921401023864746 3.712332487106323 -2.893587350845337 3.712774515151978 -2.866116046905518 C 3.868257522583008 -2.891844272613525 4.007673740386963 -2.903999805450439 4.143998622894287 -2.903999805450439 C 5.520021915435791 -2.903999805450439 6.598154067993164 -1.784125328063965 6.599995613098145 -0.3537350296974182 C 6.830340385437012 -1.216974258422852 7.527237892150879 -1.869646787643433 8.450414657592773 -2.025840759277344 C 8.666937828063965 -2.063244342803955 8.859499931335449 -2.103960990905762 9.031268119812012 -2.14747142791748 C 9.012145042419434 -2.164045810699463 8.993168830871582 -2.180988550186157 8.974309921264648 -2.198344230651855 C 8.375576019287109 -2.749355316162109 8.071998596191406 -3.540555238723755 8.071998596191406 -4.549999713897705 L 8.071998596191406 -9.967999458312988 C 8.071998596191406 -10.98124408721924 8.373931884765625 -11.77505493164062 8.969420433044434 -12.32738876342773 C 9.798076629638672 -13.0959997177124 10.89540958404541 -13.0959997177124 11.2559986114502 -13.0959997177124 L 17.77999877929688 -13.0959997177124 C 19.80347633361816 -13.0959997177124 20.96399879455566 -11.95588874816895 20.96399879455566 -9.967999458312988 L 20.96399879455566 -4.549999713897705 C 20.96399879455566 -4.379653453826904 20.95543098449707 -4.215536594390869 20.93834114074707 -4.057780742645264 C 21.41776084899902 -3.920202016830444 21.74493598937988 -3.680581092834473 21.95076560974121 -3.478066444396973 C 22.01080131530762 -3.418996572494507 22.06706619262695 -3.356852769851685 22.11943244934082 -3.291931629180908 C 22.07020378112793 -3.489529848098755 22.04399871826172 -3.695258378982544 22.04399871826172 -3.905999660491943 C 22.04399871826172 -4.693088531494141 22.40921020507812 -5.418410778045654 23.04599952697754 -5.895999908447266 L 23.04930877685547 -5.898477554321289 L 23.05263137817383 -5.900944232940674 C 23.75673675537109 -6.423689842224121 24.43531799316406 -6.961904048919678 25.0735034942627 -7.50227689743042 C 24.69520378112793 -7.654638290405273 24.36082649230957 -7.903861045837402 24.1035099029541 -8.233922004699707 C 23.75946617126465 -8.675222396850586 23.56999778747559 -9.241344451904297 23.56999778747559 -9.828000068664551 C 23.56999778747559 -11.21031093597412 24.56690979003906 -12.28385543823242 25.8888988494873 -12.32516670227051 L 25.89163208007812 -12.32525539398193 L 25.89435386657715 -12.32533264160156 C 27.60083198547363 -12.37317752838135 29.12162017822266 -12.44961071014404 30.54360961914062 -12.55898857116699 L 30.60870933532715 -12.56400012969971 L 30.67399787902832 -12.56400012969971 L 30.75799942016602 -12.56400012969971 C 32.22803115844727 -12.56400012969971 33.42399978637695 -11.38059997558594 33.42399978637695 -9.925999641418457 C 33.42399978637695 -9.290862083435059 33.19598388671875 -8.67343807220459 32.77453994750977 -8.150345802307129 C 33.36390686035156 -7.914114952087402 33.90230941772461 -7.579285621643066 34.36433029174805 -7.155355453491211 C 35.40105438232422 -6.204111099243164 35.97200012207031 -4.886066436767578 35.97200012207031 -3.443999767303467 C 35.97200012207031 -1.770733118057251 35.27767562866211 -0.257244199514389 34.01694488525391 0.8176447153091431 C 32.78128814697266 1.871144652366638 31.10247611999512 2.428000211715698 29.1619987487793 2.428000211715698 C 27.85964393615723 2.428000211715698 26.71756553649902 2.073322534561157 25.85923194885254 1.402311325073242 C 24.98282241821289 0.7171685695648193 24.46525382995605 -0.2446078658103943 24.38040161132812 -1.331578493118286 C 23.64764022827148 -1.390255451202393 22.99079513549805 -1.785253286361694 22.56155586242676 -2.361517906188965 C 22.5975284576416 -2.195833683013916 22.61599922180176 -2.023859024047852 22.61599922180176 -1.847999811172485 L 22.61599922180176 -1.777999758720398 L 22.61599922180176 -1.718766450881958 L 22.61187553405762 -1.659677505493164 C 22.56022262573242 -0.9193182587623596 22.36724090576172 -0.09988662600517273 22.09464454650879 0.5388138294219971 C 21.7293815612793 1.443653106689453 21.02266883850098 2.057666778564453 20.04902076721191 2.315400362014771 L 20.01606559753418 2.324122428894043 L 19.9827766418457 2.331522464752197 C 19.35148811340332 2.471800327301025 18.59432029724121 2.540000200271606 17.66799926757812 2.540000200271606 C 17.485107421875 2.540000200271606 17.25997352600098 2.540000677108765 17.0109977722168 2.525027275085449 C 16.01064682006836 2.505631446838379 15.2058629989624 2.401821374893188 14.53804302215576 1.972233533859253 C 14.10819911956787 1.695729374885559 13.79524326324463 1.325251221656799 13.60107421875 0.8647227883338928 C 12.3871021270752 2.038006782531738 10.8356819152832 2.499777555465698 9.54662036895752 2.769866943359375 L 9.539010047912598 2.771466970443726 L 9.531398773193359 2.77298903465271 C 9.323265075683594 2.814611434936523 9.146154403686523 2.8340003490448 8.9739990234375 2.8340003490448 C 7.823466777801514 2.8340003490448 6.901801586151123 2.11316704750061 6.616252899169922 0.9943285584449768 C 6.550908088684082 0.7562035918235779 6.519539833068848 0.533486545085907 6.518054008483887 0.2976515889167786 C 6.283128261566162 1.203960180282593 5.562475681304932 1.915275812149048 4.6062912940979 2.122525453567505 C 3.318671226501465 2.411216974258423 2.065918207168579 2.540000200271606 0.5459985733032227 2.540000200271606 C -1.068879127502441 2.540000200271606 -2.357190370559692 2.21310019493103 -3.283145904541016 1.56837797164917 C -4.329657077789307 0.8397224545478821 -4.906001567840576 -0.284077525138855 -4.906001567840576 -1.595999717712402 C -4.906001567840576 -1.653828382492065 -4.904737949371338 -1.712682604789734 -4.902077198028564 -1.772404432296753 C -6.236797332763672 -1.796881675720215 -7.356001377105713 -2.930655002593994 -7.356001377105713 -4.269999980926514 C -7.356001377105713 -4.981787204742432 -7.046483993530273 -5.643664360046387 -6.484121799468994 -6.135056972503662 C -6.278212070465088 -6.317353248596191 -6.069863796234131 -6.52245569229126 -5.861979961395264 -6.746788501739502 C -6.08063268661499 -6.86727237701416 -6.276812076568604 -7.022582530975342 -6.444490432739258 -7.206241130828857 C -6.554233074188232 -5.95225191116333 -7.512561321258545 -5.006890296936035 -8.760292053222656 -4.96504020690918 C -8.983445167541504 -4.956288814544678 -9.213687896728516 -4.947418689727783 -9.452519416809082 -4.938372611999512 C -9.455684661865234 -4.893481254577637 -9.459015846252441 -4.848580837249756 -9.462529182434082 -4.803745746612549 C -9.507765769958496 -4.15400505065918 -9.641170501708984 -3.582800149917603 -9.857883453369141 -3.094887018203735 C -8.847005844116211 -2.78655743598938 -8.12800121307373 -1.819854736328125 -8.12800121307373 -0.6439997553825378 C -8.12800121307373 0.5736131072044373 -8.908500671386719 1.569302082061768 -10.07156085968018 1.837506532669067 C -11.36529350280762 2.144833564758301 -12.75177955627441 2.288000345230103 -14.43400096893311 2.288000345230103 C -16.06535720825195 2.288000345230103 -17.24043464660645 1.988566875457764 -18.13203430175781 1.345655798912048 C -19.10038948059082 0.6474113464355469 -19.66842269897461 -0.4275442063808441 -19.82037925720215 -1.849344253540039 C -19.88604927062988 -2.479742765426636 -19.91951370239258 -3.239952802658081 -19.92657279968262 -4.279271125793457 C -19.95899200439453 -4.276402473449707 -19.99126625061035 -4.273540496826172 -20.02347946166992 -4.27067756652832 L -20.09859085083008 -4.263999938964844 L -20.17400169372559 -4.263999938964844 L -20.23000144958496 -4.263999938964844 C -20.6257209777832 -4.263999938964844 -20.99652290344238 -4.356696128845215 -21.32345771789551 -4.522592544555664 C -21.31857872009277 -4.454632759094238 -21.31600189208984 -4.384488105773926 -21.31600189208984 -4.311999797821045 C -21.31600189208984 -3.585437059402466 -21.59128379821777 -2.954858779907227 -22.04215049743652 -2.52687931060791 C -21.98779296875 -2.312048435211182 -21.96000099182129 -2.084452152252197 -21.96000099182129 -1.847999811172485 C -21.96000099182129 -1.268010854721069 -22.12790107727051 -0.7431775331497192 -22.4455451965332 -0.3302442133426666 C -22.85630226135254 0.2037446945905685 -23.48775672912598 0.5100002288818359 -24.17800140380859 0.5100002288818359 L -26.7760009765625 0.5100002288818359 L -26.7760009765625 0.644000232219696 C -26.7760009765625 1.760122418403625 -27.6196231842041 2.890000343322754 -29.23200225830078 2.890000343322754 Z" stroke="none" fill="#74cdd9"/>
    </g>
  </g>
</svg>
