<svg xmlns="http://www.w3.org/2000/svg" width="72" height="72" viewBox="0 0 72 72">
  <g id="グループ_77" data-name="グループ 77" transform="translate(-272 -248)">
    <circle id="楕円形_3" data-name="楕円形 3" cx="36" cy="36" r="36" transform="translate(272 248)" fill="#dff1f4"/>
    <path id="パス_88" data-name="パス 88" d="M263.266,385.3c0-8.687-9.942-15.729-22.207-15.729s-22.207,7.042-22.207,15.729,9.943,15.73,22.207,15.73a29.834,29.834,0,0,0,9.794-1.611,12.808,12.808,0,0,0,6.894,2.607s-.952-3.692-1.2-5.46C260.691,393.713,263.266,389.723,263.266,385.3Z" transform="translate(67.148 -100.576)" fill="#fff"/>
    <g id="グループ_72" data-name="グループ 72" transform="translate(12.052 -43.862)">
      <circle id="楕円形_28" data-name="楕円形 28" cx="2.176" cy="2.176" r="2.176" transform="translate(285.948 326.862)" fill="#dff1f4"/>
      <circle id="楕円形_29" data-name="楕円形 29" cx="2.176" cy="2.176" r="2.176" transform="translate(293.737 326.862)" fill="#dff1f4"/>
      <circle id="楕円形_30" data-name="楕円形 30" cx="2.176" cy="2.176" r="2.176" transform="translate(301.526 326.862)" fill="#dff1f4"/>
    </g>
  </g>
</svg>
