<svg xmlns="http://www.w3.org/2000/svg" width="33.52" height="17.65" viewBox="0 0 33.52 17.65">
  <g id="パス_188" data-name="パス 188" transform="translate(1.49 14.555)" fill="#fff">
    <path d="M 26.19000053405762 2.095000028610229 C 24.93610000610352 2.095000028610229 24.36499977111816 1.273379921913147 24.36499977111816 0.5099999904632568 L 24.36499977111816 -5.389999866485596 L 23.11499977111816 -5.389999866485596 C 23.10733413696289 -5.389999866485596 23.09974479675293 -5.390055179595947 23.09211158752441 -5.39016580581665 C 23.11368751525879 -5.273421764373779 23.125 -5.15126895904541 23.125 -5.025000095367432 C 23.125 -4.547954082489014 22.97771453857422 -4.135244846343994 22.72812461853027 -3.83882999420166 C 23.00169944763184 -3.486685514450073 23.14000129699707 -3.029500484466553 23.14000129699707 -2.474999904632568 L 23.14000129699707 -0.2400000244379044 C 23.14000129699707 1.090610027313232 22.31196022033691 1.884999990463257 20.92500114440918 1.884999990463257 L 18.14999961853027 1.884999990463257 C 16.76304054260254 1.884999990463257 15.9350004196167 1.090610027313232 15.9350004196167 -0.2400000244379044 L 15.9350004196167 -2.474999904632568 C 15.9350004196167 -3.024792671203613 16.07097434997559 -3.478927850723267 16.33994674682617 -3.829851150512695 C 16.08537673950195 -4.1239333152771 15.9350004196167 -4.534759521484375 15.9350004196167 -5.010000228881836 C 15.9350004196167 -5.422364234924316 16.04827690124512 -5.786310195922852 16.24454879760742 -6.067500114440918 C 16.04827690124512 -6.348689556121826 15.9350004196167 -6.71263599395752 15.9350004196167 -7.125 C 15.9350004196167 -7.347209453582764 15.96788120269775 -7.555338382720947 16.0289192199707 -7.744040966033936 C 15.5154914855957 -8.013649940490723 15.1850004196167 -8.593277931213379 15.1850004196167 -9.314999580383301 C 15.1850004196167 -10.04028034210205 15.51879119873047 -10.62207984924316 16.03655815124512 -10.88994121551514 C 15.97074508666992 -11.08265972137451 15.9350004196167 -11.2947940826416 15.9350004196167 -11.52000045776367 C 15.9350004196167 -12.47490978240967 16.57771110534668 -13.19499969482422 17.43000030517578 -13.19499969482422 L 21.70499992370605 -13.19499969482422 C 22.56583976745605 -13.19499969482422 23.21500015258789 -12.47490978240967 23.21500015258789 -11.52000045776367 C 23.21500015258789 -11.24571990966797 23.16143226623535 -10.99078845977783 23.0646858215332 -10.76675415039062 C 23.46290588378906 -10.466965675354 23.71000099182129 -9.95162296295166 23.71000099182129 -9.329999923706055 C 23.71000099182129 -9.209127426147461 23.70097541809082 -9.092195510864258 23.68359756469727 -8.979999542236328 L 24.36499977111816 -8.979999542236328 L 24.36499977111816 -11.9399995803833 C 24.36499977111816 -12.70337963104248 24.93610000610352 -13.52499961853027 26.19000053405762 -13.52499961853027 C 26.65463066101074 -13.52499961853027 27.05021095275879 -13.41341972351074 27.36576080322266 -13.19336986541748 C 27.77836036682129 -12.9056396484375 28.01500129699707 -12.4488000869751 28.01500129699707 -11.9399995803833 L 28.01500129699707 -8.979999542236328 L 29.44499969482422 -8.979999542236328 C 30.36341094970703 -8.979999542236328 31.03000068664551 -8.225090026855469 31.03000068664551 -7.184999942779541 C 31.03000068664551 -6.161680221557617 30.34860038757324 -5.389999866485596 29.44499969482422 -5.389999866485596 L 28.01500129699707 -5.389999866485596 L 28.01500129699707 0.5099999904632568 C 28.01500129699707 1.273379921913147 27.44390106201172 2.095000028610229 26.19000053405762 2.095000028610229 Z M 11.02500057220459 1.779999971389771 L 3.93000054359436 1.779999971389771 C 2.331680536270142 1.779999971389771 1.415000438690186 0.8687899708747864 1.415000438690186 -0.7200000286102295 L 1.415000438690186 -3.825000047683716 C 1.415000438690186 -4.561987400054932 1.612217903137207 -5.15314769744873 1.983247399330139 -5.575222492218018 C 1.771074175834656 -5.492973804473877 1.544813275337219 -5.449999809265137 1.320000410079956 -5.449999809265137 C 0.6371404528617859 -5.449999809265137 0.03362045809626579 -5.841700077056885 -0.2944295406341553 -6.497789859771729 L -0.3045895397663116 -6.518099784851074 L -0.3138095438480377 -6.538859844207764 C -0.4307195544242859 -6.801909923553467 -0.489999532699585 -7.074820041656494 -0.489999532699585 -7.349999904632568 C -0.489999532699585 -8.079987525939941 -0.07746454328298569 -8.711477279663086 0.5872878432273865 -9.000354766845703 C 2.506900548934937 -9.862619400024414 4.272233963012695 -11.19628143310547 5.558460235595703 -12.75617980957031 L 5.571300506591797 -12.77175045013428 L 5.584760665893555 -12.786789894104 C 6.021570682525635 -13.27499961853027 6.708720684051514 -13.55500030517578 7.470000267028809 -13.55500030517578 C 8.221750259399414 -13.55500030517578 8.903429985046387 -13.27499961853027 9.340240478515625 -12.786789894104 L 9.346660614013672 -12.77962017059326 L 9.352940559387207 -12.77231979370117 C 10.76902008056641 -11.1269702911377 12.42558002471924 -9.914250373840332 14.41729068756104 -9.064840316772461 C 15.07959079742432 -8.781000137329102 15.49000072479248 -8.141420364379883 15.49000072479248 -7.394999980926514 C 15.49000072479248 -7.11544132232666 15.42975425720215 -6.831372261047363 15.31572532653809 -6.573182582855225 C 15.00913047790527 -5.871034145355225 14.37116241455078 -5.434999942779541 13.65000057220459 -5.434999942779541 C 13.42096710205078 -5.434999942779541 13.19503307342529 -5.480281829833984 12.97649669647217 -5.569807052612305 C 13.34441184997559 -5.148102760314941 13.54000091552734 -4.55878734588623 13.54000091552734 -3.825000047683716 L 13.54000091552734 -0.7200000286102295 C 13.54000091552734 0.8687899708747864 12.62332057952881 1.779999971389771 11.02500057220459 1.779999971389771 Z M 5.095013618469238 -1.720000028610229 L 9.874970436096191 -1.720000028610229 L 9.87498950958252 -2.839999914169312 L 5.09503698348999 -2.839999914169312 L 5.095013618469238 -1.720000028610229 Z M 7.171782970428467 -9.189999580383301 L 7.798839092254639 -9.189999580383301 C 7.68938159942627 -9.299014091491699 7.583317279815674 -9.408092498779297 7.480861663818359 -9.517036437988281 C 7.380876064300537 -9.407589912414551 7.277824401855469 -9.298559188842773 7.171782970428467 -9.189999580383301 Z" stroke="none"/>
    <path d="M 7.470001220703125 -12.55500030517578 C 7.020000457763672 -12.55500030517578 6.585000991821289 -12.40499973297119 6.329999923706055 -12.11999988555908 C 4.920000076293945 -10.40999984741211 3.030000686645508 -9 0.9899997711181641 -8.085000038146973 C 0.6750011444091797 -7.949999809265137 0.5100002288818359 -7.664999961853027 0.5100002288818359 -7.349999904632568 C 0.5100002288818359 -7.215000152587891 0.5400009155273438 -7.079999923706055 0.6000003814697266 -6.945000171661377 C 0.7650012969970703 -6.615000247955322 1.034999847412109 -6.449999809265137 1.319999694824219 -6.449999809265137 C 1.440000534057617 -6.449999809265137 1.575000762939453 -6.480000019073486 1.694999694824219 -6.539999961853027 C 2.460000991821289 -6.900000095367432 3.255001068115234 -7.349999904632568 4.005001068115234 -7.860000133514404 C 3.960000991821289 -7.739999771118164 3.930000305175781 -7.590000152587891 3.930000305175781 -7.425000190734863 C 3.930000305175781 -6.990000247955322 4.14000129699707 -6.675000190734863 4.51500129699707 -6.675000190734863 L 10.5 -6.675000190734863 C 10.86000061035156 -6.675000190734863 11.06999969482422 -6.990000247955322 11.06999969482422 -7.425000190734863 C 11.06999969482422 -7.590000152587891 11.04000091552734 -7.755000114440918 10.97999954223633 -7.875 C 11.71500015258789 -7.365000247955322 12.51000022888184 -6.900000095367432 13.29000091552734 -6.525000095367432 C 13.40999984741211 -6.465000152587891 13.53000068664551 -6.434999942779541 13.64999961853027 -6.434999942779541 C 13.96500015258789 -6.434999942779541 14.25 -6.630000114440918 14.39999961853027 -6.974999904632568 C 14.46000099182129 -7.110000133514404 14.48999977111816 -7.260000228881836 14.48999977111816 -7.394999980926514 C 14.48999977111816 -7.710000038146973 14.34000015258789 -8.010000228881836 14.02499961853027 -8.145000457763672 C 11.98500061035156 -9.015000343322754 10.17000007629395 -10.28999996185303 8.595001220703125 -12.11999988555908 C 8.340000152587891 -12.40499973297119 7.905000686645508 -12.55500030517578 7.470001220703125 -12.55500030517578 M 10.53000068664551 -8.190000534057617 L 4.51500129699707 -8.190000534057617 L 4.470001220703125 -8.190000534057617 C 5.55000114440918 -8.970000267028809 6.540000915527344 -9.885000228881836 7.260000228881836 -10.80000019073486 C 7.335000991821289 -10.89000034332275 7.409999847412109 -10.9350004196167 7.470001220703125 -10.9350004196167 C 7.545000076293945 -10.9350004196167 7.620000839233398 -10.875 7.710000991821289 -10.77000045776367 C 8.444999694824219 -9.869999885559082 9.435001373291016 -8.985000610351562 10.53000068664551 -8.190000534057617 M 26.19000053405762 -12.52499961853027 C 25.69499969482422 -12.52499961853027 25.36499977111816 -12.3149995803833 25.36499977111816 -11.9399995803833 L 25.36499977111816 -7.980000019073486 L 23.11499977111816 -7.980000019073486 C 22.75500106811523 -7.980000019073486 22.53000068664551 -7.650000095367432 22.53000068664551 -7.184999942779541 C 22.53000068664551 -6.735000133514404 22.75500106811523 -6.389999866485596 23.11499977111816 -6.389999866485596 L 25.36499977111816 -6.389999866485596 L 25.36499977111816 0.5100002288818359 C 25.36499977111816 0.8850002288818359 25.69499969482422 1.095000267028809 26.19000053405762 1.095000267028809 C 26.70000076293945 1.095000267028809 27.01499938964844 0.8850002288818359 27.01499938964844 0.5100002288818359 L 27.01499938964844 -6.389999866485596 L 29.44499969482422 -6.389999866485596 C 29.80500030517578 -6.389999866485596 30.03000068664551 -6.735000133514404 30.03000068664551 -7.184999942779541 C 30.03000068664551 -7.650000095367432 29.80500030517578 -7.980000019073486 29.44499969482422 -7.980000019073486 L 27.01499938964844 -7.980000019073486 L 27.01499938964844 -11.9399995803833 C 27.01499938964844 -12.3149995803833 26.70000076293945 -12.52499961853027 26.19000053405762 -12.52499961853027 M 17.43000030517578 -12.19499969482422 C 17.13000106811523 -12.19499969482422 16.93500137329102 -11.90999984741211 16.93500137329102 -11.52000045776367 C 16.93500137329102 -11.13000011444092 17.13000106811523 -10.84500026702881 17.43000030517578 -10.84500026702881 L 21.70500183105469 -10.84500026702881 C 22.02000045776367 -10.84500026702881 22.21500015258789 -11.13000011444092 22.21500015258789 -11.52000045776367 C 22.21500015258789 -11.90999984741211 22.02000045776367 -12.19499969482422 21.70500183105469 -12.19499969482422 L 17.43000030517578 -12.19499969482422 M 16.70999908447266 -10.05000019073486 C 16.3650016784668 -10.05000019073486 16.18500137329102 -9.734999656677246 16.18500137329102 -9.315000534057617 C 16.18500137329102 -8.909999847412109 16.3650016784668 -8.579999923706055 16.70999908447266 -8.579999923706055 L 22.20000076293945 -8.579999923706055 C 22.53000068664551 -8.579999923706055 22.71000099182129 -8.925000190734863 22.71000099182129 -9.329999923706055 C 22.71000099182129 -9.734999656677246 22.53000068664551 -10.05000019073486 22.20000076293945 -10.05000019073486 L 16.70999908447266 -10.05000019073486 M 17.40000152587891 -7.784999847412109 C 17.08499908447266 -7.784999847412109 16.93500137329102 -7.485000133514404 16.93500137329102 -7.125 C 16.93500137329102 -6.764999866485596 17.08499908447266 -6.465000152587891 17.40000152587891 -6.465000152587891 L 21.67499923706055 -6.465000152587891 C 21.95999908447266 -6.465000152587891 22.125 -6.764999866485596 22.125 -7.125 C 22.125 -7.485000133514404 21.95999908447266 -7.784999847412109 21.67499923706055 -7.784999847412109 L 17.40000152587891 -7.784999847412109 M 17.40000152587891 -5.670000076293945 C 17.08499908447266 -5.670000076293945 16.93500137329102 -5.369999885559082 16.93500137329102 -5.010000228881836 C 16.93500137329102 -4.650000095367432 17.08499908447266 -4.349999904632568 17.40000152587891 -4.349999904632568 L 21.67499923706055 -4.349999904632568 C 21.95999908447266 -4.349999904632568 22.125 -4.650000095367432 22.125 -5.025000095367432 C 22.125 -5.385000228881836 21.95999908447266 -5.670000076293945 21.67499923706055 -5.670000076293945 L 17.40000152587891 -5.670000076293945 M 3.930000305175781 -5.324999809265137 C 2.895000457763672 -5.324999809265137 2.415000915527344 -4.860000133514404 2.415000915527344 -3.824999809265137 L 2.415000915527344 -0.7200002670288086 C 2.415000915527344 0.3149995803833008 2.895000457763672 0.7799997329711914 3.930000305175781 0.7799997329711914 L 11.02499961853027 0.7799997329711914 C 12.07500076293945 0.7799997329711914 12.54000091552734 0.3149995803833008 12.54000091552734 -0.7200002670288086 L 12.54000091552734 -3.824999809265137 C 12.54000091552734 -4.860000133514404 12.07500076293945 -5.324999809265137 11.02499961853027 -5.324999809265137 L 3.930000305175781 -5.324999809265137 M 10.40999984741211 -0.7200002670288086 L 4.530000686645508 -0.7200002670288086 C 4.200000762939453 -0.7200002670288086 4.095001220703125 -0.7950000762939453 4.095001220703125 -1.109999656677246 L 4.095001220703125 -3.465000152587891 C 4.095001220703125 -3.764999866485596 4.200000762939453 -3.840000152587891 4.530000686645508 -3.840000152587891 L 10.40999984741211 -3.840000152587891 C 10.75500106811523 -3.840000152587891 10.875 -3.764999866485596 10.875 -3.465000152587891 L 10.875 -1.109999656677246 C 10.875 -0.7950000762939453 10.75500106811523 -0.7200002670288086 10.40999984741211 -0.7200002670288086 M 18.15000152587891 -3.585000038146973 C 17.32500076293945 -3.585000038146973 16.93500137329102 -3.270000457763672 16.93500137329102 -2.475000381469727 L 16.93500137329102 -0.2399997711181641 C 16.93500137329102 0.5399999618530273 17.32500076293945 0.8850002288818359 18.15000152587891 0.8850002288818359 L 20.92499923706055 0.8850002288818359 C 21.75 0.8850002288818359 22.13999938964844 0.5399999618530273 22.13999938964844 -0.2399997711181641 L 22.13999938964844 -2.475000381469727 C 22.13999938964844 -3.270000457763672 21.75 -3.585000038146973 20.92499923706055 -3.585000038146973 L 18.15000152587891 -3.585000038146973 M 20.28000068664551 -0.4049997329711914 L 18.78000068664551 -0.4049997329711914 C 18.52500152587891 -0.4049997329711914 18.43500137329102 -0.4800004959106445 18.43500137329102 -0.7349996566772461 L 18.43500137329102 -1.980000495910645 C 18.43500137329102 -2.234999656677246 18.52500152587891 -2.295000076293945 18.78000068664551 -2.295000076293945 L 20.28000068664551 -2.295000076293945 C 20.53499984741211 -2.295000076293945 20.63999938964844 -2.234999656677246 20.63999938964844 -1.980000495910645 L 20.63999938964844 -0.7349996566772461 C 20.63999938964844 -0.4800004959106445 20.53499984741211 -0.4049997329711914 20.28000068664551 -0.4049997329711914 M 7.470001220703125 -14.55500030517578 C 8.505889892578125 -14.55500030517578 9.459199905395508 -14.15355014801025 10.08547973632812 -13.45359039306641 L 10.09832000732422 -13.43923950195312 L 10.11087989807129 -13.42465019226074 C 11.30521202087402 -12.03695106506348 12.68375396728516 -10.98096561431885 14.31244468688965 -10.20840835571289 C 14.43951416015625 -10.6337947845459 14.6567554473877 -11.00692558288574 14.9423656463623 -11.30400943756104 C 14.93746757507324 -11.37531280517578 14.9350004196167 -11.44736385345459 14.9350004196167 -11.52000045776367 C 14.9350004196167 -12.13502025604248 15.11169052124023 -12.70594024658203 15.44597053527832 -13.1710205078125 C 15.91370010375977 -13.82176971435547 16.63685035705566 -14.19499969482422 17.43000030517578 -14.19499969482422 L 21.70500183105469 -14.19499969482422 C 22.49612045288086 -14.19499969482422 23.21943664550781 -13.82806968688965 23.68961906433105 -13.18826484680176 C 23.87433815002441 -13.51352310180664 24.13390350341797 -13.79756450653076 24.45791053771973 -14.02058029174805 C 24.93733024597168 -14.3505802154541 25.53628158569336 -14.52499961853027 26.19000053405762 -14.52499961853027 C 28.04463005065918 -14.52499961853027 29.01500129699707 -13.22457981109619 29.01500129699707 -11.9399995803833 L 29.01500129699707 -9.979999542236328 L 29.44499969482422 -9.979999542236328 C 30.9186897277832 -9.979999542236328 32.02999877929688 -8.778409957885742 32.02999877929688 -7.184999942779541 C 32.02999877929688 -6.542069911956787 31.84772109985352 -5.945690155029297 31.50286102294922 -5.460340023040771 C 31.01955032348633 -4.780119895935059 30.26949119567871 -4.389999866485596 29.44499969482422 -4.389999866485596 L 29.01500129699707 -4.389999866485596 L 29.01500129699707 0.5100002288818359 C 29.01500129699707 1.79457950592041 28.04463005065918 3.095000267028809 26.19000053405762 3.095000267028809 C 25.53628158569336 3.095000267028809 24.93733024597168 2.92057991027832 24.45791053771973 2.590579986572266 C 24.08477020263672 2.333745956420898 23.7971076965332 1.995985984802246 23.61078643798828 1.607519149780273 C 23.47585678100586 1.804886817932129 23.33006858825684 1.964066505432129 23.19269943237305 2.089879989624023 C 22.61664009094238 2.617480278015137 21.85367965698242 2.885000228881836 20.92499923706055 2.885000228881836 L 18.15000152587891 2.885000228881836 C 17.22132110595703 2.885000228881836 16.45836067199707 2.617480278015137 15.88230037689209 2.089879989624023 C 15.45015048980713 1.694080352783203 14.9350004196167 0.9685697555541992 14.9350004196167 -0.2399997711181641 L 14.9350004196167 -2.475000381469727 C 14.9350004196167 -2.968183517456055 15.02104663848877 -3.415929794311523 15.18288612365723 -3.808178424835205 C 15.0546178817749 -4.095344543457031 14.97236251831055 -4.414568901062012 14.9450511932373 -4.756285190582275 C 14.79796028137207 -4.677901268005371 14.64373588562012 -4.61298942565918 14.48387908935547 -4.562515735626221 C 14.52125358581543 -4.329022884368896 14.54000091552734 -4.083084106445312 14.54000091552734 -3.824999809265137 L 14.54000091552734 -0.7200002670288086 C 14.54000091552734 0.3483295440673828 14.21872138977051 1.208860397338867 13.58508110046387 1.837710380554199 C 12.95503997802734 2.462969779968262 12.09370994567871 2.779999732971191 11.02499961853027 2.779999732971191 L 3.930000305175781 2.779999732971191 C 2.869779586791992 2.779999732971191 2.012149810791016 2.464750289916992 1.38092041015625 1.843009948730469 C 0.7399806976318359 1.211709976196289 0.4150009155273438 0.3493900299072266 0.4150009155273438 -0.7200002670288086 L 0.4150009155273438 -3.824999809265137 C 0.4150009155273438 -4.091498851776123 0.4351692199707031 -4.345054149627686 0.4753952026367188 -4.585463047027588 C -0.2294769287109375 -4.817540645599365 -0.8316421508789062 -5.336149215698242 -1.188850402832031 -6.050570011138916 L -1.209169387817383 -6.091209888458252 L -1.227619171142578 -6.132719993591309 C -1.40172004699707 -6.524449825286865 -1.489997863769531 -6.934000015258789 -1.489997863769531 -7.349999904632568 C -1.489997863769531 -8.482425689697266 -0.8500518798828125 -9.462983131408691 0.181640625 -9.914402961730957 C 1.962263107299805 -10.71495628356934 3.59742546081543 -11.94978427886963 4.786920547485352 -13.39235973358154 L 4.812601089477539 -13.42350959777832 L 4.839521408081055 -13.45359039306641 C 5.465801239013672 -14.15355014801025 6.424570083618164 -14.55500030517578 7.470001220703125 -14.55500030517578 Z" stroke="none" fill="#cae593"/>
  </g>
</svg>
