<svg xmlns="http://www.w3.org/2000/svg" width="153" height="153" viewBox="0 0 153 153">
  <g id="グループ_198" data-name="グループ 198" transform="translate(-166 -111)">
    <circle id="楕円形_1" data-name="楕円形 1" cx="76.5" cy="76.5" r="76.5" transform="translate(166 111)" fill="#bde672" opacity="0.802"/>
    <g id="グループ_74" data-name="グループ 74" transform="translate(188 131)">
      <path id="パス_96" data-name="パス 96" d="M438.637,494.541s1.272,1.526,5.6-3.052,4.885-9.461,1.272-9.667c-5.039-.286-2.432,11.629,4.444,11.352" transform="translate(-341.091 -432.732)" fill="none" stroke="#fff" stroke-miterlimit="10" stroke-width="0.574"/>
      <path id="パス_93" data-name="パス 93" d="M385.256,500.869c3.022-.752,5.97-1.762,11.441-3.275a31.77,31.77,0,0,1,6.749-7.619c-2.918-8.657-2.954-19.007-2.954-19.007,10.548-1,16.578,7.784,18.385,10.871a56.537,56.537,0,0,1,5.571-1.442l-.005-.027c.391-.072.774-.12,1.163-.184a70.426,70.426,0,0,1,24.3,0c.389.064.772.112,1.163.184l0,.027c23.51,4.8,36.216,19.071,30,40.111a23.77,23.77,0,0,1-7.374,11.1,54.77,54.77,0,0,1-14.05,8.668v8.789a6.155,6.155,0,0,1-12.281,0v-5.314a41.393,41.393,0,0,1-16.662-.817v6.131a6.155,6.155,0,0,1-12.281,0v-9.034a5.328,5.328,0,0,1,.121-1.126,97.955,97.955,0,0,1-14.806-7.773c-3.034-.19-4.321,1.8-9.853,1.429C384.389,531.919,382.381,501.585,385.256,500.869Z" transform="translate(-384.046 -441.331)" fill="#fff"/>
      <rect id="長方形_207" data-name="長方形 207" width="21.897" height="2.166" rx="1.083" transform="translate(43.295 42.822)" fill="#d7eab5"/>
      <g id="グループ_73" data-name="グループ 73" transform="translate(36.494 0)">
        <path id="パス_94" data-name="パス 94" d="M429.534,464.848c-3.985-1.866-8.834,0-11.127,4.167-4.427-1.732-9.347-.061-11.213,3.925s0,8.834,4.167,11.125c-1.732,4.43-.061,9.35,3.925,11.216s8.834,0,11.125-4.169c4.43,1.735,9.35.063,11.216-3.922s0-8.834-4.17-11.125C435.192,471.634,433.517,466.715,429.534,464.848Z" transform="translate(-406.469 -464.124)" fill="#fff"/>
        <path id="パス_95" data-name="パス 95" d="M414.365,474.81s3.536,14.848,19.315,4.846" transform="translate(-394.424 -447.823)" fill="none" stroke="#fff" stroke-miterlimit="10" stroke-width="0.622"/>
      </g>
    </g>
    <g id="パス_180" data-name="パス 180" transform="translate(191.5 252)" fill="#fff" stroke-linecap="round">
      <path d="M 8.076186180114746 4.701704502105713 C 6.762186050415039 4.701704502105713 6.174026012420654 3.87221097946167 6.174026012420654 3.05014443397522 L 6.174026012420654 1.861584424972534 L 2.295719623565674 1.861584424972534 C 1.342972874641418 1.861584424972534 0.6775729060173035 1.127477645874023 0.6775729060173035 0.07637103646993637 C 0.6775729060173035 -0.4042348861694336 0.8141161203384399 -0.8191748261451721 1.052067399024963 -1.129323720932007 C 0.4428607523441315 -1.311960339546204 -0.09093378484249115 -1.871229648590088 -0.09093378484249115 -2.863988876342773 C -0.09093378484249115 -4.090535640716553 0.7391995191574097 -4.649188995361328 1.510506272315979 -4.649188995361328 L 3.235012769699097 -4.649188995361328 C 3.208516836166382 -4.705795288085938 3.181567430496216 -4.763034820556641 3.154102325439453 -4.821042060852051 L 1.376852869987488 -4.821042060852051 C 0.4142795503139496 -4.821042060852051 -0.2580004632472992 -5.555149078369141 -0.2580004632472992 -6.606255531311035 C -0.2580004632472992 -7.607757091522217 0.3410012722015381 -8.324131965637207 1.217801570892334 -8.401266098022461 C 1.012526631355286 -8.696333885192871 0.8947595357894897 -9.072311401367188 0.8947595357894897 -9.496495246887207 C 0.8947595357894897 -10.54058933258057 1.582306265830994 -11.29840183258057 2.529599666595459 -11.29840183258057 L 6.161646366119385 -11.29840183258057 C 6.217689037322998 -12.04318046569824 6.822174072265625 -12.802001953125 8.076186180114746 -12.802001953125 C 9.308372497558594 -12.802001953125 9.902334213256836 -12.04318046569824 9.957401275634766 -11.29840183258057 L 13.85666656494141 -11.29840183258057 C 14.79427909851074 -11.29840183258057 15.47479915618896 -10.54058933258057 15.47479915618896 -9.496495246887207 C 15.47479915618896 -9.072874069213867 15.35847282409668 -8.697226524353027 15.15579414367676 -8.402335166931152 C 16.03945350646973 -8.330986022949219 16.64426612854004 -7.612548828125 16.64426612854004 -6.606255531311035 C 16.64426612854004 -5.555149078369141 15.97198581695557 -4.821042060852051 15.00941276550293 -4.821042060852051 L 13.08424758911133 -4.821042060852051 C 13.05787944793701 -4.76353120803833 13.03107166290283 -4.706282138824463 13.00382137298584 -4.649188995361328 L 14.87575912475586 -4.649188995361328 C 15.65510654449463 -4.649188995361328 16.49390602111816 -4.090535640716553 16.49390602111816 -2.863988876342773 C 16.49390602111816 -1.91473662853241 15.96978378295898 -1.328664660453796 15.34720039367676 -1.134133458137512 C 15.58741283416748 -0.8234763741493225 15.7253999710083 -0.406695544719696 15.7253999710083 0.07637103646993637 C 15.7253999710083 1.127477645874023 15.05999946594238 1.861584424972534 14.107253074646 1.861584424972534 L 9.97834587097168 1.861584424972534 L 9.97834587097168 3.05014443397522 C 9.97834587097168 3.87221097946167 9.390186309814453 4.701704502105713 8.076186180114746 4.701704502105713 Z M 7.242920875549316 -4.649188995361328 L 8.882382392883301 -4.649188995361328 C 8.911392211914062 -4.706184387207031 8.940059661865234 -4.763447284698486 8.968480110168457 -4.821042060852051 L 7.176989078521729 -4.821042060852051 C 7.199676513671875 -4.763281345367432 7.221652984619141 -4.705996990203857 7.242920875549316 -4.649188995361328 Z M 53.58490753173828 4.60146427154541 C 53.13594818115234 4.60146427154541 52.70869827270508 4.447197914123535 52.37512969970703 4.16583776473999 C 51.91739273071289 3.820137023925781 51.66603851318359 3.325108766555786 51.66603851318359 2.766130924224854 C 51.66603851318359 2.381731033325195 51.80018615722656 1.997570991516113 52.04375839233398 1.68439769744873 C 52.41763305664062 1.205842137336731 52.75912475585938 0.6336081027984619 52.99116134643555 0.09921729564666748 C 52.97512435913086 0.08574748039245605 52.95918655395508 0.07190270721912384 52.94343948364258 0.05774436891078949 C 52.47734451293945 -0.361348956823349 52.25077438354492 -0.9727622866630554 52.25077438354492 -1.811468958854675 L 52.25077438354492 -9.813921928405762 C 52.25077438354492 -10.66240215301514 52.47293472290039 -11.28208255767822 52.92995834350586 -11.70837593078613 C 53.49924087524414 -12.23938941955566 54.26289367675781 -12.30080223083496 54.78777313232422 -12.30080223083496 L 56.94292068481445 -12.30080223083496 C 57.46682739257812 -12.30080223083496 58.22965240478516 -12.23997592926025 58.80300140380859 -11.71401596069336 C 59.10191345214844 -11.43979549407959 59.30246353149414 -11.08624744415283 59.40803146362305 -10.64408493041992 C 59.75008773803711 -10.7915506362915 60.1566276550293 -10.86404228210449 60.63507843017578 -10.86404228210449 L 61.43938446044922 -10.86404228210449 L 61.43938446044922 -11.15044212341309 C 61.43938446044922 -11.91369533538818 62.03464126586914 -12.73517608642578 63.34154510498047 -12.73517608642578 C 64.64845275878906 -12.73517608642578 65.24369049072266 -11.91369533538818 65.24369049072266 -11.15044212341309 L 65.24369049072266 -10.86404228210449 L 66.24848937988281 -10.86404228210449 C 67.85218811035156 -10.86404228210449 68.73537445068359 -9.998641967773438 68.73537445068359 -8.427268981933594 L 68.73537445068359 -6.856855392456055 C 68.73537445068359 -6.500967979431152 68.64774322509766 -6.185506820678711 68.48802185058594 -5.925155639648438 C 68.70847320556641 -5.61735200881958 68.83560943603516 -5.219399452209473 68.83560943603516 -4.768535614013672 C 68.83560943603516 -3.714748859405518 68.14102935791016 -2.949908971786499 67.18405151367188 -2.949908971786499 L 65.51100158691406 -2.949908971786499 L 65.51100158691406 1.546557664871216 C 65.51100158691406 2.518157720565796 65.25338745117188 3.222824335098267 64.72342681884766 3.70082426071167 C 64.06085205078125 4.298450946807861 63.14069366455078 4.367570877075195 62.5062141418457 4.367570877075195 C 61.67982482910156 4.367570877075195 61.11531829833984 4.320477485656738 60.61862564086914 4.210104465484619 C 60.18444442749023 4.111428260803223 59.82754898071289 3.864341497421265 59.58981704711914 3.523855447769165 C 59.47100830078125 3.664676904678345 59.32953643798828 3.7913978099823 59.16827774047852 3.898904323577881 L 59.15942764282227 3.904797792434692 L 59.15045166015625 3.910517692565918 C 58.80080032348633 4.133010864257812 58.41873168945312 4.250624179840088 58.04555892944336 4.250624179840088 C 57.51918792724609 4.250624179840088 57.03597259521484 3.999290943145752 56.68490600585938 3.542904376983643 C 56.45066452026367 3.240341186523438 56.2000846862793 2.847663402557373 55.97067260742188 2.430733442306519 C 55.67893600463867 2.986889362335205 55.33495712280273 3.519613265991211 54.99168014526367 3.936450958251953 L 54.98982620239258 3.938691139221191 L 54.98797225952148 3.940931081771851 C 54.63814544677734 4.36070442199707 54.12675857543945 4.60146427154541 53.58490753173828 4.60146427154541 Z M 58.84555816650391 0.01164865307509899 C 59.02919006347656 0.3903480768203735 59.28516006469727 0.8151841759681702 59.60797882080078 1.277082800865173 C 59.91300201416016 0.8248237371444702 60.39822769165039 0.5465577244758606 60.95250701904297 0.5465577244758606 C 61.01035308837891 0.5465577244758606 61.13158416748047 0.5465559959411621 61.27785491943359 0.5819903016090393 C 61.4397087097168 0.6031165719032288 61.5916748046875 0.6226589679718018 61.74010467529297 0.6373136043548584 L 61.74010467529297 -2.949908971786499 L 59.76633453369141 -2.949908971786499 C 59.67388153076172 -2.949908971786499 59.58384704589844 -2.956906080245972 59.49662780761719 -2.970482349395752 L 59.49662780761719 -1.811468958854675 C 59.49662780761719 -1.004538774490356 59.28348159790039 -0.4071412086486816 58.84555816650391 0.01164865307509899 Z M 61.78286743164062 -6.587149143218994 L 65.10050964355469 -6.587149143218994 C 65.09893035888672 -6.615753173828125 65.09812927246094 -6.644456386566162 65.09812927246094 -6.67308235168457 L 65.09812927246094 -7.260202407836914 L 61.78542709350586 -7.260202407836914 L 61.78542709350586 -6.67308235168457 C 61.78542709350586 -6.64452600479126 61.78457260131836 -6.615824222564697 61.78286743164062 -6.587149143218994 Z M 43.61108016967773 4.284037590026855 C 41.89821243286133 4.284037590026855 40.55860137939453 3.955997705459595 39.62944030761719 3.309051036834717 C 38.65093231201172 2.627731084823608 38.13372039794922 1.613877654075623 38.13372039794922 0.3770910501480103 C 38.13372039794922 -0.1997726708650589 38.27187728881836 -0.8805220723152161 38.7036018371582 -1.599481582641602 C 38.62288665771484 -1.52708888053894 38.54050064086914 -1.452358245849609 38.45647811889648 -1.375282287597656 C 38.08977127075195 -1.039135575294495 37.64236068725586 -0.8615889549255371 37.16233444213867 -0.8615889549255371 C 36.10409164428711 -0.8615889549255371 35.21006774902344 -1.755628943443298 35.21006774902344 -2.813868999481201 C 35.21006774902344 -3.363020896911621 35.45568466186523 -3.879077911376953 35.90179443359375 -4.267598152160645 C 36.55681610107422 -4.847198009490967 37.22641372680664 -5.598748207092285 37.85945892333984 -6.458295822143555 L 37.27927780151367 -6.458295822143555 L 37.26261138916016 -6.458295822143555 L 37.2459602355957 -6.458855628967285 C 36.25989151000977 -6.491722106933594 35.5442008972168 -7.277402400970459 35.5442008972168 -8.327029228210449 C 35.5442008972168 -9.392389297485352 36.29730606079102 -10.19577598571777 37.29598617553711 -10.19577598571777 C 38.26653289794922 -10.19577598571777 39.16677856445312 -10.20980167388916 40.02956390380859 -10.23849105834961 C 40.18706512451172 -10.60884380340576 40.32371520996094 -10.97243213653564 40.43764114379883 -11.32458877563477 C 40.68930435180664 -12.11106872558594 41.37433242797852 -12.60152244567871 42.22442626953125 -12.60152244567871 C 42.6909065246582 -12.60152244567871 43.1698112487793 -12.43961524963379 43.53836059570312 -12.15733528137207 C 43.99711990356445 -11.80593585968018 44.26023864746094 -11.2927885055542 44.26023864746094 -10.74948215484619 C 44.26023864746094 -10.66828155517578 44.25501251220703 -10.58707809448242 44.24460983276367 -10.50618648529053 C 44.86732482910156 -10.57054042816162 45.43319320678711 -10.63814830780029 45.95239639282227 -10.71009922027588 C 46.10151672363281 -10.74709510803223 46.22544860839844 -10.74709606170654 46.28413391113281 -10.74709606170654 C 47.257080078125 -10.74709606170654 48.01921463012695 -9.918909072875977 48.01921463012695 -8.861641883850098 C 48.01921463012695 -7.935815811157227 47.41878509521484 -7.193135738372803 46.55907821655273 -7.055575847625732 L 46.55654525756836 -7.05517578125 L 46.55402755737305 -7.054775714874268 C 45.92493057250977 -6.957416534423828 45.2667350769043 -6.871559619903564 44.59324645996094 -6.798596858978271 C 44.99814987182617 -6.542696952819824 45.33472061157227 -6.195725917816162 45.59480667114258 -5.763797283172607 C 46.52062225341797 -6.071179866790771 47.50521850585938 -6.363868713378906 48.5332145690918 -6.63712215423584 L 48.56338500976562 -6.645135402679443 L 48.59398651123047 -6.65126895904541 C 48.70546722412109 -6.673562526702881 48.85815811157227 -6.704095840454102 49.04071807861328 -6.704095840454102 C 49.58769226074219 -6.704095840454102 50.09877395629883 -6.449522495269775 50.44289398193359 -6.005655765533447 C 50.72221374511719 -5.645375728607178 50.87604141235352 -5.188229084014893 50.87604141235352 -4.7184157371521 C 50.87604141235352 -3.827002286911011 50.31318664550781 -3.082162380218506 49.47546768188477 -2.864962339401245 L 49.3544807434082 -2.833282232284546 C 48.3021354675293 -2.55773138999939 47.29623031616211 -2.294337272644043 46.33208465576172 -1.999194264411926 C 46.36053085327148 -1.445581674575806 46.36526489257812 -0.9884805679321289 46.36526489257812 -0.6252956390380859 C 46.36526489257812 -0.3386361598968506 46.29824447631836 -0.06920042634010315 46.1777229309082 0.1703551113605499 C 46.57642364501953 0.09868492931127548 46.98246002197266 0.0112369479611516 47.39482498168945 -0.09185563027858734 L 47.41790771484375 -0.09762896597385406 L 47.44123840332031 -0.1022956296801567 C 47.62146759033203 -0.1383356302976608 47.76871871948242 -0.1551222950220108 47.90466690063477 -0.1551222950220108 C 48.97129440307617 -0.1551222950220108 49.80682754516602 0.7317710518836975 49.80682754516602 1.863984346389771 C 49.80682754516602 2.826489448547363 49.17538070678711 3.607785940170288 48.23494338989258 3.809954166412354 C 46.77388000488281 4.137810707092285 45.3475456237793 4.284037590026855 43.61108016967773 4.284037590026855 Z M 42.12210464477539 0.1966562271118164 C 42.18703460693359 0.2351819425821304 42.36914825439453 0.3184341490268707 42.78857803344727 0.3696641325950623 C 42.65253448486328 0.1490013003349304 42.56720352172852 -0.1031020358204842 42.53837585449219 -0.371720016002655 C 42.27522659301758 -0.1630894392728806 42.12959671020508 0.03154649585485458 42.12210464477539 0.1966562271118164 Z M 95.13416290283203 4.150384426116943 C 93.81185150146484 4.150384426116943 92.66805267333984 3.802611112594604 91.826416015625 3.144650936126709 C 90.93366241455078 2.446744441986084 90.44200134277344 1.440131068229675 90.44200134277344 0.310264378786087 C 90.44200134277344 0.01391269918531179 90.48491668701172 -0.2803872525691986 90.56693267822266 -0.5637205243110657 C 90.28753662109375 -0.4078692197799683 89.97838592529297 -0.3269756436347961 89.65439605712891 -0.3269756436347961 C 88.59659576416016 -0.3269756436347961 87.66870880126953 -1.28609561920166 87.66870880126953 -2.379495620727539 C 87.66870880126953 -2.991855621337891 87.95454406738281 -3.557455539703369 88.45294952392578 -3.931268930435181 C 90.03398132324219 -5.105077743530273 91.510986328125 -6.344231128692627 92.77233123779297 -7.548604488372803 C 92.32681274414062 -7.524418354034424 91.86595916748047 -7.505624294281006 91.38172149658203 -7.494362354278564 C 91.36405944824219 -7.493901252746582 91.34663391113281 -7.493669033050537 91.32923889160156 -7.493669033050537 C 90.28054809570312 -7.493669033050537 89.48973083496094 -8.333148956298828 89.48973083496094 -9.446375846862793 C 89.48973083496094 -10.52752208709717 90.25096130371094 -11.36660194396973 91.26039886474609 -11.39814853668213 C 93.31686401367188 -11.45581531524658 95.14804077148438 -11.54788208007812 96.86177062988281 -11.67970943450928 L 96.90006256103516 -11.68265533447266 L 96.93846893310547 -11.68265533447266 L 97.03870391845703 -11.68265533447266 C 98.22574615478516 -11.68265533447266 99.19146728515625 -10.7319221496582 99.19146728515625 -9.563322067260742 C 99.19146728515625 -8.926815986633301 98.90325164794922 -8.301789283752441 98.37992095947266 -7.803375720977783 L 97.41425323486328 -6.879917621612549 C 100.1971435546875 -6.632011413574219 102.2320556640625 -4.54326868057251 102.2320556640625 -1.828175663948059 C 102.2320556640625 -0.1375622898340225 101.5318145751953 1.390517711639404 100.2603225708008 2.474584341049194 C 98.97444915771484 3.57090425491333 97.20185089111328 4.150384426116943 95.13416290283203 4.150384426116943 Z M 94.65020751953125 -2.956009864807129 C 95.44158172607422 -2.855613946914673 96.14543151855469 -2.562869071960449 96.74913024902344 -2.082028865814209 C 97.22267913818359 -1.704854488372803 97.62505340576172 -1.216345191001892 97.95252990722656 -0.6222803592681885 C 98.17020416259766 -0.9258062243461609 98.27738952636719 -1.309349417686462 98.27738952636719 -1.778055667877197 C 98.27738952636719 -2.62886905670166 97.56475830078125 -3.200509071350098 96.50408935546875 -3.200509071350098 C 95.85482025146484 -3.200509071350098 95.23940277099609 -3.119747161865234 94.65020751953125 -2.956009864807129 Z M 80.18177032470703 4.116971015930176 C 79.21514892578125 4.116971015930176 78.40898132324219 3.39899754524231 78.24376678466797 2.455789566040039 C 77.98799896240234 2.578008890151978 77.70447540283203 2.646797657012939 77.40847778320312 2.646797657012939 C 76.86650848388672 2.646797657012939 76.36917877197266 2.407263040542603 76.02020263671875 1.983898639678955 C 75.22662353515625 2.541006803512573 74.39688110351562 2.797157764434814 73.43230438232422 2.797157764434814 C 72.31382751464844 2.797157764434814 71.35810852050781 2.412717819213867 70.66846466064453 1.685384392738342 C 69.97529602050781 0.9543576836585999 69.60890960693359 -0.07574896514415741 69.60890960693359 -1.293562293052673 C 69.60890960693359 -3.411008596420288 70.58834838867188 -5.447223663330078 72.31725311279297 -6.965534210205078 C 72.16481781005859 -7.793069839477539 72.05838012695312 -8.659070014953613 72.00009155273438 -9.548015594482422 L 71.99794769287109 -9.580696105957031 L 71.99794769287109 -9.613442420959473 L 71.99794769287109 -9.680269241333008 C 71.99794769287109 -10.71878910064697 72.84814453125 -11.53229522705078 73.93350982666016 -11.53229522705078 C 74.94879913330078 -11.53229522705078 75.70266723632812 -10.83841609954834 75.76676177978516 -9.844895362854004 C 75.78871917724609 -9.522892951965332 75.81623840332031 -9.21248722076416 75.84964752197266 -8.911019325256348 C 76.42632293701172 -9.078450202941895 77.04383087158203 -9.197137832641602 77.69864654541016 -9.266281127929688 C 77.75046539306641 -9.630642890930176 77.79848480224609 -10.02143001556396 77.85082244873047 -10.47116279602051 C 77.94879150390625 -11.45071792602539 78.7337646484375 -12.13373565673828 79.76410675048828 -12.13373565673828 C 80.87757110595703 -12.13373565673828 81.74980163574219 -11.32756233215332 81.74980163574219 -10.29840183258057 L 81.74980163574219 -10.18146896362305 L 81.74980163574219 -10.12072277069092 L 81.74243927001953 -10.06041526794434 C 81.69557189941406 -9.676066398620605 81.639404296875 -9.306090354919434 81.57810211181641 -8.941010475158691 C 84.26576995849609 -8.04407787322998 86.00997161865234 -5.743052959442139 86.00997161865234 -2.964215517044067 C 86.00997161865234 -1.365562319755554 85.52545166015625 0.1245977059006691 84.60880279541016 1.345157742500305 C 83.71298980712891 2.537957429885864 82.42022705078125 3.450741529464722 80.86890411376953 3.986242771148682 C 80.65203094482422 4.073010444641113 80.42111206054688 4.116971015930176 80.18177032470703 4.116971015930176 Z M 78.93103790283203 -0.6777676343917847 C 79.17810821533203 -0.3826748728752136 79.33348846435547 -0.0403844453394413 79.38847351074219 0.3256746232509613 C 79.43867492675781 0.3024492263793945 79.49026489257812 0.2807599604129791 79.54310607910156 0.2607176899909973 C 81.22319793701172 -0.3710022866725922 82.03859710693359 -1.420095682144165 82.03859710693359 -2.947509050369263 C 82.03859710693359 -3.523255586624146 81.83904266357422 -4.089775562286377 81.47669219970703 -4.542708873748779 C 81.26570892333984 -4.806443214416504 81.00450897216797 -5.028443813323975 80.70249176025391 -5.203020095825195 C 80.15969085693359 -3.48400354385376 79.52040100097656 -2.092820405960083 78.73604583740234 -0.9229276776313782 C 78.80424499511719 -0.8349635601043701 78.8704833984375 -0.7523544430732727 78.93103790283203 -0.6777676343917847 Z M 73.62760162353516 -2.361961603164673 C 73.53030395507812 -2.039446353912354 73.48004150390625 -1.708661794662476 73.48004150390625 -1.377095580101013 C 73.48004150390625 -1.236810445785522 73.49864959716797 -1.14407205581665 73.51580047607422 -1.091365098953247 C 73.67292785644531 -1.095102190971375 73.84394073486328 -1.119688034057617 74.08946990966797 -1.281417727470398 C 73.92659759521484 -1.637063026428223 73.7725830078125 -1.997406721115112 73.62760162353516 -2.361961603164673 Z M 25.73503875732422 3.983317613601685 C 24.01493263244629 3.983317613601685 22.80385208129883 3.687731027603149 21.9237060546875 3.053077697753906 C 21.00246620178223 2.388811111450195 20.4812126159668 1.378837704658508 20.33017349243164 -0.03454896435141563 C 20.24529266357422 -0.849362313747406 20.20755958557129 -1.870589017868042 20.20755958557129 -3.348469018936157 L 20.20755958557129 -3.946836471557617 C 19.79036903381348 -3.911003351211548 19.37537574768066 -3.874979734420776 18.97387886047363 -3.839295625686646 L 18.92970657348633 -3.835362195968628 L 18.88534545898438 -3.835362195968628 L 18.81851959228516 -3.835362195968628 C 17.77062606811523 -3.835362195968628 16.94977378845215 -4.692895412445068 16.94977378845215 -5.787629127502441 C 16.94977378845215 -6.832136631011963 17.66906547546387 -7.636255741119385 18.66168594360352 -7.703835010528564 C 18.9062328338623 -7.723835468292236 19.15227890014648 -7.745319366455078 19.39983940124512 -7.766922473907471 C 19.68148422241211 -7.791511535644531 19.96784019470215 -7.816512107849121 20.25764083862305 -7.839813232421875 C 20.27019500732422 -8.49668025970459 20.28530311584473 -9.165790557861328 20.30814170837402 -9.840950012207031 C 20.33024787902832 -10.84371566772461 21.16735649108887 -11.57033538818359 22.30303955078125 -11.57033538818359 C 22.91075897216797 -11.57033538818359 23.47611999511719 -11.35012245178223 23.85413360595703 -10.96614933013916 C 24.17853355407715 -10.63664245605469 24.35317230224609 -10.19816207885742 24.34587860107422 -9.73146915435791 L 24.34570693969727 -9.720775604248047 L 24.3453197479248 -9.710082054138184 C 24.32570457458496 -9.180568695068359 24.30608749389648 -8.650973320007324 24.28647613525391 -8.124835014343262 C 25.13761901855469 -8.176667213439941 25.98637580871582 -8.224691390991211 26.82336044311523 -8.271059989929199 L 26.82336044311523 -8.327029228210449 L 26.82336044311523 -10.29840183258057 C 26.82336044311523 -11.33518886566162 27.66983985900879 -12.11702919006348 28.7923469543457 -12.11702919006348 C 29.92437362670898 -12.11702919006348 30.77802658081055 -11.32800197601318 30.77802658081055 -10.28169536590576 L 30.77802658081055 -8.462992668151855 C 31.29671096801758 -8.482651710510254 31.83271980285645 -8.503446578979492 32.34346771240234 -8.524295806884766 L 32.36385345458984 -8.52512264251709 L 32.38425445556641 -8.52512264251709 L 32.43437194824219 -8.52512264251709 C 33.45415878295898 -8.52512264251709 34.25299835205078 -7.682255744934082 34.25299835205078 -6.606255531311035 C 34.25299835205078 -5.517639636993408 33.50266265869141 -4.704424858093262 32.46829605102539 -4.671249389648438 C 31.92109489440918 -4.649787425994873 31.33806228637695 -4.627723217010498 30.70342826843262 -4.60446310043335 C 30.68751525878906 -4.238459587097168 30.66990661621094 -3.884361267089844 30.64167404174805 -3.525548696517944 C 30.55732345581055 -2.304500579833984 30.20251846313477 -1.423816204071045 29.55706596374512 -0.8334289789199829 C 29.16827774047852 -0.4778012931346893 28.68540382385254 -0.2394206970930099 28.09572601318359 -0.1141928434371948 C 28.72898292541504 -0.1925229579210281 29.31911659240723 -0.3019096255302429 29.84029197692871 -0.4394423067569733 L 29.88522529602051 -0.4513089656829834 L 29.93105316162109 -0.4589489698410034 L 29.96993255615234 -0.4655356407165527 C 30.07538604736328 -0.4835489690303802 30.20661354064941 -0.5059623122215271 30.36275863647461 -0.5059623122215271 C 31.41065216064453 -0.5059623122215271 32.23150634765625 0.3809310495853424 32.23150634765625 1.513144373893738 C 32.23150634765625 2.477240324020386 31.61870193481445 3.264031648635864 30.70588684082031 3.472919225692749 C 29.24120903015137 3.821145057678223 27.66153907775879 3.983317613601685 25.73503875732422 3.983317613601685 Z M 24.28735160827637 -0.8892945647239685 C 24.29756355285645 -0.7717185616493225 24.3088321685791 -0.6649619936943054 24.3211727142334 -0.5687089562416077 L 24.32201194763184 -0.5621222853660583 L 24.32277297973633 -0.555535614490509 C 24.35865211486816 -0.2428556233644485 24.43877220153809 -0.1907889693975449 24.48182678222656 -0.1628289669752121 C 24.59187889099121 -0.09132229536771774 24.89454650878906 0.02865103632211685 25.6849193572998 0.02865103632211685 C 26.11450958251953 0.02865103632211685 26.53953170776367 0.01563509367406368 26.95377922058105 -0.009709666483104229 C 26.34616088867188 -0.01354580000042915 25.80249404907227 -0.08629531413316727 25.29325294494629 -0.231802299618721 L 25.28691864013672 -0.233602300286293 L 25.28062629699707 -0.2354956269264221 C 24.873291015625 -0.3576978743076324 24.53347396850586 -0.5872780084609985 24.28735160827637 -0.8892945647239685 Z M 24.21405220031738 -4.240762233734131 C 24.21234703063965 -3.972682476043701 24.21234703063965 -3.708628416061401 24.21234703063965 -3.448709011077881 C 24.21234703063965 -3.408833980560303 24.21237754821777 -3.369302272796631 24.21243667602539 -3.330148935317993 C 24.54718780517578 -3.809417247772217 25.08468055725098 -4.114575862884521 25.70162582397461 -4.114575862884521 C 25.85777282714844 -4.114575862884521 25.98900032043457 -4.092162132263184 26.09445381164551 -4.074149131774902 L 26.13333320617676 -4.067562103271484 L 26.18919944763184 -4.058242321014404 L 26.24365234375 -4.04268217086792 C 26.40583419799805 -3.99634861946106 26.56668663024902 -3.967242479324341 26.73101806640625 -3.954688549041748 C 26.74006843566895 -4.096793174743652 26.74925422668457 -4.245787620544434 26.75809097290039 -4.399765491485596 C 25.91641235351562 -4.345172882080078 25.06314849853516 -4.290819644927979 24.21405220031738 -4.240762233734131 Z" stroke="none"/>
      <path d="M 8.076183319091797 3.701708078384399 C 8.644211769104004 3.701708078384399 8.978340148925781 3.467808246612549 8.978340148925781 3.050151109695435 L 8.978340148925781 0.8615795969963074 L 14.10725498199463 0.8615795969963074 C 14.50821208953857 0.8615795969963074 14.72539806365967 0.5608653426170349 14.72539806365967 0.07637960463762283 C 14.72539806365967 -0.4081203937530518 14.50821208953857 -0.7255346775054932 14.10725498199463 -0.7255346775054932 L 8.978340148925781 -0.7255346775054932 L 8.978340148925781 -2.062063217163086 L 14.87576866149902 -2.062063217163086 C 15.24331188201904 -2.062063217163086 15.49391174316406 -2.346077442169189 15.49391174316406 -2.863977432250977 C 15.49391174316406 -3.38189172744751 15.24331188201904 -3.649191856384277 14.87576866149902 -3.649191856384277 L 11.33396911621094 -3.649191856384277 C 11.73492622375488 -4.350863456726074 12.13588333129883 -5.069249153137207 12.41989803314209 -5.821048736572266 L 15.00941181182861 -5.821048736572266 C 15.41036891937256 -5.821048736572266 15.64426898956299 -6.121763229370117 15.64426898956299 -6.60624885559082 C 15.64426898956299 -7.107449054718018 15.41036891937256 -7.408177375793457 15.00941181182861 -7.408177375793457 L 8.961640357971191 -7.408177375793457 L 8.961640357971191 -8.727992057800293 L 13.85666942596436 -8.727992057800293 C 14.24091148376465 -8.727992057800293 14.47481155395508 -9.028706550598145 14.47481155395508 -9.496491432189941 C 14.47481155395508 -9.980978012084961 14.24091148376465 -10.29840564727783 13.85666942596436 -10.29840564727783 L 8.961640357971191 -10.29840564727783 L 8.961640357971191 -11.18386363983154 C 8.961640357971191 -11.56810569763184 8.627497673034668 -11.80200576782227 8.076183319091797 -11.80200576782227 C 7.508169174194336 -11.80200576782227 7.157326221466064 -11.56810569763184 7.157326221466064 -11.18386363983154 L 7.157326221466064 -10.29840564727783 L 2.529597759246826 -10.29840564727783 C 2.128654718399048 -10.29840564727783 1.894754767417908 -9.980978012084961 1.894754767417908 -9.496491432189941 C 1.894754767417908 -9.028706550598145 2.128654718399048 -8.727992057800293 2.529597759246826 -8.727992057800293 L 7.157326221466064 -8.727992057800293 L 7.157326221466064 -7.408177375793457 L 1.376854777336121 -7.408177375793457 C 0.9758976697921753 -7.408177375793457 0.7419976592063904 -7.107449054718018 0.7419976592063904 -6.60624885559082 C 0.7419976592063904 -6.121763229370117 0.9758976697921753 -5.821048736572266 1.376854777336121 -5.821048736572266 L 3.782597541809082 -5.821048736572266 C 4.133440494537354 -5.102663040161133 4.467568874359131 -4.38427734375 4.768283367156982 -3.649191856384277 L 1.510497689247131 -3.649191856384277 C 1.14295482635498 -3.649191856384277 0.9090690612792969 -3.38189172744751 0.9090690612792969 -2.863977432250977 C 0.9090690612792969 -2.346077442169189 1.14295482635498 -2.062063217163086 1.510497689247131 -2.062063217163086 L 7.174026012420654 -2.062063217163086 L 7.174026012420654 -0.7255346775054932 L 2.295711994171143 -0.7255346775054932 C 1.894754767417908 -0.7255346775054932 1.677569031715393 -0.4081203937530518 1.677569031715393 0.07637960463762283 C 1.677569031715393 0.5608653426170349 1.894754767417908 0.8615795969963074 2.295711994171143 0.8615795969963074 L 7.174026012420654 0.8615795969963074 L 7.174026012420654 3.050151109695435 C 7.174026012420654 3.467808246612549 7.508169174194336 3.701708078384399 8.076183319091797 3.701708078384399 M 5.620326042175293 -5.821048736572266 L 10.53205490112305 -5.821048736572266 C 10.19792652130127 -5.085963249206543 9.880497932434082 -4.350863456726074 9.479540824890137 -3.649191856384277 L 6.522483348846436 -3.649191856384277 C 6.3052978515625 -4.400991916656494 5.971154689788818 -5.136077404022217 5.620326042175293 -5.821048736572266 M 53.58489608764648 3.601465225219727 C 53.81879806518555 3.601465225219727 54.05268478393555 3.501222372055054 54.21975326538086 3.300750970840454 C 54.68754196166992 2.732722520828247 55.18872451782227 1.863979578018188 55.48945617675781 1.078765273094177 C 55.53956985473633 0.9618224501609802 55.55627059936523 0.8448796272277832 55.55627059936523 0.7446367740631104 C 55.55627059936523 0.4439224600791931 55.35579681396484 0.2267367541790009 54.98825454711914 0.09307960420846939 C 54.87131118774414 0.04296532273292542 54.72093963623047 0.009551036171615124 54.58729934692383 0.009551036171615124 C 54.33669662475586 0.009551036171615124 54.08609771728516 0.1264938861131668 53.95244216918945 0.3937938809394836 C 53.66844177246094 1.078765273094177 53.25077056884766 1.763736724853516 52.83309936523438 2.298351049423218 C 52.71615600585938 2.448708295822144 52.66604232788086 2.615779638290405 52.66604232788086 2.766136646270752 C 52.66604232788086 3.000022411346436 52.76628494262695 3.21720814704895 53.00016784667969 3.384279489517212 C 53.16724014282227 3.534636735916138 53.3844108581543 3.601465225219727 53.58489608764648 3.601465225219727 M 62.50621032714844 3.367565393447876 C 63.95968246459961 3.367565393447876 64.51099395751953 2.883079528808594 64.51099395751953 1.546550989151001 L 64.51099395751953 -3.94990611076355 L 67.18405151367188 -3.94990611076355 C 67.58501434326172 -3.94990611076355 67.83560943603516 -4.267334461212158 67.83560943603516 -4.768534660339355 C 67.83560943603516 -5.269734859466553 67.58501434326172 -5.587149143218994 67.18405151367188 -5.587149143218994 L 59.76632690429688 -5.587149143218994 C 59.34867095947266 -5.587149143218994 59.09806823730469 -5.269734859466553 59.09806823730469 -4.768534660339355 C 59.09806823730469 -4.267334461212158 59.34867095947266 -3.94990611076355 59.76632690429688 -3.94990611076355 L 62.74009704589844 -3.94990611076355 L 62.74009704589844 1.095479607582092 C 62.74009704589844 1.579965353012085 62.62315368652344 1.663493871688843 62.22219848632812 1.663493871688843 C 61.82123947143555 1.663493871688843 61.45369720458984 1.613379597663879 61.06943893432617 1.563265323638916 C 61.03604125976562 1.546550989151001 60.98591232299805 1.546550989151001 60.95249938964844 1.546550989151001 C 60.63507080078125 1.546550989151001 60.35107040405273 1.7971510887146 60.28424072265625 2.248236656188965 C 60.26752471923828 2.315051078796387 60.26752471923828 2.398593902587891 60.26752471923828 2.465408086776733 C 60.26752471923828 2.849665403366089 60.46801376342773 3.150379657745361 60.83555603027344 3.233922481536865 C 61.28662490844727 3.334151029586792 61.80453872680664 3.367565393447876 62.50621032714844 3.367565393447876 M 43.61106872558594 3.284036636352539 C 45.1647834777832 3.284036636352539 46.53472518920898 3.167093992233276 48.02161026000977 2.83296537399292 C 48.57292556762695 2.716008186340332 48.80682754516602 2.281636714935303 48.80682754516602 1.863979578018188 C 48.80682754516602 1.346079587936401 48.47269821166992 0.8448796272277832 47.90467071533203 0.8448796272277832 C 47.82112503051758 0.8448796272277832 47.72089767456055 0.8615795969963074 47.63735580444336 0.8782938718795776 C 46.36765289306641 1.195722460746765 44.99772644042969 1.41290819644928 43.61106872558594 1.41290819644928 C 41.77335357666016 1.41290819644928 41.12179946899414 0.9618224501609802 41.12179946899414 0.2100224643945694 C 41.12179946899414 -0.4749489724636078 41.60628509521484 -1.226734638214111 43.49412536621094 -2.045363187789917 C 43.52754211425781 -1.544163227081299 43.52754211425781 -1.059677481651306 43.52754211425781 -0.5918918251991272 C 43.51947784423828 -0.04334762692451477 43.94770050048828 0.2130822837352753 44.39272308349609 0.2130822837352753 C 44.86935806274414 0.2130822837352753 45.36526870727539 -0.08099742233753204 45.36526870727539 -0.6253061294555664 C 45.36526870727539 -1.260149002075195 45.34855651855469 -1.91170608997345 45.28174209594727 -2.71362042427063 C 46.53472518920898 -3.13129186630249 47.82112503051758 -3.465420484542847 49.22448348999023 -3.832963228225708 C 49.67556762695312 -3.94990611076355 49.87604141235352 -4.334163188934326 49.87604141235352 -4.718406200408936 C 49.87604141235352 -5.202906131744385 49.55861282348633 -5.704106330871582 49.04071044921875 -5.704106330871582 C 48.95718383789062 -5.704106330871582 48.87364196777344 -5.687391757965088 48.79011154174805 -5.670691967010498 C 47.47029876708984 -5.319849014282227 46.2172966003418 -4.935591697692871 45.0478401184082 -4.517934799194336 C 44.71371078491211 -5.687391757965088 43.91179656982422 -6.322248935699463 42.60868453979492 -6.322248935699463 C 41.97382736206055 -6.322248935699463 41.28885650634766 -6.171877384185791 40.57048416137695 -5.78763484954834 L 40.52035522460938 -5.837749004364014 C 40.95472717285156 -6.355663299560547 41.37239837646484 -6.957091808319092 41.75664138793945 -7.575234889984131 C 43.37718200683594 -7.658763408660889 44.99772644042969 -7.82583475112915 46.40106964111328 -8.043020248413086 C 46.81874084472656 -8.109848976135254 47.01921081542969 -8.494091987609863 47.01921081542969 -8.861648559570312 C 47.01921081542969 -9.2960205078125 46.75191116333008 -9.747092247009277 46.28412628173828 -9.747092247009277 C 46.25071334838867 -9.747092247009277 46.20059585571289 -9.747092247009277 46.16718292236328 -9.730377197265625 C 45.09795379638672 -9.580019950866699 43.94521331787109 -9.463077545166016 42.74232482910156 -9.362834930419922 C 42.92611312866211 -9.730377197265625 43.07646942138672 -10.09793472290039 43.21011352539062 -10.44876289367676 C 43.24352645874023 -10.54900646209717 43.26023864746094 -10.64924907684326 43.26023864746094 -10.74949169158936 C 43.26023864746094 -11.25067710876465 42.72562789916992 -11.60152053833008 42.22442626953125 -11.60152053833008 C 41.85688400268555 -11.60152053833008 41.52275466918945 -11.43444919586182 41.38909912109375 -11.01679229736328 C 41.20532608032227 -10.44876289367676 40.97143936157227 -9.864034652709961 40.68742752075195 -9.262605667114258 C 39.50125503540039 -9.212477684020996 38.3484992980957 -9.195777893066406 37.29598236083984 -9.195777893066406 C 36.79479598999023 -9.195777893066406 36.54419708251953 -8.761405944824219 36.54419708251953 -8.327034950256348 C 36.54419708251953 -7.892663478851318 36.77808380126953 -7.474991798400879 37.27928161621094 -7.458292007446289 C 37.49646759033203 -7.458292007446289 37.73036956787109 -7.458292007446289 37.96425628662109 -7.458292007446289 C 38.53228378295898 -7.458292007446289 39.13371276855469 -7.458292007446289 39.73514175415039 -7.474991798400879 C 38.8329963684082 -5.971405982971191 37.71365356445312 -4.534634590148926 36.56089782714844 -3.515534639358521 C 36.31029891967773 -3.298348903656006 36.21005630493164 -3.047749042510986 36.21005630493164 -2.813863277435303 C 36.21005630493164 -2.312663316726685 36.66114044189453 -1.861591815948486 37.1623420715332 -1.861591815948486 C 37.36281204223633 -1.861591815948486 37.57999801635742 -1.928420424461365 37.78048324584961 -2.112191915512085 C 39.80196762084961 -3.966620445251465 41.23873901367188 -4.818648815155029 42.24114227294922 -4.818648815155029 C 42.89268493652344 -4.818648815155029 43.19341278076172 -4.56804895401001 43.34376907348633 -3.866377592086792 C 40.28646850585938 -2.563263177871704 39.13371276855469 -1.026263236999512 39.13371276855469 0.3770938813686371 C 39.13371276855469 2.131279706954956 40.48694229125977 3.284036636352539 43.61106872558594 3.284036636352539 M 58.04555511474609 3.250622510910034 C 58.22932434082031 3.250622510910034 58.42981338500977 3.183793783187866 58.61358261108398 3.066851139068604 C 58.86418151855469 2.899779558181763 59.01454162597656 2.649194002151489 59.01454162597656 2.398593902587891 C 59.01454162597656 2.248236656188965 58.96442794799805 2.114579677581787 58.88088226318359 1.98092246055603 C 58.5467529296875 1.513136744499207 58.1792106628418 0.9451224803924561 57.91189575195312 0.3770938813686371 C 57.77825546264648 0.1097938939929008 57.54435348510742 -0.02386325038969517 57.26034164428711 -0.02386325038969517 C 57.1266975402832 -0.02386325038969517 56.9930419921875 0.009551036171615124 56.84268188476562 0.05966532230377197 C 56.5085563659668 0.1933224648237228 56.34148406982422 0.4105081856250763 56.34148406982422 0.6945224404335022 C 56.34148406982422 0.7947510480880737 56.35818481445312 0.9117081761360168 56.4083137512207 1.045351028442383 C 56.65891265869141 1.646793842315674 57.07658386230469 2.41529393196106 57.4775276184082 2.933193922042847 C 57.64459609985352 3.150379657745361 57.84508514404297 3.250622510910034 58.04555511474609 3.250622510910034 M 95.1341552734375 3.150379657745361 C 98.94326782226562 3.150379657745361 101.2320556640625 0.9785367250442505 101.2320556640625 -1.828177571296692 C 101.2320556640625 -4.217220306396484 99.3275146484375 -5.904577732086182 96.85494232177734 -5.904577732086182 C 96.10314178466797 -5.904577732086182 95.36805725097656 -5.80433464050293 94.68308258056641 -5.55373477935791 L 94.63297271728516 -5.60386323928833 L 97.69026947021484 -8.527505874633789 C 98.04109954833984 -8.861648559570312 98.19146728515625 -9.229191780090332 98.19146728515625 -9.563320159912109 C 98.19146728515625 -10.16474914550781 97.70697021484375 -10.68266296386719 97.03871154785156 -10.68266296386719 C 97.00529479980469 -10.68266296386719 96.97188568115234 -10.68266296386719 96.93846893310547 -10.68266296386719 C 94.98379516601562 -10.53230571746826 93.07925415039062 -10.44876289367676 91.29164123535156 -10.39864921569824 C 90.75704193115234 -10.38193511962891 90.48972320556641 -9.914163589477539 90.48972320556641 -9.446377754211426 C 90.48972320556641 -8.970039367675781 90.76432800292969 -8.493672370910645 91.32925415039062 -8.493672370910645 C 91.33892822265625 -8.493672370910645 91.34861755371094 -8.493810653686523 91.35846710205078 -8.494091987609863 C 92.79524230957031 -8.527505874633789 94.01482391357422 -8.627748489379883 95.31792449951172 -8.744691848754883 C 93.59715270996094 -6.79002046585083 91.25823974609375 -4.768534660339355 89.05297088623047 -3.13129186630249 C 88.78565216064453 -2.930806159973145 88.66870880126953 -2.646791934967041 88.66870880126953 -2.379491806030273 C 88.66870880126953 -1.861591815948486 89.11979675292969 -1.326977491378784 89.65439605712891 -1.326977491378784 C 89.85486602783203 -1.326977491378784 90.07206726074219 -1.393806099891663 90.27253723144531 -1.577577590942383 C 90.75704193115234 -1.945120334625244 91.50882720947266 -2.479734659194946 92.29403686523438 -2.980934619903564 C 93.58043670654297 -3.799548864364624 94.96709442138672 -4.200506210327148 96.50409698486328 -4.200506210327148 C 98.15805816650391 -4.200506210327148 99.27739715576172 -3.164705991744995 99.27739715576172 -1.778048992156982 C 99.27739715576172 -0.4081203937530518 98.57571411132812 0.4773367643356323 97.52320098876953 0.9117081761360168 C 96.87164306640625 -1.109791874885559 95.61863708496094 -1.995234727859497 94.01482391357422 -1.995234727859497 C 92.42769622802734 -1.995234727859497 91.44200134277344 -0.8759061098098755 91.44200134277344 0.3102653324604034 C 91.44200134277344 1.98092246055603 92.87876892089844 3.150379657745361 95.1341552734375 3.150379657745361 M 94.01482391357422 -0.4415346682071686 C 94.80002593994141 -0.4415346682071686 95.45158386230469 0.2100224643945694 95.76901245117188 1.379493951797485 C 95.56852722167969 1.41290819644928 95.2510986328125 1.446308135986328 94.93368530273438 1.446308135986328 C 93.81432342529297 1.446308135986328 93.12937164306641 0.9618224501609802 93.12937164306641 0.3269796073436737 C 93.12937164306641 -0.09069181978702545 93.41338348388672 -0.4415346682071686 94.01482391357422 -0.4415346682071686 M 80.18177032470703 3.116965293884277 C 80.28201293945312 3.116965293884277 80.39895629882812 3.100265264511108 80.51589965820312 3.050151109695435 C 83.30590057373047 2.097865343093872 85.00997161865234 -0.14080610871315 85.00997161865234 -2.964220285415649 C 85.00997161865234 -5.42009162902832 83.33930969238281 -7.642063140869141 80.43236541748047 -8.210091590881348 C 80.54930877685547 -8.844934463500977 80.66625213623047 -9.496491432189941 80.74979400634766 -10.18146324157715 C 80.74979400634766 -10.23157787322998 80.74979400634766 -10.26499176025391 80.74979400634766 -10.29840564727783 C 80.74979400634766 -10.83302021026611 80.24859619140625 -11.13373470306396 79.76411437988281 -11.13373470306396 C 79.32974243164062 -11.13373470306396 78.89537048339844 -10.89984893798828 78.84523773193359 -10.365234375 C 78.76171112060547 -9.646848678588867 78.67818450927734 -8.978591918945312 78.56124114990234 -8.327034950256348 C 77.35835266113281 -8.276920318603516 76.13878631591797 -8.059720039367676 75.03614044189453 -7.541820526123047 C 74.90248107910156 -8.293620109558105 74.81895446777344 -9.04542064666748 74.76883697509766 -9.780506134033203 C 74.73542785644531 -10.29840564727783 74.35116577148438 -10.53230571746826 73.93350982666016 -10.53230571746826 C 73.48242950439453 -10.53230571746826 72.99794006347656 -10.23157787322998 72.99794006347656 -9.680263519287109 C 72.99794006347656 -9.663562774658203 72.99794006347656 -9.630148887634277 72.99794006347656 -9.613434791564941 C 73.06476593017578 -8.594334602355957 73.19842529296875 -7.575234889984131 73.41559600830078 -6.572834491729736 C 71.66141510009766 -5.236320495605469 70.60889434814453 -3.315063238143921 70.60889434814453 -1.29356324672699 C 70.60889434814453 0.6945224404335022 71.76165771484375 1.7971510887146 73.43231201171875 1.7971510887146 C 74.35116577148438 1.7971510887146 75.20320892333984 1.529851078987122 76.20561218261719 0.5107510089874268 C 76.37266540527344 0.7780510187149048 76.55644226074219 1.045351028442383 76.74021148681641 1.279250979423523 C 76.92398071289062 1.546550989151001 77.17458343505859 1.646793842315674 77.40848541259766 1.646793842315674 C 77.92638397216797 1.646793842315674 78.41086578369141 1.17900812625885 78.41086578369141 0.6276938915252686 C 78.41086578369141 0.4105081856250763 78.34405517578125 0.1766081750392914 78.16028594970703 -0.04057753458619118 C 77.94309997558594 -0.3078775405883789 77.70919799804688 -0.6085917949676514 77.50871276855469 -0.9260203838348389 C 78.76171112060547 -2.563263177871704 79.51351165771484 -4.56804895401001 80.04812622070312 -6.522720336914062 C 81.95266723632812 -6.071649074554443 83.03859710693359 -4.55134916305542 83.03859710693359 -2.94752049446106 C 83.03859710693359 -1.009549021720886 81.986083984375 0.4105081856250763 79.89775848388672 1.195722460746765 C 79.41326904296875 1.379493951797485 79.21278381347656 1.747036695480347 79.21278381347656 2.097865343093872 C 79.21278381347656 2.615779638290405 79.61373901367188 3.116965293884277 80.18177032470703 3.116965293884277 M 73.88339996337891 -4.685006141662598 C 74.25093841552734 -3.432006120681763 74.73542785644531 -2.195720434188843 75.32015228271484 -1.026263236999512 C 74.56835174560547 -0.2577632367610931 74.05045318603516 -0.09069181978702545 73.43231201171875 -0.09069181978702545 C 72.94782257080078 -0.09069181978702545 72.48004150390625 -0.4749489724636078 72.48004150390625 -1.377091765403748 C 72.48004150390625 -2.596677541732788 72.99794006347656 -3.766134738922119 73.88339996337891 -4.685006141662598 M 78.19367980957031 -6.65637731552124 C 77.82615661621094 -5.253020286560059 77.34165191650391 -3.866377592086792 76.57315826416016 -2.613377571105957 C 76.10536956787109 -3.665891885757446 75.72111511230469 -4.735120296478271 75.42039489746094 -5.85446310043335 C 76.27242279052734 -6.305534839630127 77.22470092773438 -6.572834491729736 78.19367980957031 -6.65637731552124 M 25.73504066467285 2.983322381973267 C 27.58946990966797 2.983322381973267 29.07635498046875 2.83296537399292 30.47971153259277 2.498822450637817 C 30.99761199951172 2.381879568099976 31.23149681091309 1.947508215904236 31.23149681091309 1.513136744499207 C 31.23149681091309 0.9952367544174194 30.91408348083496 0.4940367639064789 30.36275482177734 0.4940367639064789 C 30.27922630310059 0.4940367639064789 30.19569778442383 0.5107510089874268 30.09545516967773 0.5274510383605957 C 28.8925838470459 0.8448796272277832 27.33886909484863 1.028650999069214 25.68492698669434 1.028650999069214 C 24.04766845703125 1.028650999069214 23.44624137878418 0.5775653123855591 23.32929801940918 -0.4415346682071686 C 23.24575424194336 -1.09309184551239 23.21234130859375 -2.112191915512085 23.21234130859375 -3.448706150054932 C 23.21234130859375 -4.000034809112549 23.21234130859375 -4.584763050079346 23.22905540466309 -5.186192035675049 C 24.74935531616211 -5.269734859466553 26.26965522766113 -5.3699631690979 27.80665397644043 -5.470206260681152 C 27.78995513916016 -4.885477542877197 27.75654029846191 -4.31744909286499 27.72312545776367 -3.799548864364624 C 27.67299842834473 -3.147991895675659 27.38898277282715 -2.94752049446106 26.92121124267578 -2.94752049446106 C 26.63719749450684 -2.94752049446106 26.31976890563965 -2.980934619903564 25.96892547607422 -3.081163167953491 C 25.86869812011719 -3.097877502441406 25.78515434265137 -3.114577531814575 25.70162582397461 -3.114577531814575 C 25.16701126098633 -3.114577531814575 24.8495979309082 -2.630091905593872 24.8495979309082 -2.14560604095459 C 24.8495979309082 -1.744648933410645 25.06676864624023 -1.343677520751953 25.56796836853027 -1.193320393562317 C 26.0357551574707 -1.059677481651306 26.52024078369141 -1.009549021720886 27.00473976135254 -1.009549021720886 C 28.62526893615723 -1.009549021720886 29.51072692871094 -1.644406080245972 29.64438247680664 -3.599077463150024 C 29.69449806213379 -4.233920574188232 29.71121215820312 -4.885477542877197 29.7446117401123 -5.570448875427246 C 30.68018341064453 -5.60386323928833 31.58234024047852 -5.637277603149414 32.43438339233398 -5.670691967010498 C 32.98569869995117 -5.687391757965088 33.25299835205078 -6.138477325439453 33.25299835205078 -6.60624885559082 C 33.25299835205078 -7.057334899902344 32.9689826965332 -7.525120258331299 32.43438339233398 -7.525120258331299 C 32.41766738891602 -7.525120258331299 32.40095520019531 -7.525120258331299 32.38425445556641 -7.525120258331299 C 31.56564140319824 -7.491705894470215 30.68018341064453 -7.458292007446289 29.77802658081055 -7.424877643585205 C 29.77802658081055 -8.410563468933105 29.77802658081055 -9.396248817443848 29.77802658081055 -10.28170585632324 C 29.77802658081055 -10.83302021026611 29.27682685852051 -11.11703491210938 28.7923412322998 -11.11703491210938 C 28.3078556060791 -11.11703491210938 27.82335472106934 -10.8497200012207 27.82335472106934 -10.29840564727783 C 27.82335472106934 -9.663562774658203 27.82335472106934 -8.995291709899902 27.82335472106934 -8.327034950256348 C 27.82335472106934 -7.992906093597412 27.82335472106934 -7.658763408660889 27.82335472106934 -7.324634552001953 C 26.30306816101074 -7.241106033325195 24.78276824951172 -7.157577514648438 23.24575424194336 -7.057334899902344 C 23.2791690826416 -7.942777633666992 23.31258392333984 -8.844934463500977 23.34599685668945 -9.747092247009277 C 23.35454559326172 -10.29442501068115 22.82461929321289 -10.57033348083496 22.30303192138672 -10.57033348083496 C 21.80569839477539 -10.57033348083496 21.31594848632812 -10.31949234008789 21.30779838562012 -9.813920021057129 C 21.27438354492188 -8.828234672546387 21.25766944885254 -7.859249114990234 21.24096870422363 -6.906977653503418 C 20.38894081115723 -6.856849193572998 19.55361175537109 -6.773320198059082 18.73498344421387 -6.706491947174072 C 18.20038414001465 -6.673077583312988 17.94976997375488 -6.238706111907959 17.94976997375488 -5.78763484954834 C 17.94976997375488 -5.319849014282227 18.25049781799316 -4.835363388061523 18.81851196289062 -4.835363388061523 C 18.85192680358887 -4.835363388061523 18.8686408996582 -4.835363388061523 18.88533973693848 -4.835363388061523 C 19.63714027404785 -4.902177333831787 20.42235565185547 -4.969006061553955 21.20755386352539 -5.035834789276123 C 21.20755386352539 -4.467820167541504 21.20755386352539 -3.899791717529297 21.20755386352539 -3.348477602005005 C 21.20755386352539 -1.978534698486328 21.24096870422363 -0.9427204132080078 21.32449722290039 -0.14080610871315 C 21.55839729309082 2.047750949859619 22.77796936035156 2.983322381973267 25.73504066467285 2.983322381973267 M 56.94292449951172 -0.3747061192989349 C 58.02885437011719 -0.3747061192989349 58.49662780761719 -0.7255346775054932 58.49662780761719 -1.811463236808777 L 58.49662780761719 -9.813920021057129 C 58.49662780761719 -10.93326282501221 58.02885437011719 -11.30080604553223 56.94292449951172 -11.30080604553223 L 54.78776931762695 -11.30080604553223 C 53.70183944702148 -11.30080604553223 53.25077056884766 -10.93326282501221 53.25077056884766 -9.813920021057129 L 53.25077056884766 -1.811463236808777 C 53.25077056884766 -0.7255346775054932 53.70183944702148 -0.3747061192989349 54.78776931762695 -0.3747061192989349 L 56.94292449951172 -0.3747061192989349 M 54.87131118774414 -3.699306011199951 L 56.90951156616211 -3.699306011199951 L 56.90951156616211 -2.279248952865601 C 56.90951156616211 -1.978534698486328 56.7591552734375 -1.928420424461365 56.49184036254883 -1.928420424461365 L 55.27227020263672 -1.928420424461365 C 55.00495529174805 -1.928420424461365 54.87131118774414 -1.978534698486328 54.87131118774414 -2.279248952865601 L 54.87131118774414 -3.699306011199951 M 54.87131118774414 -6.739906311035156 L 56.90951156616211 -6.739906311035156 L 56.90951156616211 -5.102663040161133 L 54.87131118774414 -5.102663040161133 L 54.87131118774414 -6.739906311035156 M 55.27227020263672 -9.747092247009277 L 56.49184036254883 -9.747092247009277 C 56.7591552734375 -9.747092247009277 56.90951156616211 -9.680263519287109 56.90951156616211 -9.379549026489258 L 56.90951156616211 -8.14326286315918 L 54.87131118774414 -8.14326286315918 L 54.87131118774414 -9.379549026489258 C 54.87131118774414 -9.680263519287109 55.00495529174805 -9.747092247009277 55.27227020263672 -9.747092247009277 M 66.91675567626953 -6.138477325439453 C 67.38452911376953 -6.138477325439453 67.73536682128906 -6.322248935699463 67.73536682128906 -6.856849193572998 L 67.73536682128906 -8.427277565002441 C 67.73536682128906 -9.446377754211426 67.28429412841797 -9.864034652709961 66.24848175048828 -9.864034652709961 L 64.24369812011719 -9.864034652709961 L 64.24369812011719 -11.1504487991333 C 64.24369812011719 -11.51799201965332 63.87615585327148 -11.73517799377441 63.3415412902832 -11.73517799377441 C 62.80692672729492 -11.73517799377441 62.43938446044922 -11.51799201965332 62.43938446044922 -11.1504487991333 L 62.43938446044922 -9.864034652709961 L 60.63507080078125 -9.864034652709961 C 59.59926986694336 -9.864034652709961 59.1481819152832 -9.446377754211426 59.1481819152832 -8.443977355957031 L 59.1481819152832 -6.856849193572998 C 59.1481819152832 -6.322248935699463 59.48232650756836 -6.138477325439453 59.96681213378906 -6.138477325439453 C 60.45129776000977 -6.138477325439453 60.78542709350586 -6.322248935699463 60.78542709350586 -6.673077583312988 L 60.78542709350586 -7.892663478851318 C 60.78542709350586 -8.193377494812012 60.91909790039062 -8.26020622253418 61.18639755249023 -8.26020622253418 L 65.66375732421875 -8.26020622253418 C 65.96448516845703 -8.26020622253418 66.09812927246094 -8.193377494812012 66.09812927246094 -7.892663478851318 L 66.09812927246094 -6.673077583312988 C 66.09812927246094 -6.322248935699463 66.41555786132812 -6.138477325439453 66.91675567626953 -6.138477325439453 M 8.076183319091797 5.701708316802979 C 6.170897483825684 5.701708316802979 5.174026012420654 4.36780834197998 5.174026012420654 3.050151109695435 L 5.174026012420654 2.861579656600952 L 2.295711994171143 2.861579656600952 C 1.480997681617737 2.861579656600952 0.7357404828071594 2.50019383430481 0.2510404884815216 1.870093941688538 C -0.1241309270262718 1.382379651069641 -0.3224309384822845 0.7621224522590637 -0.3224309384822845 0.07637960463762283 C -0.3224309384822845 -0.2054440528154373 -0.2890636026859283 -0.476630687713623 -0.2238387167453766 -0.7323518991470337 C -0.3281132280826569 -0.8287091255187988 -0.4249546527862549 -0.934550940990448 -0.5133023858070374 -1.049406051635742 C -0.8911880850791931 -1.540663242340088 -1.090930938720703 -2.168134689331055 -1.090930938720703 -2.863977432250977 C -1.090930938720703 -3.716259956359863 -0.794646143913269 -4.298194885253906 -0.5309153199195862 -4.647249221801758 C -0.9856440424919128 -5.142940521240234 -1.258002400398254 -5.82764720916748 -1.258002400398254 -6.60624885559082 C -1.258002400398254 -7.306305885314941 -1.051873803138733 -7.937949180603027 -0.6619166135787964 -8.432906150817871 C -0.4910135567188263 -8.649821281433105 -0.2889465093612671 -8.834331512451172 -0.06380033493041992 -8.982588768005371 C -0.09108744561672211 -9.14832592010498 -0.1052452176809311 -9.319915771484375 -0.1052452176809311 -9.496491432189941 C -0.1052452176809311 -11.09384918212891 1.02749764919281 -12.29840564727783 2.529597759246826 -12.29840564727783 L 5.413460731506348 -12.29840564727783 C 5.823513984680176 -13.14382362365723 6.721563816070557 -13.80200576782227 8.076183319091797 -13.80200576782227 C 8.758355140686035 -13.80200576782227 9.379012107849121 -13.62030601501465 9.871068954467773 -13.27654933929443 C 10.23922061920166 -13.01934719085693 10.52400207519531 -12.68348979949951 10.71007823944092 -12.29840564727783 L 13.85666942596436 -12.29840564727783 C 15.3492546081543 -12.29840564727783 16.47481155395508 -11.09384918212891 16.47481155395508 -9.496491432189941 C 16.47481155395508 -9.323383331298828 16.46128273010254 -9.155014991760254 16.43520355224609 -8.992302894592285 C 16.66632652282715 -8.842419624328613 16.87352561950684 -8.654587745666504 17.04818344116211 -8.432906150817871 C 17.10035514831543 -8.36668586730957 17.14921379089355 -8.298053741455078 17.19475173950195 -8.227104187011719 C 17.59784507751465 -8.501121520996094 18.07204627990723 -8.664685249328613 18.58542442321777 -8.70094108581543 C 18.81461524963379 -8.719696998596191 19.04511070251465 -8.739762306213379 19.27695465087891 -8.760002136230469 C 19.28571319580078 -9.126814842224121 19.29594993591309 -9.496849060058594 19.30851936340332 -9.869208335876465 C 19.34585380554199 -11.41076850891113 20.62898635864258 -12.57033443450928 22.30302619934082 -12.57033443450928 C 23.1768970489502 -12.57033443450928 24.00198364257812 -12.24134922027588 24.56672668457031 -11.66772079467773 C 25.0805835723877 -11.14577770233154 25.35725402832031 -10.45259189605713 25.34575462341309 -9.715877532958984 L 25.34542655944824 -9.694462776184082 L 25.34462547302246 -9.673063278198242 C 25.3386402130127 -9.511423110961914 25.3326530456543 -9.34974193572998 25.3266658782959 -9.188199043273926 C 25.49246788024902 -9.197776794433594 25.65814208984375 -9.20725154876709 25.82335472106934 -9.21662425994873 L 25.82335472106934 -10.29840564727783 C 25.82335472106934 -11.18312072753906 26.22638320922852 -11.99164867401123 26.92911148071289 -12.51666355133057 C 27.44729804992676 -12.9038200378418 28.1089973449707 -13.11703491210938 28.7923412322998 -13.11703491210938 C 30.46655464172363 -13.11703491210938 31.77802658081055 -11.87160587310791 31.77802658081055 -10.28170585632324 L 31.77802658081055 -9.50239086151123 C 31.9547233581543 -9.509382247924805 32.13017272949219 -9.516420364379883 32.30268478393555 -9.523463249206543 L 32.34345626831055 -9.525120735168457 L 32.38425445556641 -9.525120735168457 L 32.43438339233398 -9.525120735168457 C 33.28667831420898 -9.525120735168457 34.03945922851562 -9.152217864990234 34.55215835571289 -8.552009582519531 C 34.65884780883789 -10.05162715911865 35.82563400268555 -11.19577789306641 37.29598236083984 -11.19577789306641 C 38.01311874389648 -11.19577789306641 38.69099807739258 -11.20350646972656 39.34328079223633 -11.21923732757568 C 39.39383316040039 -11.35672473907471 39.44085311889648 -11.49251174926758 39.48425674438477 -11.62638568878174 C 39.86822509765625 -12.82623481750488 40.94381332397461 -13.60152053833008 42.22442626953125 -13.60152053833008 C 43.57920455932617 -13.60152053833008 44.72953414916992 -12.76355075836182 45.11896133422852 -11.61030387878418 C 45.34421157836914 -11.63768577575684 45.56099319458008 -11.66569232940674 45.76986312866211 -11.69437980651855 C 46.00955581665039 -11.74708366394043 46.19974899291992 -11.74709224700928 46.28412628173828 -11.74709224700928 C 47.81782531738281 -11.74709224700928 49.01921081542969 -10.47964859008789 49.01921081542969 -8.861648559570312 C 49.01921081542969 -8.444986343383789 48.9340705871582 -8.048532485961914 48.7795295715332 -7.691435813903809 C 48.85958480834961 -7.699104309082031 48.94709396362305 -7.704106330871582 49.04071044921875 -7.704106330871582 C 49.89912796020508 -7.704106330871582 50.69826889038086 -7.308363437652588 51.23321151733398 -6.618363380432129 C 51.23910522460938 -6.610759258270264 51.24494934082031 -6.603145599365234 51.25077056884766 -6.595485210418701 L 51.25077056884766 -9.813920021057129 C 51.25077056884766 -10.93907737731934 51.58623886108398 -11.82249164581299 52.24784088134766 -12.43963432312012 C 53.17108154296875 -13.30080604553223 54.38791275024414 -13.30080604553223 54.78776931762695 -13.30080604553223 L 56.94292449951172 -13.30080604553223 C 57.34104156494141 -13.30080604553223 58.55255508422852 -13.30080604553223 59.47901153564453 -12.45090579986572 C 59.68128967285156 -12.26534557342529 59.85372161865234 -12.05570793151855 59.99600219726562 -11.82275295257568 C 60.17182922363281 -11.84631156921387 60.35443115234375 -11.85993099212646 60.54362869262695 -11.86323738098145 C 60.71539306640625 -12.43621921539307 61.09237289428711 -12.93712711334229 61.62199783325195 -13.27162075042725 C 62.10216903686523 -13.57487773895264 62.69676971435547 -13.73517799377441 63.3415412902832 -13.73517799377441 C 63.98631286621094 -13.73517799377441 64.58090972900391 -13.57487773895264 65.06108093261719 -13.27162075042725 C 65.59047698974609 -12.93726921081543 65.96734619140625 -12.43671131134033 66.13921356201172 -11.86403465270996 L 66.24848175048828 -11.86403465270996 C 68.39926910400391 -11.86403465270996 69.73536682128906 -10.54714870452881 69.73536682128906 -8.427277565002441 L 69.73536682128906 -6.856849193572998 C 69.73536682128906 -6.543545722961426 69.68965911865234 -6.245210647583008 69.60121917724609 -5.968122482299805 C 69.67037200927734 -5.803351402282715 69.72530364990234 -5.629140853881836 69.76454925537109 -5.447116374969482 C 70.16218566894531 -6.121223926544189 70.65719604492188 -6.754245281219482 71.2406005859375 -7.329316139221191 C 71.13024139404297 -8.027373313903809 71.05040740966797 -8.747847557067871 71.00222778320312 -9.482563018798828 L 70.99794006347656 -9.547934532165527 L 70.99794006347656 -9.613434791564941 L 70.99794006347656 -9.680263519287109 C 70.99794006347656 -10.53364849090576 71.37632751464844 -11.33024883270264 72.03605651855469 -11.86580657958984 C 72.56551361083984 -12.29560565948486 73.2393798828125 -12.53230571746826 73.93350982666016 -12.53230571746826 C 75.39620208740234 -12.53230571746826 76.54259490966797 -11.54015731811523 76.7408447265625 -10.14144611358643 C 76.76255798339844 -10.14525985717773 76.78418731689453 -10.14899921417236 76.80597686767578 -10.15270328521729 C 76.82258605957031 -10.28908634185791 76.83938598632812 -10.43093204498291 76.85667419433594 -10.57947444915771 C 77.00934600830078 -12.06118679046631 78.22766876220703 -13.13373470306396 79.76411437988281 -13.13373470306396 C 81.43832397460938 -13.13373470306396 82.74979400634766 -11.8883056640625 82.74979400634766 -10.29840564727783 L 82.74979400634766 -10.18146324157715 L 82.74979400634766 -10.05994892120361 L 82.73508453369141 -9.93932056427002 C 82.7203369140625 -9.818403244018555 82.70474243164062 -9.699092864990234 82.68843841552734 -9.581114768981934 C 83.72804260253906 -9.111103057861328 84.6285400390625 -8.435029983520508 85.34518432617188 -7.578505992889404 C 86.26573944091797 -6.478269577026367 86.83164215087891 -5.116681575775146 86.9742431640625 -3.683818340301514 C 87.17632293701172 -4.088493824005127 87.47395324707031 -4.447030544281006 87.85296630859375 -4.731291770935059 L 87.85687255859375 -4.734206199645996 L 87.86077117919922 -4.737120628356934 C 88.71492004394531 -5.371259689331055 89.53769683837891 -6.0245361328125 90.31036376953125 -6.68018627166748 C 89.84528350830078 -6.858259677886963 89.43428039550781 -7.15903377532959 89.12035369873047 -7.561706066131592 C 88.71368408203125 -8.083320617675781 88.48972320556641 -8.752649307250977 88.48972320556641 -9.446377754211426 C 88.48972320556641 -11.08006286621094 89.66741180419922 -12.34884929656982 91.22914123535156 -12.39767742156982 L 91.23236846923828 -12.39777755737305 L 91.235595703125 -12.39786338806152 C 93.27223968505859 -12.45496368408203 95.08749389648438 -12.54619216918945 96.78507995605469 -12.67677783966064 L 96.86165618896484 -12.68266296386719 L 96.93846893310547 -12.68266296386719 L 97.03871154785156 -12.68266296386719 C 97.89073944091797 -12.68266296386719 98.68668365478516 -12.35596370697021 99.27989959716797 -11.76273441314697 C 99.86773681640625 -11.17490577697754 100.1914672851562 -10.39380645751953 100.1914672851562 -9.563320159912109 C 100.1914672851562 -8.799795150756836 99.91272735595703 -8.057711601257324 99.39821624755859 -7.432180404663086 C 100.1125411987305 -7.150826930999756 100.7646331787109 -6.748137950897217 101.322868347168 -6.235920429229736 C 102.5540237426758 -5.106277465820312 103.2320556640625 -3.540906190872192 103.2320556640625 -1.828177571296692 C 103.2320556640625 0.1600653231143951 102.4070816040039 1.958393931388855 100.9091110229492 3.235551118850708 C 99.43982696533203 4.488236904144287 97.44288635253906 5.150379657745361 95.1341552734375 5.150379657745361 C 93.58648681640625 5.150379657745361 92.22971343994141 4.729236602783203 91.21052551269531 3.932479619979858 C 90.16459655761719 3.114819765090942 89.54962921142578 1.964987874031067 89.45487213134766 0.6659224033355713 C 88.2769775390625 0.5819641947746277 87.26105499267578 -0.2379939556121826 86.85609436035156 -1.334871888160706 C 86.62474822998047 -0.1364938765764236 86.13551330566406 0.9775026440620422 85.40840911865234 1.945679664611816 C 84.39633178710938 3.293291330337524 82.9476318359375 4.322347164154053 81.21617126464844 4.924253940582275 C 80.88786315917969 5.052180290222168 80.54037475585938 5.116965293884277 80.18177032470703 5.116965293884277 C 79.09763336181641 5.116965293884277 78.14734649658203 4.523018836975098 77.62908172607422 3.638302803039551 C 77.55612945556641 3.643929004669189 77.48258209228516 3.646793842315674 77.40848541259766 3.646793842315674 C 76.86653137207031 3.646793842315674 76.35443115234375 3.494873046875 75.91465759277344 3.213680028915405 C 75.14812469482422 3.607905149459839 74.33236694335938 3.7971510887146 73.43231201171875 3.7971510887146 C 72.0526123046875 3.7971510887146 70.8133544921875 3.291536808013916 69.94281005859375 2.373465299606323 C 69.07015228271484 1.453136801719666 68.60889434814453 0.1851081848144531 68.60889434814453 -1.29356324672699 C 68.60889434814453 -1.672076821327209 68.63613891601562 -2.04811692237854 68.68959045410156 -2.419656753540039 C 68.26735687255859 -2.120927333831787 67.75193023681641 -1.94990611076355 67.18405151367188 -1.94990611076355 L 66.51099395751953 -1.94990611076355 L 66.51099395751953 1.546550989151001 C 66.51099395751953 2.799751043319702 66.13491058349609 3.774393796920776 65.39319610595703 4.443393707275391 C 64.47478485107422 5.271765232086182 63.30569839477539 5.367565155029297 62.50621032714844 5.367565155029297 C 61.60289764404297 5.367565155029297 60.9735107421875 5.313351154327393 60.40172576904297 5.18630838394165 L 60.39699935913086 5.185251235961914 L 60.39225387573242 5.184179782867432 C 60.08346176147461 5.113989353179932 59.79936599731445 4.996398448944092 59.54607772827148 4.839324951171875 C 59.07326889038086 5.108895301818848 58.55776977539062 5.250622272491455 58.04555511474609 5.250622272491455 C 57.26486206054688 5.250622272491455 56.52547073364258 4.898010730743408 55.9937629699707 4.277583599090576 C 55.91735076904297 4.380361080169678 55.84049987792969 4.478800773620605 55.76361083984375 4.572165489196777 L 55.7598991394043 4.576679706573486 L 55.75615310668945 4.581179618835449 C 55.21577072143555 5.229579448699951 54.42438507080078 5.601465225219727 53.58489608764648 5.601465225219727 C 52.90803527832031 5.601465225219727 52.26113510131836 5.369829177856445 51.75026702880859 4.946862697601318 C 51.06599426269531 4.41937780380249 50.67317581176758 3.640000343322754 50.6661376953125 2.789437294006348 C 50.57064056396484 3.092115879058838 50.42742919921875 3.377322673797607 50.23925399780273 3.636436700820923 C 49.81570434570312 4.219692230224609 49.18162536621094 4.627501487731934 48.45233154296875 4.786055088043213 C 46.91711807250977 5.130411148071289 45.42352294921875 5.284036636352539 43.61106872558594 5.284036636352539 C 41.68995666503906 5.284036636352539 40.15809631347656 4.895665168762207 39.05802536010742 4.129708290100098 C 37.81711196899414 3.26569390296936 37.13371276855469 1.93299388885498 37.13371276855469 0.3770938813686371 C 37.13371276855469 0.2989812791347504 37.13565444946289 0.2193284779787064 37.1397819519043 0.1383178979158401 C 35.54935073852539 0.125694140791893 34.21005630493164 -1.221084237098694 34.21005630493164 -2.813863277435303 C 34.21005630493164 -3.655322313308716 34.57637405395508 -4.43793249130249 35.24183654785156 -5.018912315368652 C 35.49626922607422 -5.244227886199951 35.75360107421875 -5.498440265655518 36.01039886474609 -5.77720832824707 C 35.71940994262695 -5.932414054870605 35.46128082275391 -6.13929557800293 35.24575042724609 -6.38735818862915 C 35.14486694335938 -4.87205171585083 34.00088119506836 -3.721939086914062 32.50449371337891 -3.671910762786865 C 32.2302360534668 -3.66115927696228 31.94695281982422 -3.650251865386963 31.65279579162598 -3.639120578765869 C 31.64846229553223 -3.576605081558228 31.64386749267578 -3.514137983322144 31.63897132873535 -3.451717615127563 C 31.58362007141113 -2.656960487365723 31.4263801574707 -1.973351001739502 31.16326522827148 -1.391376137733459 C 32.37039566040039 -1.035059332847595 33.23149871826172 0.113739863038063 33.23149871826172 1.513136744499207 C 33.23149871826172 2.952412128448486 32.30910873413086 4.12933874130249 30.93462562561035 4.446420669555664 C 29.39294815063477 4.81267261505127 27.74033355712891 4.983322620391846 25.73504066467285 4.983322620391846 C 23.79461097717285 4.983322620391846 22.39768409729004 4.627722263336182 21.33882713317871 3.864208221435547 C 20.19015502929688 3.035951137542725 19.51625442504883 1.759965300559998 19.3358268737793 0.07173675298690796 L 19.33554077148438 0.06906532496213913 L 19.33525466918945 0.0663938969373703 C 19.2568416595459 -0.6864382028579712 19.21700286865234 -1.601014375686646 19.20905494689941 -2.856215953826904 C 19.15996742248535 -2.851878643035889 19.11108016967773 -2.84754753112793 19.0623836517334 -2.843220472335815 L 18.97404098510742 -2.835363149642944 L 18.88533973693848 -2.835363149642944 L 18.81851196289062 -2.835363149642944 C 18.3325023651123 -2.835363149642944 17.87823677062988 -2.953771352767944 17.48099517822266 -3.164639472961426 C 17.48940849304199 -3.068351745605469 17.49391174316406 -2.968179702758789 17.49391174316406 -2.863977432250977 C 17.49391174316406 -2.155677556991577 17.28315544128418 -1.517848968505859 16.88441276550293 -1.019420385360718 C 16.80423164367676 -0.9191939234733582 16.71742630004883 -0.8260435461997986 16.6247673034668 -0.7402997016906738 C 16.69133949279785 -0.4822440147399902 16.72539710998535 -0.2083754241466522 16.72539710998535 0.07637960463762283 C 16.72539710998535 0.7621224522590637 16.52709770202637 1.382379651069641 16.15192604064941 1.870093941688538 C 15.66722583770752 2.50019383430481 14.92196941375732 2.861579656600952 14.10725498199463 2.861579656600952 L 10.97834014892578 2.861579656600952 L 10.97834014892578 3.050151109695435 C 10.97834014892578 4.36780834197998 9.98146915435791 5.701708316802979 8.076183319091797 5.701708316802979 Z M 47.90467071533203 -1.155120372772217 C 49.53203964233398 -1.155120372772217 50.80682754516602 0.1710224598646164 50.80682754516602 1.863979578018188 C 50.80682754516602 1.878579616546631 50.80672836303711 1.893117427825928 50.80652618408203 1.907680869102478 C 50.90622329711914 1.608093619346619 51.05729675292969 1.323877215385437 51.2543830871582 1.07047963142395 C 51.44920349121094 0.8211119174957275 51.63710784912109 0.5365718603134155 51.79883193969727 0.2497730106115341 C 51.4347038269043 -0.3008698523044586 51.25077056884766 -0.9911186695098877 51.25077056884766 -1.811463236808777 L 51.25077056884766 -2.882865905761719 C 50.87596130371094 -2.409715890884399 50.35090637207031 -2.05886697769165 49.72638320922852 -1.896963238716125 L 49.60786819458008 -1.865920424461365 C 48.83221435546875 -1.662824630737305 48.08221435546875 -1.466446161270142 47.35919189453125 -1.259846568107605 C 47.36028289794922 -1.206903219223022 47.36118698120117 -1.155205011367798 47.3619384765625 -1.104728579521179 C 47.55917358398438 -1.138981938362122 47.73405075073242 -1.155120372772217 47.90467071533203 -1.155120372772217 Z M 60.49662780761719 -1.94990611076355 L 60.49662780761719 -1.811463236808777 C 60.49662780761719 -1.269556522369385 60.41552352905273 -0.784298300743103 60.25435638427734 -0.3583044707775116 C 60.41215133666992 -0.4023466408252716 60.5745964050293 -0.4314302206039429 60.74009704589844 -0.4448617100715637 L 60.74009704589844 -1.94990611076355 L 60.49662780761719 -1.94990611076355 Z M 81.02486419677734 -3.145634651184082 C 80.71610260009766 -2.39132285118103 80.37935638427734 -1.704106092453003 80.00907135009766 -1.071797847747803 C 80.89816284179688 -1.63504433631897 81.03859710693359 -2.323259353637695 81.03859710693359 -2.94752049446106 C 81.03859710693359 -3.011646509170532 81.03414916992188 -3.077984094619751 81.02486419677734 -3.145634651184082 Z" stroke="none" fill="#c9e98a"/>
    </g>
  </g>
</svg>
