<svg xmlns="http://www.w3.org/2000/svg" width="200.414" height="155.351" viewBox="0 0 200.414 155.351">
  <g id="グループ_66" data-name="グループ 66" transform="translate(-132.487 -238.497)">
    <path id="パス_41" data-name="パス 41" d="M209.752,296.233l-58.477-57,58.477,57.092Z" transform="translate(22.811 0)" fill="none"/>
    <path id="パス_42" data-name="パス 42" d="M177.313,264.687l.041.04v96.939h.1V264.727l-.091-.089Z" transform="translate(55.291 31.684)" fill="none"/>
    <path id="パス_43" data-name="パス 43" d="M232.646,296.409l-.043-.038-.04.038v-.079l-51.236-57.093L134.79,289.2a8.589,8.589,0,0,0,.369,10.972l87.715,93.177h9.772Z" transform="translate(0 0)" fill="#dff1f4" stroke="#5d8cb1" stroke-miterlimit="10" stroke-width="1"/>
    <path id="パス_44" data-name="パス 44" d="M187.3,393.348l87.565-93.177a8.6,8.6,0,0,0,.369-10.972l-46.62-49.962-51.236,57.171v96.939Z" transform="translate(55.369 0)" fill="#dff1f4" stroke="#5d8cb1" stroke-miterlimit="10" stroke-width="1"/>
    <path id="パス_45" data-name="パス 45" d="M177.427,264.776V264.6l-.091.089Z" transform="translate(55.318 31.635)" fill="#fff" stroke="#1a1311" stroke-linejoin="round" stroke-width="1"/>
    <path id="パス_46" data-name="パス 46" d="M205.744,272.562l.08-.04L154.5,239.238l51.248,57Z" transform="translate(26.829 0)" fill="#5f92bb" stroke="#5d8cb1" stroke-linejoin="round" stroke-width="1"/>
    <path id="パス_47" data-name="パス 47" d="M177.415,296.233l51.248-57-51.327,33.284.08.04Z" transform="translate(55.318 0)" fill="#5f92bb" stroke="#5d8cb1" stroke-linejoin="round" stroke-width="1"/>
    <path id="パス_48" data-name="パス 48" d="M177.295,264.6v.1l.041.04.05-.049Z" transform="translate(55.268 31.635)" fill="#fff" stroke="#1a1311" stroke-linejoin="round" stroke-width="1"/>
    <path id="パス_49" data-name="パス 49" d="M177.295,264.722l.041-.04-.041-.04Z" transform="translate(55.268 31.689)" fill="#fff" stroke="#1a1311" stroke-linejoin="round" stroke-width="1"/>
    <path id="パス_50" data-name="パス 50" d="M177.295,277.759l.091.089.091-.089V254.088l-.091-.04-.091.04Z" transform="translate(55.268 18.474)" fill="#fff" stroke="#5d8cb1" stroke-linejoin="round" stroke-width="1"/>
  </g>
</svg>
