<svg xmlns="http://www.w3.org/2000/svg" width="332.05" height="118.065" viewBox="0 0 332.05 118.065">
  <g id="グループ_205" data-name="グループ 205" transform="translate(-22.147 -114)">
    <g id="グループ_60" data-name="グループ 60" transform="translate(-1035.302 -105.345)">
      <path id="パス_79" data-name="パス 79" d="M1059.3,298.37l.083.258c9.194,6.73,18.276,13.6,27.054,20.867-3.685,10.564-6.978,21.266-9.987,32.041l.087.27c14.317-4.481,28.7-8.388,43.322-11.763q-6.078-27.408-12.154-54.816C1091.366,288.979,1075.3,293.343,1059.3,298.37Z" transform="translate(0 -16.232)" fill="#fee478" stroke="#fff" stroke-miterlimit="10" stroke-width="2.938"/>
      <path id="パス_80" data-name="パス 80" d="M1103.922,319.077c9.1,4.674,18.034,9.546,26.886,14.672l-12.282-55.95c-9.651-5.027-19.506-9.669-29.469-14.041Z" transform="translate(-9.749 -9.198)" fill="#e2ca68"/>
      <path id="パス_81" data-name="パス 81" d="M1206.712,236.163c-1.434.068-2.151.1-3.584.182a599.054,599.054,0,0,0-114.068,18.212l14.864,55.32a540.246,540.246,0,0,1,102.3-16.334c1.286-.07,1.928-.1,3.215-.164a540.405,540.405,0,0,1,103.16,5.8q4.566-28.275,9.131-56.55A599.091,599.091,0,0,0,1206.712,236.163Z" transform="translate(-9.75)" fill="#fee478"/>
      <path id="パス_82" data-name="パス 82" d="M1518.13,298.113l-.083.259c-9.2,6.732-18.249,13.629-27.061,20.865,3.646,10.577,7.025,21.255,9.994,32.043l-.087.27c-14.324-4.483-28.715-8.391-43.338-11.767q6.077-27.408,12.154-54.817C1486.054,288.72,1502.13,293.085,1518.13,298.113Z" transform="translate(-130.482 -16.147)" fill="#fee478" stroke="#fff" stroke-miterlimit="10" stroke-width="2.938"/>
      <path id="パス_83" data-name="パス 83" d="M1482.59,319.074c-9.1,4.674-18.034,9.546-26.886,14.672q6.14-27.975,12.281-55.95c9.671-4.986,19.487-9.71,29.469-14.042Z" transform="translate(-129.876 -9.197)" fill="#e2ca68"/>
      <path id="パス_84" data-name="パス 84" d="M1290.347,236.345c-1.433-.078-2.15-.114-3.584-.183a599.2,599.2,0,0,0-115.022,6.471q4.565,28.275,9.131,56.549a540.379,540.379,0,0,1,103.16-5.8c1.286.061,1.929.094,3.215.163a540.324,540.324,0,0,1,102.3,16.333q7.431-27.66,14.863-55.32A599,599,0,0,0,1290.347,236.345Z" transform="translate(-36.839 0)" fill="#fee478"/>
      <path id="パス_85" data-name="パス 85" d="M1110.773,336.479a513.253,513.253,0,0,1,259.068,0" transform="translate(-16.864 -27.58)" fill="none" stroke="#fff" stroke-miterlimit="10" stroke-width="3"/>
      <path id="パス_86" data-name="パス 86" d="M1089.176,256.236a568.655,568.655,0,0,1,287.747-.1" transform="translate(-9.788 -0.656)" fill="none" stroke="#fff" stroke-miterlimit="10" stroke-width="3"/>
    </g>
    <g id="グループ_62" data-name="グループ 62" transform="translate(-1052.419 -288.712)">
      <g id="マイページ" transform="translate(1142.527 418.365)" style="isolation: isolate">
        <text id="チケットガチャ" transform="translate(-0.109 25.346)" stroke="#f9f5ec" stroke-linejoin="round" stroke-width="16" font-size="28" font-family="HiraginoSans-W3, Hiragino Sans" fill="none" style="isolation: isolate"><tspan x="0" y="0">チケットガチャ</tspan></text>
      </g>
      <g id="マイページ-2" transform="translate(1142.527 418.365)" style="isolation: isolate">
        <text id="チケットガチャ-2" data-name="チケットガチャ" transform="translate(-0.109 25.346)" stroke="#9dbf60" stroke-linejoin="round" stroke-width="7.276" font-size="28" font-family="HiraginoSans-W3, Hiragino Sans" fill="none" style="isolation: isolate"><tspan x="0" y="0">チケットガチャ</tspan></text>
      </g>
      <g id="マイページ-3" transform="translate(1142.527 408.365)" style="isolation: isolate">
        <text id="チケットガチャ-3" data-name="チケットガチャ" transform="translate(-0.109 35.346)" fill="#f8f0e4" font-size="28" font-family="HiraginoSans-W3, Hiragino Sans" style="isolation: isolate"><tspan x="0" y="0">チケットガチャ</tspan></text>
      </g>
    </g>
    <g id="グループ_63" data-name="グループ 63" transform="translate(0 -3)">
      <text id="_1回" data-name="1回" transform="translate(117 190)" fill="#562019" stroke="#734640" stroke-linejoin="round" stroke-width="5" font-size="16" font-family="Helvetica" letter-spacing="0.04em"><tspan x="0" y="0">1</tspan><tspan y="0" font-family="HiraginoSans-W3, Hiragino Sans">回</tspan></text>
      <text id="チケット1枚" transform="translate(167 190)" fill="#562019" stroke="#734640" stroke-linejoin="round" stroke-width="5" font-size="16" font-family="HiraginoSans-W3, Hiragino Sans" letter-spacing="0.04em"><tspan x="0" y="0">チケット</tspan><tspan y="0" font-family="Helvetica">1</tspan><tspan y="0">枚</tspan></text>
      <text id="_1回-2" data-name="1回" transform="translate(117 190)" fill="#f9f5ec" font-size="16" font-family="Helvetica" letter-spacing="0.04em"><tspan x="0" y="0">1</tspan><tspan y="0" font-family="HiraginoSans-W3, Hiragino Sans">回</tspan></text>
      <text id="チケット1枚-2" data-name="チケット1枚" transform="translate(167 190)" fill="#f9f5ec" font-size="16" font-family="HiraginoSans-W3, Hiragino Sans" letter-spacing="0.04em"><tspan x="0" y="0">チケット</tspan><tspan y="0" font-family="Helvetica">1</tspan><tspan y="0">枚</tspan></text>
    </g>
  </g>
</svg>
